<svg xmlns="http://www.w3.org/2000/svg" width="94.623" height="94.887" viewBox="0 0 94.623 94.887">
  <g id="Group_104" data-name="Group 104" transform="translate(-573.46 -6968.829)" opacity="0.77">
    <path id="Path_574" data-name="Path 574" d="M14460.463,47.442A47.312,47.312,0,1,1,14413.15,0,47.38,47.38,0,0,1,14460.463,47.442Z" transform="translate(-13792.38 6968.828)" fill="#ec7f66"/>
    <path id="Path_595" data-name="Path 595" d="M16912,5593.942h21.611V5572.33H16912Z" transform="translate(-16314.91 1450.837)" fill="#fefefe"/>
    <path id="Path_596" data-name="Path 596" d="M19497.7,5613.732h21.613V5592.12H19497.7Z" transform="translate(-18871.219 1431.24)" fill="#fefefe"/>
    <path id="Path_597" data-name="Path 597" d="M16542.6,3725.34v14.409h25.213V3725.34Z" transform="translate(-15949.461 3279.816)" fill="#fefefe"/>
    <path id="Path_598" data-name="Path 598" d="M19501.3,3725.34h-3.6v14.409h25.215V3725.34Z" transform="translate(-18870.928 3279.816)" fill="#fefefe"/>
    <path id="Path_599" data-name="Path 599" d="M17425.533,1934.5v-.17a2.635,2.635,0,0,0-.527-1.586c1.221-1.237,7.584-7.363,10.309-3.53,3.018,4.247-6.824,8.163-6.824,8.163,16.441-.17,12.637-10.346,9.059-13.591s-5.2-.446-5.2-.446l-7.961,8.806a2.668,2.668,0,0,0-1.51-.473h-2.242a2.618,2.618,0,0,0-1.508.473l-7.961-8.806s-1.623-2.794-5.2.446-7.381,13.421,9.061,13.591c0,0-9.844-3.916-6.824-8.163,2.725-3.838,9.086,2.293,10.307,3.53a2.657,2.657,0,0,0-.527,1.586v.17a2.657,2.657,0,0,0,2.654,2.657h2.242a2.654,2.654,0,0,0,2.652-2.657Z" transform="translate(-16798.973 5065.35)" fill="#fefefe"/>
  </g>
</svg>
