<svg xmlns="http://www.w3.org/2000/svg" width="63.169" height="76.622" viewBox="0 0 63.169 76.622">
  <path id="Path_189" data-name="Path 189" d="M5795.331,14194.636l-29.727-17.165v-38.312l29.727,17.165v38.313Zm-30.346,18.234-29.726-17.16,29.108-16.8.619-.361.62.361,29.106,16.8Zm-30.345-54.78v-1.767l29.727-17.165v38.313l-29.727,17.165Zm60.691-3.2-29.727-17.159-.172-.1a.9.9,0,0,0-.9,0l-.171.1-29.727,17.159-.793.46a.889.889,0,0,0-.446.771v39.436a.9.9,0,0,0,.446.771l.793.458,29.8,17.205a1.109,1.109,0,0,0,1.086,0l29.8-17.205.792-.458a.9.9,0,0,0,.447-.771v-39.436a.887.887,0,0,0-.447-.771l-.792-.46Z" transform="translate(-5733.401 -14137.509)" fill="#ed1c24"/>
</svg>
