<svg xmlns="http://www.w3.org/2000/svg" width="86.77" height="86.773" viewBox="0 0 86.77 86.773">
  <g id="_2522648459616" opacity="0.5">
    <path id="Path_2020" data-name="Path 2020" d="M17482.789,48603.992a43.385,43.385,0,1,1-43.385-43.387A43.387,43.387,0,0,1,17482.789,48603.992Z" transform="translate(-17396.02 -48560.605)" fill="#0ba1a0"/>
    <path id="Path_2021" data-name="Path 2021" d="M17463.645,56239.414c-.035-.227-.066-.445-.1-.664C17463.578,56238.969,17463.609,56239.2,17463.645,56239.414Z" transform="translate(-17463.111 -56189.219)" fill="#0ba1a0"/>
    <path id="Path_2022" data-name="Path 2022" d="M17459.506,56210.66c-.01-.062-.018-.117-.025-.18C17459.488,56210.543,17459.5,56210.6,17459.506,56210.66Z" transform="translate(-17459.072 -56161.133)" fill="#108c84"/>
    <path id="Path_2023" data-name="Path 2023" d="M17501.141,50744.672l5.758-4.8-3.973-1.672,4.266-3.492-8.143-2.453-7.266,8.039-2.713-7.883-5.355,5.547-.521-3.125,10.928-16.047-12.463-29.2-37.193,34.867c.029.242.063.5.1.75.006.063.016.125.023.188.031.211.064.43.1.656a43.392,43.392,0,0,0,40.719,36.523l22.061-17.117Z" transform="translate(-17444.154 -50675.848)" fill="#108c84"/>
    <path id="Path_2024" data-name="Path 2024" d="M22895.8,52381.582h13.336v-15.875H22895.8Z" transform="translate(-22860.322 -52341.16)" fill="#fefefe"/>
    <path id="Path_2025" data-name="Path 2025" d="M24228.8,53688.8a1.23,1.23,0,0,0-.936.391,1.469,1.469,0,0,0,0,1.93,1.323,1.323,0,0,0,1.877,0,1.457,1.457,0,0,0,0-1.93A1.237,1.237,0,0,0,24228.8,53688.8Z" transform="translate(-24183.434 -53655.723)" fill="#2bb5b0"/>
    <path id="Path_2026" data-name="Path 2026" d="M23934.449,50588.625a2.68,2.68,0,1,1,.75-1.859A2.527,2.527,0,0,1,23934.449,50588.625Zm2.051,4.133V50569.7a4.439,4.439,0,0,0-4.434-4.437h-2.738v17.328l2.133-3.766h1.707l-3.84,6.8v20.766l.023.023,12.234-13.648Z" transform="translate(-23887.184 -50552.324)" fill="#d84140"/>
    <path id="Path_2027" data-name="Path 2027" d="M22036.074,50581.375a2.582,2.582,0,1,1,.754,1.875A2.552,2.552,0,0,1,22036.074,50581.375Zm3.77,7.945h-1.721l3.82-6.734v-17.328h-2.736a4.441,4.441,0,0,0-4.437,4.438v23.063h-5.08l12.254,13.633v-20.773Z" transform="translate(-21999.801 -50552.324)" fill="#bf3c3b"/>
    <path id="Path_2028" data-name="Path 2028" d="M23220.572,52848.926a1.4,1.4,0,0,0-.371-.992,1.253,1.253,0,0,0-.967-.391,1.241,1.241,0,0,0-.953.391,1.518,1.518,0,0,0,0,1.984,1.356,1.356,0,0,0,1.92,0A1.4,1.4,0,0,0,23220.572,52848.926Z" transform="translate(-23180.357 -52819.891)" fill="#bf3c3b"/>
    <path id="Path_2029" data-name="Path 2029" d="M24229.75,53691.078a1.32,1.32,0,0,1-1.875,0,1.469,1.469,0,0,1,0-1.93,1.339,1.339,0,0,1,1.875,0,1.451,1.451,0,0,1,0,1.93Z" transform="translate(-24183.445 -53655.684)" fill="#d84140"/>
    <path id="Path_2030" data-name="Path 2030" d="M20648.447,57281.809a7.567,7.567,0,0,0,3.309.828c1.369,0,2.094-.57,2.094-1.437,0-.82-.625-1.281-2.213-1.852-2.191-.766-3.621-1.977-3.621-3.9,0-2.25,1.881-3.969,4.992-3.969a7.993,7.993,0,0,1,3.369.664l-.67,2.406a6.319,6.319,0,0,0-2.758-.625c-1.291,0-1.918.586-1.918,1.266,0,.844.742,1.219,2.449,1.867,2.326.859,3.42,2.078,3.42,3.93,0,2.211-1.7,4.094-5.318,4.094a8.6,8.6,0,0,1-3.742-.8Z" transform="translate(-20626.865 -57215.289)" fill="#fefefe"/>
    <path id="Path_2031" data-name="Path 2031" d="M22224.008,57312.375l-.82-2.8c-.234-.781-.471-1.758-.666-2.539h-.041c-.2.781-.391,1.781-.605,2.539l-.785,2.8Zm-3.346,2.227-.939,3.391h-3.092l4.031-13.2h3.914l4.094,13.2h-3.211l-1.02-3.391Z" transform="translate(-22185.535 -57248.391)" fill="#fefefe"/>
    <path id="Path_2032" data-name="Path 2032" d="M24355.6,57304.8h2.994v10.688h5.248v2.508h-8.242Z" transform="translate(-24310.705 -57248.391)" fill="#fefefe"/>
    <path id="Path_2033" data-name="Path 2033" d="M25914.047,57312.414h-4.852v3.125h5.422v2.453h-8.418v-13.2h8.145v2.453h-5.148v2.734h4.852Z" transform="translate(-25851.305 -57248.391)" fill="#fefefe"/>
  </g>
</svg>
