<svg xmlns="http://www.w3.org/2000/svg" width="226.449" height="226.445" viewBox="0 0 226.449 226.445">
  <g id="_2756411267840" transform="matrix(0.788, 0.616, -0.616, 0.788, 99.321, 0)" opacity="0.31">
    <path id="Path_6" data-name="Path 6" d="M600.168,15624.068h4.44a161.332,161.332,0,0,0-161.327-161.32v4.438c86.506,0,156.887,70.376,156.887,156.882Z" transform="translate(-443.28 -15462.748)" fill="#ff6e3f"/>
    <path id="Path_7" data-name="Path 7" d="M585.475,15948.493h4.439A146.609,146.609,0,0,0,443.3,15801.881v4.443c78.4,0,142.175,63.773,142.175,142.169Z" transform="translate(-443.299 -15787.173)" fill="#ff6e3f"/>
    <path id="Path_8" data-name="Path 8" d="M570.753,16273.011h4.44c0-72.73-59.17-131.9-131.9-131.9v4.438A127.609,127.609,0,0,1,570.753,16273.011Z" transform="translate(-443.29 -16111.694)" fill="#ff6e3f"/>
    <path id="Path_9" data-name="Path 9" d="M556.041,16597.563h4.439a117.314,117.314,0,0,0-117.19-117.189v4.438A112.873,112.873,0,0,1,556.041,16597.563Z" transform="translate(-443.29 -16436.24)" fill="#ff6e3f"/>
    <path id="Path_10" data-name="Path 10" d="M541.336,16921.982h4.439A102.6,102.6,0,0,0,443.29,16819.5v4.445A98.149,98.149,0,0,1,541.336,16921.982Z" transform="translate(-443.29 -16760.662)" fill="#ff6e3f"/>
    <path id="Path_11" data-name="Path 11" d="M526.623,17246.406h4.44a87.873,87.873,0,0,0-87.773-87.773v4.447A83.421,83.421,0,0,1,526.623,17246.406Z" transform="translate(-443.29 -17085.086)" fill="#ff6e3f"/>
    <path id="Path_12" data-name="Path 12" d="M511.92,17570.941h4.439a73.149,73.149,0,0,0-73.06-73.061v4.443a68.7,68.7,0,0,1,68.621,68.617Z" transform="translate(-443.299 -17409.621)" fill="#ff6e3f"/>
    <path id="Path_13" data-name="Path 13" d="M497.2,17895.492h4.44a58.409,58.409,0,0,0-58.348-58.35v4.436A53.974,53.974,0,0,1,497.2,17895.492Z" transform="translate(-443.29 -17734.168)" fill="#ff6e3f"/>
    <path id="Path_14" data-name="Path 14" d="M482.5,18220.027h4.439a43.687,43.687,0,0,0-43.642-43.637v4.441A39.242,39.242,0,0,1,482.5,18220.027Z" transform="translate(-443.299 -18058.705)" fill="#ff6e3f"/>
    <path id="Path_15" data-name="Path 15" d="M467.78,18544.43h4.44a28.963,28.963,0,0,0-28.93-28.928v4.439A24.521,24.521,0,0,1,467.78,18544.43Z" transform="translate(-443.29 -18383.107)" fill="#ff6e3f"/>
    <path id="Path_16" data-name="Path 16" d="M453.069,18868.969h4.439a14.228,14.228,0,0,0-14.218-14.217v4.439A9.789,9.789,0,0,1,453.069,18868.969Z" transform="translate(-443.29 -18707.646)" fill="#ff6e3f"/>
  </g>
</svg>
