<?xml version="1.0" encoding="utf-8"?>
<!-- Generator: Adobe Illustrator 26.0.1, SVG Export Plug-In . SVG Version: 6.00 Build 0)  -->
<svg version="1.1" id="Layer_1" xmlns="http://www.w3.org/2000/svg" xmlns:xlink="http://www.w3.org/1999/xlink" x="0px" y="0px"
	 viewBox="0 0 1080 1080" style="enable-background:new 0 0 1080 1080;" xml:space="preserve">
<style type="text/css">
	.st0{fill:#27547E;}
	.st1{fill:none;stroke:#27547E;stroke-miterlimit:10;}
	.st2{fill:#012C57;}
	.st3{fill:#F7931E;}
	.st4{fill:#FFFFFF;}
</style>
<g>
	<g>
		<path class="st2" d="M744.22,337.09c-47.45-47.39-111.01-84.46-179.46-83.58c-77.75-0.13-150.76,46.56-190.78,112.02
			c-14.18,22.93-24.36,48.47-29.46,74.94c-0.78,3.55-1.34,8.65-1.96,12.28c-0.64,5.94-1.27,12.58-1.38,18.58
			c-0.32,4.84,0.02,10.69,0.11,15.53c0.19,2.82,0.68,8.01,0.89,10.84c0.79,5.32,1.52,11.64,2.76,16.88c1.56,8.03,3.97,16.29,6.69,24
			c1.03,3.5,3.18,8.24,4.53,11.65c19.14,44.97,55.45,80.64,95.97,107.13c2.67,1.64,8.19,5.21,10.86,6.9
			c4.19,2.62,12.51,7.23,16.72,9.74c-5.83-2.67-11.84-5.3-17.6-8.13c-2.91-1.46-8.6-4.5-11.48-5.99
			c-88.64-47.92-141.8-133.16-118.14-235.14c28.2-119.43,152.91-208.23,275.12-178.04c24.45,6.25,47.98,16.33,69.08,30.01
			c1.8,1.11,6.46,4.19,8.2,5.37c2.94,2.15,7.59,5.55,10.53,7.7c2.98,2.08,9.87,8.14,12.62,10.27c3.27,2.85,6.4,5.85,9.6,8.76
			C727.15,317.59,735.79,327.28,744.22,337.09L744.22,337.09z"/>
	</g>
</g>
<g>
	<g>
		<g>
			<g>
				<path class="st3" d="M456.33,538.98c-2.89,0-5.29-0.2-7.13-0.58c-15.51-3.27-41.88-34.58-98.99-108.23
					c-21.95-28.31-49.25-63.52-56.59-68.08l-0.1-0.06l-0.11-0.04c-1.33-0.45-3.11-0.68-5.29-0.68c-13.02,0-38.6,7.89-57.13,15.69
					c-1.13,0.47-2.31,0.71-3.52,0.71c-3.67,0-6.97-2.19-8.39-5.57c-1.95-4.62,0.23-9.97,4.85-11.92
					c6.71-2.83,41.36-16.93,64.39-16.93c4.79,0,8.81,0.61,11.95,1.82c9.15,3.52,24.9,23.06,64.33,73.9
					c18.35,23.66,37.32,48.13,53.98,67.74c24.79,29.18,32.6,33.28,34.41,33.84c0.95,0.2,2.13,0.3,3.62,0.3
					c12.08,0,46.7-6.05,96.81-19.55c57.23-15.43,87.46-27.62,93.82-32.06l0.3-0.21l0.09-0.35c2.12-7.93,5.95-34.84,8.44-64.5
					c3.75-44.53,1.76-60.63,1.07-64.5l-0.15-0.83l-0.84,0.01c-14.57,0.16-59.35,8.07-94.08,15.44c-0.62,0.13-1.26,0.2-1.89,0.2
					c-1.79,0-3.53-0.52-5.02-1.51c-2.02-1.34-3.45-3.46-3.91-5.84l-3.18-16.2l-50.37,49.16l71.8,18.22l-1.91-10.38
					c-0.85-4.6,1.9-9.06,6.38-10.38l23.18-6.82c0.84-0.25,1.71-0.37,2.57-0.37c4,0,7.59,2.69,8.73,6.54
					c0.69,2.33,0.42,4.79-0.74,6.92s-3.09,3.69-5.42,4.37l-15.31,4.5l3,16.27c0.57,3.06-0.46,6.17-2.73,8.29
					c-1.69,1.58-3.9,2.46-6.22,2.46c-0.75,0-1.5-0.09-2.24-0.28l-101.29-25.7c-3.19-0.81-5.7-3.28-6.55-6.46
					c-0.85-3.18,0.08-6.58,2.43-8.87l74.03-72.26c1.71-1.67,3.97-2.59,6.36-2.59c0.92,0,1.83,0.14,2.71,0.41
					c3.2,1,5.58,3.65,6.22,6.94l4.64,23.7l0.99-0.2c8.99-1.82,22.66-4.52,36.79-7.02c25.1-4.45,42.6-6.71,52-6.71
					c4.99,0,6.84,0.62,8.2,1.07c2.25,0.75,5.38,2.61,7.5,7.19c4.42,9.53,4.88,35.42,1.38,76.96c-2.37,28.07-6.72,62.5-10.13,71.02
					c-1.89,4.74-5.91,9.54-35.96,20.43c-17.11,6.2-40.07,13.33-64.67,20.08C545.03,522.51,482.97,538.97,456.33,538.98
					L456.33,538.98z"/>
				<path class="st4" d="M553.74,304.6c0.82,0,1.63,0.12,2.41,0.37c2.84,0.89,4.97,3.25,5.54,6.18l4.45,22.71l0.39,1.98l1.97-0.4
					c8.98-1.82,22.65-4.51,36.77-7.02c25.04-4.44,42.48-6.69,51.83-6.69c4.83,0,6.52,0.56,7.88,1.02c2.06,0.69,4.94,2.4,6.91,6.66
					c2.99,6.44,5.64,24.94,1.29,76.46c-2.39,28.39-6.81,62.61-10.06,70.73c-1.74,4.34-5.75,9.13-35.38,19.86
					c-17.08,6.19-40.02,13.31-64.59,20.05c-18.36,5.04-80.31,21.47-106.81,21.47c-2.82,0-5.16-0.19-6.93-0.56
					c-15.1-3.18-42.56-35.85-98.4-107.86c-27.97-36.07-49.91-64-56.85-68.32l-0.2-0.12l-0.15-0.05l0.01-0.02l-0.01,0.02l-0.07-0.02
					c-1.46-0.49-3.29-0.73-5.61-0.73c-13.15,0-38.89,7.93-57.52,15.76c-1,0.42-2.06,0.64-3.14,0.64c-3.27,0-6.2-1.95-7.47-4.96
					c-1.73-4.12,0.21-8.87,4.32-10.61c6.68-2.81,41.17-16.85,64-16.85c4.66,0,8.56,0.59,11.59,1.75
					c8.87,3.41,25.42,23.96,63.89,73.58c18.35,23.67,37.33,48.15,54,67.78c24.28,28.59,32.48,33.4,34.87,34.14l0.09,0.03l0.09,0.02
					c0.94,0.2,2.16,0.29,3.73,0.29c12.15,0,46.87-6.06,97.07-19.59c51.32-13.83,86.2-26.67,94.13-32.2l0.6-0.42l0.19-0.71
					c2.13-7.96,5.97-34.96,8.47-64.67c3.76-44.66,1.75-60.86,1.05-64.76l-0.3-1.66l-1.69,0.02c-14.64,0.16-59.5,8.08-94.28,15.46
					c-0.55,0.12-1.12,0.18-1.68,0.18c-1.59,0-3.14-0.46-4.47-1.34c-1.8-1.19-3.07-3.08-3.48-5.2l-2.82-14.39l-0.71-3.63l-2.65,2.58
					l-47.77,46.62l-2.55,2.49l3.46,0.88l68.55,17.39l3.02,0.77l-0.57-3.07l-1.63-8.84c-0.75-4.09,1.69-8.06,5.68-9.24l23.18-6.82
					c0.75-0.22,1.52-0.33,2.29-0.33c3.56,0,6.76,2.39,7.77,5.82c0.61,2.08,0.38,4.26-0.66,6.16c-1.04,1.9-2.75,3.28-4.83,3.89
					l-14.45,4.25l-1.73,0.51l0.33,1.77l2.84,15.39c0.5,2.73-0.41,5.49-2.43,7.38c-1.51,1.41-3.47,2.19-5.54,2.19
					c-0.67,0-1.34-0.08-1.99-0.25l-101.29-25.7c-2.84-0.72-5.07-2.92-5.83-5.75c-0.76-2.83,0.07-5.85,2.17-7.9l74.03-72.26
					C549.6,305.41,551.61,304.6,553.74,304.6 M553.74,302.6c-2.6,0-5.14,1-7.05,2.87l-74.03,72.26c-2.61,2.55-3.65,6.32-2.7,9.85
					c0.95,3.53,3.73,6.27,7.27,7.17l101.29,25.7c0.82,0.21,1.66,0.31,2.48,0.31c2.53,0,5.01-0.95,6.9-2.73
					c2.51-2.35,3.65-5.82,3.03-9.21l-2.84-15.39l14.45-4.25c5.35-1.57,8.41-7.19,6.84-12.54c-1.3-4.4-5.32-7.25-9.69-7.25
					c-0.94,0-1.9,0.13-2.85,0.41l-23.18,6.82c-4.96,1.46-8.02,6.43-7.08,11.52l1.63,8.84l-68.56-17.39l47.77-46.62l2.82,14.39
					c0.52,2.65,2.08,4.99,4.34,6.48c1.67,1.1,3.61,1.67,5.57,1.67c0.7,0,1.4-0.07,2.1-0.22c36.64-7.77,79.97-15.27,93.89-15.42
					c1.28,7.11,2.13,26.12-1.08,64.24c-2.61,31.03-6.48,57.11-8.41,64.33c-6.82,4.76-38.7,17.14-93.5,31.91
					c-48.88,13.18-84.24,19.52-96.55,19.52c-1.42,0-2.53-0.08-3.32-0.25c-1.24-0.38-8.69-3.8-33.94-33.53
					c-16.63-19.57-35.6-44.04-53.95-67.71c-39.54-51-55.37-70.61-64.76-74.22c-3.45-1.33-7.65-1.89-12.31-1.89
					c-23.02,0-57.06,13.75-64.78,17c-5.14,2.16-7.55,8.08-5.39,13.23c1.62,3.86,5.37,6.18,9.31,6.18c1.31,0,2.63-0.25,3.91-0.79
					c19.65-8.26,44.46-15.61,56.74-15.61c2.02,0,3.71,0.2,4.97,0.63c7.19,4.47,34.41,39.59,56.32,67.85
					c57.26,73.85,83.76,105.27,99.57,108.6c1.98,0.42,4.45,0.61,7.34,0.61c26.57,0,87.67-16.15,107.34-21.54
					c24.62-6.75,47.61-13.89,64.74-20.1c30.45-11.03,34.57-16.04,36.55-21c3.44-8.61,7.83-43.17,10.2-71.31
					c3.52-41.72,3.02-67.78-1.47-77.47c-2.28-4.91-5.66-6.91-8.09-7.72c-1.43-0.48-3.36-1.12-8.51-1.12
					c-7.57,0-22.08,1.39-52.18,6.72c-14.17,2.51-27.92,5.22-36.81,7.03l-4.45-22.71c-0.71-3.64-3.37-6.6-6.91-7.7
					C555.75,302.75,554.74,302.6,553.74,302.6L553.74,302.6z M292.93,362.82C292.93,362.82,292.93,362.82,292.93,362.82
					C292.93,362.82,292.93,362.82,292.93,362.82L292.93,362.82z"/>
			</g>
		</g>
	</g>
</g>
<circle class="st2" cx="498.11" cy="580.62" r="27.95"/>
<circle class="st2" cx="649.46" cy="539.71" r="27.95"/>
<g>
	<path class="st2" d="M281.61,807.99c-5.6,1.98-11.55,3.01-17.86,3.09c-0.42,0-0.82,0-1.2,0c-0.38,0-0.78,0-1.2,0
		c-0.59,0-1.16-0.02-1.7-0.06c-0.55-0.04-1.07-0.06-1.58-0.06c-0.59,0-1.16-0.02-1.7-0.06c-0.55-0.04-1.12-0.06-1.7-0.06v26.64
		h-20.7v-80.42h25.38c1.09,0,2.19,0,3.28,0c1.09,0,2.19,0.04,3.28,0.13c4.38,0.17,8.58,0.88,12.62,2.15
		c4.04,1.26,7.45,3.79,10.23,7.57c1.43,1.85,2.57,3.94,3.41,6.25c0.84,2.32,1.43,4.65,1.77,7.01c0.08,0.67,0.15,1.39,0.19,2.15
		c0.04,0.76,0.06,1.47,0.06,2.15c0,1.6-0.11,3.22-0.32,4.86c-0.21,1.64-0.53,3.18-0.95,4.61
		C290.97,801.32,287.21,806.01,281.61,807.99z M255.73,793.34c0.38,0.04,0.78,0.06,1.2,0.06c0.34,0,0.69,0.02,1.07,0.06
		c0.38,0.04,0.74,0.06,1.07,0.06c0.17,0,0.34,0,0.51,0c0.17,0,0.33,0,0.5,0c3.11-0.08,6-0.69,8.65-1.83
		c2.65-1.14,4.02-3.68,4.1-7.64v-0.76c0-3.54-1.2-5.87-3.6-7.01c-2.4-1.14-5.03-1.79-7.89-1.96c-0.5-0.08-1.01-0.13-1.51-0.13
		s-1.01,0-1.52,0h-3.66v19.06C254.99,793.28,255.35,793.3,255.73,793.34z"/>
	<path class="st2" d="M322.7,837.47H302v-80.42h28.91c1.01,0,2.02,0.02,3.03,0.06c1.01,0.04,2.02,0.11,3.03,0.19
		c2.86,0.17,5.68,0.61,8.46,1.33c2.78,0.72,5.3,1.96,7.57,3.72c2.86,2.27,5.03,5.05,6.5,8.33c1.47,3.28,2.29,6.73,2.46,10.35v0.76
		c0,6.4-1.5,11.49-4.48,15.28c-2.99,3.79-7.51,6.4-13.57,7.83l21.97,32.57h-24.75L322.7,805.9V837.47z M323.27,794.98
		c0.21,0.04,0.44,0.06,0.69,0.06c0.17,0,0.36,0.02,0.57,0.06c0.21,0.04,0.4,0.06,0.57,0.06c0.08,0,0.15,0,0.19,0
		c0.04,0,0.1,0,0.19,0c3.62,0,6.96-0.57,10.04-1.71c3.07-1.14,4.65-4.06,4.73-8.77v-0.63c0-4.38-1.47-7.15-4.42-8.33
		c-2.95-1.18-6.19-1.81-9.72-1.89c-0.42,0-0.86,0-1.33,0c-0.46,0-0.91,0-1.33,0h-0.76v21.08
		C322.87,794.92,323.06,794.94,323.27,794.98z"/>
	<path class="st2" d="M378.75,757.05h22.09v80.42h-22.09V757.05z"/>
	<path class="st2" d="M489.22,837.47l-4.67-34.84c-0.25-1.51-0.46-3.01-0.63-4.48c-0.17-1.47-0.34-2.97-0.5-4.48
		c-0.08-1.51-0.19-3.01-0.32-4.48c-0.13-1.47-0.27-2.97-0.44-4.48c-0.08,0.84-0.21,1.68-0.38,2.52c-0.17,0.84-0.38,1.68-0.63,2.53
		c-0.34,1.68-0.74,3.35-1.2,4.99c-0.46,1.64-0.95,3.35-1.45,5.11l-10.86,37.62h-14.52l-10.98-37.62c-0.5-1.77-0.97-3.47-1.39-5.11
		c-0.42-1.64-0.84-3.3-1.26-4.99c-0.17-0.84-0.36-1.68-0.57-2.53c-0.21-0.84-0.4-1.68-0.57-2.52c-0.08,1.51-0.19,3.01-0.32,4.48
		c-0.13,1.47-0.27,2.97-0.44,4.48c-0.17,1.52-0.34,3.01-0.5,4.48c-0.17,1.47-0.34,2.97-0.5,4.48l-4.67,34.84h-20.33l12.25-80.42
		h21.71l12.25,41.28c0.25,1.01,0.52,1.96,0.82,2.84c0.29,0.88,0.53,1.79,0.69,2.71c0.25,0.93,0.46,1.83,0.63,2.71
		c0.17,0.88,0.29,1.83,0.38,2.84c0.17-1.09,0.36-2.17,0.57-3.22c0.21-1.05,0.44-2.12,0.69-3.22c0.17-0.76,0.34-1.52,0.5-2.27
		c0.17-0.76,0.38-1.56,0.63-2.4l12.37-41.28h21.59l12.5,80.42H489.22z"/>
	<path class="st2" d="M523.18,757.05h49.36v17.55h-27.77v14.01h26.13v17.17h-26.13v13.63h27.77v18.05h-49.36V757.05z"/>
	<path class="st2" d="M593.34,811.65c0.04,0.04,0.1,0.11,0.19,0.19c2.27,2.53,4.84,4.86,7.7,7.01c2.86,2.15,6.14,3.3,9.85,3.47
		c0.08,0,0.19,0.02,0.32,0.06c0.13,0.04,0.23,0.06,0.32,0.06c0.08,0,0.19,0.02,0.32,0.06c0.13,0.04,0.23,0.06,0.32,0.06
		c0.34,0,0.69-0.02,1.07-0.06c0.38-0.04,0.74-0.1,1.07-0.19c1.34-0.25,2.63-0.76,3.85-1.51c1.22-0.76,2.17-1.68,2.84-2.78
		c0.08-0.17,0.17-0.34,0.25-0.51c0.08-0.17,0.17-0.33,0.25-0.5c0.17-0.59,0.29-1.14,0.38-1.64c0.08-0.5,0.13-0.97,0.13-1.39
		c0-2.27-0.99-4.19-2.97-5.74c-1.98-1.56-4.1-2.76-6.38-3.6c-0.93-0.33-1.81-0.61-2.65-0.82c-0.84-0.21-1.64-0.4-2.4-0.57
		c-0.08,0-0.17-0.02-0.25-0.06c-0.08-0.04-0.17-0.06-0.25-0.06c-4.12-1.01-8-2.63-11.61-4.86c-3.62-2.23-6.1-5.45-7.45-9.66
		c-0.25-0.84-0.48-1.72-0.69-2.65c-0.21-0.92-0.36-1.89-0.44-2.9c-0.08-0.33-0.13-0.65-0.13-0.95c0-0.29,0-0.61,0-0.95
		c0-0.67,0.02-1.35,0.06-2.02c0.04-0.67,0.15-1.35,0.32-2.02c0.25-1.68,0.67-3.37,1.26-5.05c0.59-1.68,1.35-3.2,2.27-4.54
		c2.69-4.46,6.17-7.66,10.42-9.59c4.25-1.94,8.69-2.9,13.32-2.9c1.09,0,2.21,0.06,3.35,0.19c1.14,0.13,2.29,0.27,3.47,0.44
		c3.03,0.5,6.04,1.35,9.03,2.52c2.99,1.18,5.74,2.57,8.27,4.17l-6.94,15.53c-2.27-1.68-4.67-3.16-7.2-4.42
		c-2.53-1.26-5.26-1.89-8.21-1.89c-0.17,0-0.34,0-0.5,0c-0.17,0-0.34,0-0.5,0c-1.94,0.25-3.75,1.12-5.43,2.59
		c-1.68,1.47-2.53,3.05-2.53,4.73c0,0.25,0.02,0.5,0.06,0.76c0.04,0.25,0.15,0.5,0.32,0.76c0.17,0.59,0.46,1.14,0.88,1.64
		c0.42,0.5,0.88,0.97,1.39,1.39c0.93,0.76,2.27,1.45,4.04,2.08s3.62,1.24,5.55,1.83c1.6,0.42,3.16,0.82,4.67,1.2
		c1.52,0.38,2.78,0.74,3.79,1.07c4.71,1.68,8.25,4.48,10.6,8.4c2.36,3.91,3.58,8.06,3.66,12.44c0,0.17,0,0.3,0,0.38
		c0,0.08,0,0.17,0,0.25c0,0.5-0.02,1.01-0.06,1.52c-0.04,0.5-0.06,0.97-0.06,1.39c-0.51,4.38-1.92,8.54-4.23,12.5
		c-2.32,3.96-5.41,6.99-9.28,9.09c-1.43,0.67-2.9,1.24-4.42,1.7c-1.51,0.46-3.03,0.86-4.54,1.2c-1.26,0.25-2.52,0.44-3.79,0.57
		s-2.48,0.19-3.66,0.19c-0.25,0-0.49,0-0.69,0c-0.21,0-0.44,0-0.69,0c-5.05-0.17-10.02-1.28-14.9-3.35c-4.88-2.06-9.22-4.82-13-8.27
		l10.1-16.16C593.24,811.54,593.3,811.61,593.34,811.65z"/>
	<path class="st2" d="M698.27,807.99c-5.6,1.98-11.55,3.01-17.86,3.09c-0.42,0-0.82,0-1.2,0s-0.78,0-1.2,0
		c-0.59,0-1.16-0.02-1.7-0.06c-0.55-0.04-1.07-0.06-1.58-0.06c-0.59,0-1.16-0.02-1.7-0.06c-0.55-0.04-1.12-0.06-1.7-0.06v26.64
		h-20.71v-80.42h25.38c1.09,0,2.19,0,3.28,0c1.09,0,2.19,0.04,3.28,0.13c4.38,0.17,8.58,0.88,12.62,2.15
		c4.04,1.26,7.45,3.79,10.23,7.57c1.43,1.85,2.57,3.94,3.41,6.25c0.84,2.32,1.43,4.65,1.77,7.01c0.08,0.67,0.15,1.39,0.19,2.15
		c0.04,0.76,0.06,1.47,0.06,2.15c0,1.6-0.11,3.22-0.32,4.86c-0.21,1.64-0.53,3.18-0.95,4.61
		C707.63,801.32,703.87,806.01,698.27,807.99z M672.39,793.34c0.38,0.04,0.78,0.06,1.2,0.06c0.33,0,0.69,0.02,1.07,0.06
		c0.38,0.04,0.74,0.06,1.07,0.06c0.17,0,0.34,0,0.5,0c0.17,0,0.34,0,0.5,0c3.11-0.08,6-0.69,8.65-1.83c2.65-1.14,4.02-3.68,4.1-7.64
		v-0.76c0-3.54-1.2-5.87-3.6-7.01c-2.4-1.14-5.03-1.79-7.89-1.96c-0.5-0.08-1.01-0.13-1.51-0.13s-1.01,0-1.51,0h-3.66v19.06
		C671.65,793.28,672.01,793.3,672.39,793.34z"/>
	<path class="st2" d="M738.07,761.09c6.9-3.79,14.1-5.68,21.59-5.68c1.01,0,2.04,0.04,3.09,0.13c1.05,0.08,2.08,0.17,3.09,0.25
		c3.11,0.42,6.21,1.18,9.28,2.27c3.07,1.09,6,2.52,8.77,4.29c5.98,3.87,10.6,9.03,13.89,15.46c3.28,6.44,4.92,13.15,4.92,20.14
		c0,0.84-0.02,1.7-0.06,2.59c-0.04,0.88-0.15,1.75-0.32,2.59c-0.17,1.77-0.49,3.52-0.95,5.24c-0.46,1.73-1.03,3.43-1.7,5.11
		c-3.54,8.16-9.05,14.5-16.54,19c-7.49,4.5-15.36,6.75-23.61,6.75c-0.59,0-1.16-0.02-1.7-0.06c-0.55-0.04-1.12-0.06-1.7-0.06
		c-2.86-0.25-5.7-0.76-8.52-1.52c-2.82-0.76-5.54-1.81-8.14-3.16c-7.07-3.7-12.62-8.98-16.66-15.84c-4.04-6.86-6.06-13.99-6.06-21.4
		c0-1.09,0.04-2.19,0.13-3.28c0.08-1.09,0.25-2.23,0.5-3.41c0.42-2.19,1.01-4.4,1.77-6.63c0.76-2.23,1.68-4.36,2.78-6.38
		C725.78,770.35,731.17,764.87,738.07,761.09z M780.05,803.76c0.21-0.92,0.36-1.85,0.44-2.78c0.08-0.59,0.15-1.18,0.19-1.77
		c0.04-0.59,0.06-1.14,0.06-1.64s-0.02-1.01-0.06-1.51c-0.04-0.51-0.06-1.01-0.06-1.52c-0.42-3.62-1.51-7.11-3.28-10.48
		c-1.77-3.37-4.21-5.97-7.32-7.83c-0.84-0.42-1.68-0.8-2.53-1.14c-0.84-0.34-1.68-0.63-2.52-0.88c-0.84-0.17-1.68-0.32-2.53-0.44
		c-0.84-0.13-1.68-0.19-2.52-0.19c-4.29,0-8.25,1.35-11.87,4.04c-3.62,2.69-6.14,6.27-7.58,10.73c-0.08,0.17-0.15,0.34-0.19,0.5
		c-0.04,0.17-0.06,0.34-0.06,0.5c-0.25,0.76-0.46,1.54-0.63,2.34c-0.17,0.8-0.34,1.62-0.51,2.46c-0.08,0.59-0.15,1.16-0.19,1.71
		c-0.04,0.55-0.06,1.12-0.06,1.7c0,0.34,0,0.65,0,0.95c0,0.3,0.04,0.61,0.13,0.95c0.25,4.46,1.62,8.69,4.1,12.69
		c2.48,4,5.91,6.63,10.29,7.89c0.5,0.17,1.01,0.32,1.51,0.44c0.5,0.13,1.05,0.23,1.64,0.32c0.51,0.08,1.01,0.15,1.52,0.19
		c0.5,0.04,1.01,0.06,1.51,0.06c4.46,0,8.48-1.33,12.06-3.98c3.58-2.65,6.16-6.21,7.76-10.67
		C779.61,805.57,779.84,804.68,780.05,803.76z"/>
	<path class="st2" d="M822.74,776.11h-17.93v-19.06h57.82v19.06h-17.93v61.36h-21.97V776.11z"/>
</g>
</svg>
