<svg xmlns="http://www.w3.org/2000/svg" width="73.195" height="73.191" viewBox="0 0 73.195 73.191">
  <g id="_2522648437312" transform="translate(0 0)" opacity="0.75">
    <path id="Path_1968" data-name="Path 1968" d="M52260.9,32493.535a36.6,36.6,0,1,1-36.594-36.6A36.593,36.593,0,0,1,52260.9,32493.535Z" transform="translate(-52187.703 -32456.938)" fill="#d84140"/>
    <path id="Path_1969" data-name="Path 1969" d="M52563.539,35690.559l10.855-12.418-6.812-14.836-31.82,14.367-6.629,8.352-4.961-.414-8.875,8.148a36.672,36.672,0,0,0,20.926,22.559l29.816-22.656Z" transform="translate(-52513.516 -35645.855)" fill="#cc2a2a"/>
    <path id="Path_1970" data-name="Path 1970" d="M59300.438,37306.367l-.363-.8.5-.227.352.773a2.315,2.315,0,0,1,1.168-.2l.043.613a2.117,2.117,0,0,0-1.133.188.742.742,0,0,0-.473,1.055.725.725,0,0,0,.5.418h5.652a4.816,4.816,0,0,0-.414-1.516,4.907,4.907,0,0,0-9.336,1.516h2.9A1.441,1.441,0,0,1,59300.438,37306.367Z" transform="translate(-59258.246 -37277.445)" fill="#fcfdfe"/>
    <path id="Path_1971" data-name="Path 1971" d="M57037.816,35678.559a2.84,2.84,0,0,1-.09-2.211,2.884,2.884,0,0,1,3.355-1.8l1.652,3.582.02-.008-6.832-14.824-.02.008,1.7,3.684a2.874,2.874,0,0,1-3.531,1.348,2.867,2.867,0,0,1-1.809-3.352l-24.176,11.141.211.465-.211-.465,3.641-1.68a2.858,2.858,0,0,1,1.293,1.344,3.092,3.092,0,0,1,.238.8h.715a3.557,3.557,0,0,0-1.477-2.5l19-8.754a3.581,3.581,0,0,0,2.328,3.672,3.547,3.547,0,0,0,4.133-1.258l2.777,6.027a3.583,3.583,0,0,0-3.562,5.078,3.539,3.539,0,0,0,1.086,1.34l.754-.348A2.845,2.845,0,0,1,57037.816,35678.559Z" transform="translate(-56981.855 -35645.848)" fill="#fcfdfe"/>
    <path id="Path_1972" data-name="Path 1972" d="M57013.031,37714.063a2.868,2.868,0,0,0-1.289-1.344l-3.641,1.672.215.469h4.953A2.922,2.922,0,0,0,57013.031,37714.063Z" transform="translate(-56981.871 -37684.121)" fill="#408356"/>
    <path id="Path_1973" data-name="Path 1973" d="M61336.434,35801.2l-3.637,1.676Z" transform="translate(-61283.035 -35783.008)" fill="#408356"/>
    <path id="Path_1974" data-name="Path 1974" d="M61437.426,35668.746a2.878,2.878,0,0,0,5.156.148l-1.7-3.68-3.637,1.676A2.868,2.868,0,0,0,61437.426,35668.746Z" transform="translate(-61386.836 -35647.758)" fill="#408356"/>
    <path id="Path_1975" data-name="Path 1975" d="M62425.8,37717.488a2.874,2.874,0,0,0-2.078,5.3l3.73-1.719Z" transform="translate(-62366.566 -37688.789)" fill="#408356"/>
    <path id="Path_1976" data-name="Path 1976" d="M57843.371,36052.289a3.588,3.588,0,0,1,3.566-5.078l-2.781-6.023a3.509,3.509,0,0,1-1.375,1.145,3.588,3.588,0,0,1-2.754.105,3.537,3.537,0,0,1-2.023-1.867,3.578,3.578,0,0,1-.3-1.8l-19,8.754a3.609,3.609,0,0,1,1.168,1.4,3.571,3.571,0,0,1,.3,1.1h6.566a4.907,4.907,0,0,1,9.336-1.512,4.8,4.8,0,0,1,.418,1.512h4.742v5.094l3.227-1.488A3.589,3.589,0,0,1,57843.371,36052.289Z" transform="translate(-57788.063 -36019.285)" fill="#408356"/>
    <path id="Path_1977" data-name="Path 1977" d="M59808.2,37585.328a.742.742,0,0,1,.469-1.055,2.1,2.1,0,0,1,1.133-.184l-.039-.617a2.328,2.328,0,0,0-1.172.2l-.352-.773-.5.23.367.8a1.439,1.439,0,0,0-.609,1.82h1.2A.7.7,0,0,1,59808.2,37585.328Z" transform="translate(-59765.902 -37555.004)" fill="#408356"/>
    <path id="Path_1978" data-name="Path 1978" d="M56211.422,38242.4h0Z" transform="translate(-56185.625 -38210.914)" fill="#fcfdfe"/>
    <path id="Path_1979" data-name="Path 1979" d="M56211.684,38524.23a3.6,3.6,0,0,0-4.246-.605v-6.6a3.585,3.585,0,0,0,5.191-2.145l-.59-1.277a2.306,2.306,0,0,1,.016.289,2.874,2.874,0,0,1-4.617,2.289h0v12.266h0v-3.984a2.884,2.884,0,0,1,3.746.273,2.881,2.881,0,0,1,.3,3.711h.824a3.512,3.512,0,0,0,.43-1.672A3.586,3.586,0,0,0,56211.684,38524.23Z" transform="translate(-56185.563 -38480.641)" fill="#fcfdfe"/>
    <path id="Path_1980" data-name="Path 1980" d="M60856.664,39187.551a3.584,3.584,0,0,0-5.359,3.121,3.535,3.535,0,0,0,.43,1.672h.82a2.892,2.892,0,0,1-.539-1.672,2.856,2.856,0,0,1,.844-2.043,2.887,2.887,0,0,1,3.8-.23v3.945h.023v-11.215l-.023.008Z" transform="translate(-60804.16 -39144.539)" fill="#fcfdfe"/>
    <path id="Path_1981" data-name="Path 1981" d="M59930.859,38242.406h5.508a3.613,3.613,0,0,0-.477,1.758,3.652,3.652,0,0,0,.141.969,4.947,4.947,0,0,0,.477-2.727Z" transform="translate(-59888.727 -38210.922)" fill="#fcfdfe"/>
    <path id="Path_1982" data-name="Path 1982" d="M59178,38242.3h0Z" transform="translate(-59139.965 -38210.824)" fill="#fcfdfe"/>
    <path id="Path_1983" data-name="Path 1983" d="M56928.6,38242.4Z" transform="translate(-56902.805 -38210.914)" fill="#fcfdfe"/>
    <path id="Path_1984" data-name="Path 1984" d="M57053.6,38513.6h0l.586,1.277Z" transform="translate(-57027.121 -38480.641)" fill="#fcfdfe"/>
    <path id="Path_1985" data-name="Path 1985" d="M57839.816,38242.4Z" transform="translate(-57808.344 -38210.914)" fill="#fcfdfe"/>
    <path id="Path_1986" data-name="Path 1986" d="M56928.629,38242.406a2.871,2.871,0,0,1,.6,1.477l.586,1.277a3.81,3.81,0,0,0,.141-1,3.586,3.586,0,0,0-.48-1.758h-.848Z" transform="translate(-56902.75 -38210.922)" fill="#fcfdfe"/>
    <path id="Path_1987" data-name="Path 1987" d="M60881.094,38245.133a3.562,3.562,0,0,0,.918,1.578,3.6,3.6,0,0,0,2.547,1.055,3.561,3.561,0,0,0,1.734-.465v.207l.023-.008v-5.094h-.027v4.055a2.872,2.872,0,0,1-4-4.055h-.707A4.951,4.951,0,0,1,60881.094,38245.133Z" transform="translate(-60833.789 -38210.922)" fill="#fcfdfe"/>
    <path id="Path_1988" data-name="Path 1988" d="M57970.7,38242.3h0Z" transform="translate(-57939.234 -38210.824)" fill="#fcfdfe"/>
    <path id="Path_1989" data-name="Path 1989" d="M58122.82,38848.164a1.438,1.438,0,0,1-.152-.094l.027-.09.18-.5a2.122,2.122,0,0,0,.508.25,2.323,2.323,0,0,0,.75.129.869.869,0,0,0,.984-.859c0-.48-.289-.781-.934-1.043-.895-.352-1.445-.762-1.445-1.523a1.434,1.434,0,0,1,1.316-1.41v-.879h.551v.852a2.33,2.33,0,0,1,1.133.3l-.211.578a2.146,2.146,0,0,0-1.105-.309c-.68,0-.875.406-.875.766,0,.445.27.676,1.031,1,.906.367,1.359.816,1.359,1.6a1.512,1.512,0,0,1-1.391,1.488v.91H58124v-.875a2.025,2.025,0,0,1-.266-.02A2.668,2.668,0,0,1,58122.82,38848.164Zm5.273-5.543a4.91,4.91,0,0,0-8.7,3.121c0,.168.012.336.023.5a4.561,4.561,0,0,0,.137.7,4.907,4.907,0,0,0,3.262,3.48l.02.008a4.912,4.912,0,0,0,5.98-2.762.021.021,0,0,0,.012-.02,4.773,4.773,0,0,0,.387-1.9A4.861,4.861,0,0,0,58128.094,38842.621Z" transform="translate(-58087.113 -38806.09)" fill="#fcfdfe"/>
    <path id="Path_1990" data-name="Path 1990" d="M59712.4,38242.4h0Z" transform="translate(-59670.266 -38210.914)" fill="#fcfdfe"/>
    <path id="Path_1991" data-name="Path 1991" d="M56207.5,41242.113h4.039l.012-.012h-4.051Z" transform="translate(-56185.625 -41194.297)" fill="#408356"/>
    <path id="Path_1992" data-name="Path 1992" d="M56211.219,40406.047a2.878,2.878,0,0,0-3.742-.273v3.988h4.047a2.816,2.816,0,0,0,.539-1.668A2.871,2.871,0,0,0,56211.219,40406.047Z" transform="translate(-56185.602 -40361.961)" fill="#408356"/>
    <path id="Path_1993" data-name="Path 1993" d="M56211.234,38246.3a2.869,2.869,0,0,0,.844-2.043c0-.1-.008-.191-.016-.285l-.68-1.477h-3.922v4.055h0A2.882,2.882,0,0,0,56211.234,38246.3Z" transform="translate(-56185.586 -38211.008)" fill="#408356"/>
    <path id="Path_1994" data-name="Path 1994" d="M56928.6,38242.5h0l.684,1.473Z" transform="translate(-56902.805 -38211.016)" fill="#408356"/>
    <path id="Path_1995" data-name="Path 1995" d="M56928.629,38242.5h-.082l.684,1.473A2.885,2.885,0,0,0,56928.629,38242.5Z" transform="translate(-56902.75 -38211.016)" fill="#408356"/>
    <path id="Path_1996" data-name="Path 1996" d="M60988.039,38246.148a2.878,2.878,0,0,0,3.773.254v-4.055h-4a2.857,2.857,0,0,0,.227,3.8Z" transform="translate(-60939.316 -38210.867)" fill="#408356"/>
    <path id="Path_1997" data-name="Path 1997" d="M61081.406,41242.113h4.094v-.012h-4.1Z" transform="translate(-61033.004 -41194.297)" fill="#408356"/>
    <path id="Path_1998" data-name="Path 1998" d="M60982.844,40406.281a2.888,2.888,0,0,0-.309,3.715h4.109v-3.945A2.881,2.881,0,0,0,60982.844,40406.281Z" transform="translate(-60934.145 -40362.195)" fill="#408356"/>
    <path id="Path_1999" data-name="Path 1999" d="M57101.9,41242.113h20.836l0-.012h-20.824Z" transform="translate(-57075.156 -41194.297)" fill="#408356"/>
    <path id="Path_2000" data-name="Path 2000" d="M56222.824,38255.5a4.96,4.96,0,0,1-1.473-.223l-.016-.008a4.912,4.912,0,0,1-3.27-3.477,5.09,5.09,0,0,1-.137-.7c-.012-.168-.023-.336-.023-.508a4.912,4.912,0,0,1,9.824,0,5.005,5.005,0,0,1-.383,1.91.033.033,0,0,1-.012.02A4.921,4.921,0,0,1,56222.824,38255.5Zm15.313-7.973v-.207a3.561,3.561,0,0,1-1.734.465,3.607,3.607,0,0,1-2.547-1.055,3.556,3.556,0,0,1-.918-1.578,3.64,3.64,0,0,1-.133-.965,3.444,3.444,0,0,1,.477-1.762h-20.922a3.608,3.608,0,0,1,.48,1.762,3.671,3.671,0,0,1-.145.992,3.552,3.552,0,0,1-.91,1.551,3.6,3.6,0,0,1-2.551,1.055,3.532,3.532,0,0,1-1.727-.465v6.6a3.581,3.581,0,0,1,5.3,3.152,3.432,3.432,0,0,1-.426,1.672h20.82a3.606,3.606,0,0,1-.418-1.672,3.543,3.543,0,0,1,1.051-2.543,3.586,3.586,0,0,1,4.3-.578v-6.41l.027-.008v-.02Z" transform="translate(-56185.633 -38210.945)" fill="#408356"/>
    <path id="Path_2001" data-name="Path 2001" d="M58727.3,40064.359c.039.059.078.121.125.184a2.489,2.489,0,0,0,.914.273c-.031-.078-.055-.16-.094-.246a3.557,3.557,0,0,0-.258-.461,2.194,2.194,0,0,1-.508-.246Z" transform="translate(-58691.719 -40022.469)" fill="#408356"/>
    <path id="Path_2002" data-name="Path 2002" d="M58721.1,40155.512a.969.969,0,0,0,.156.09c-.039-.059-.078-.121-.125-.18Z" transform="translate(-58685.551 -40113.531)" fill="#408356"/>
    <path id="Path_2003" data-name="Path 2003" d="M58735.879,39089.051a1.967,1.967,0,0,0,.262.02v.875h.551v-.914a1.506,1.506,0,0,0,1.387-1.484c0-.781-.457-1.227-1.355-1.6-.766-.32-1.035-.547-1.035-1,0-.355.2-.762.875-.762a2.153,2.153,0,0,1,1.105.3l.215-.578a2.361,2.361,0,0,0-1.137-.3v-.852h-.559v.875a1.432,1.432,0,0,0-1.3,1.41c0,.762.543,1.18,1.441,1.531.648.262.934.559.934,1.043a.871.871,0,0,1-.984.859,2.324,2.324,0,0,1-.75-.133,3.339,3.339,0,0,1,.262.461C58735.824,39088.887,58735.848,39088.969,58735.879,39089.051Z" transform="translate(-58699.258 -39046.703)" fill="#408356"/>
    <path id="Path_2004" data-name="Path 2004" d="M54150.289,39365.4a23.462,23.462,0,0,1,11.836-.664c4.523,1.09,3.438.5,8.664.555.133,0,.273,0,.414,0,5.711.078,5.188,2.273,5.188,2.273.2,2.328-2.383,2.516-2.383,2.516l-9.32.945a3.6,3.6,0,0,0-.8,2.285c.039.207.43.215,1.039.1l6.328,1c-2.008,1.707-4.844,4.109-6.062,4.344a21.894,21.894,0,0,1-5.367-.316c-1.867-.246-4.07-.574-6.453-.891a31.392,31.392,0,0,0-6.945.188v-11.324C54147.953,39365.512,54148.844,39365.906,54150.289,39365.4Z" transform="translate(-54135.762 -39326.66)" fill="#f4d0b1"/>
  </g>
</svg>
