<svg width="256" height="57" viewBox="0 0 256 57" fill="none" xmlns="http://www.w3.org/2000/svg">
<path d="M3.76 45V12.1H14.617C16.826 12.1 18.7687 12.4525 20.445 13.1575C22.1213 13.8625 23.4217 14.9983 24.346 16.565C25.286 18.1317 25.756 20.1997 25.756 22.769C25.756 25.2913 25.286 27.3437 24.346 28.926C23.4217 30.4927 22.1213 31.6442 20.445 32.3805C18.7687 33.1168 16.826 33.485 14.617 33.485H8.46V45H3.76ZM8.46 29.49H13.959C16.356 29.49 18.1498 28.9495 19.3405 27.8685C20.5468 26.7718 21.15 25.0877 21.15 22.816C21.15 20.5287 20.5782 18.8367 19.4345 17.74C18.3065 16.6433 16.4813 16.095 13.959 16.095H8.46V29.49ZM30.6565 45V12.1H41.3255C43.6128 12.1 45.6103 12.4525 47.318 13.1575C49.0257 13.8625 50.3495 14.9513 51.2895 16.424C52.2295 17.8967 52.6995 19.7923 52.6995 22.111C52.6995 24.367 52.206 26.2548 51.219 27.7745C50.2477 29.2942 48.8298 30.4927 46.9655 31.37L54.3445 45H48.8925L42.2185 32.169C42.1715 32.169 42.1323 32.169 42.101 32.169C42.0697 32.169 42.0305 32.169 41.9835 32.169H35.3565V45H30.6565ZM35.3565 28.174H41.2785C43.5188 28.174 45.203 27.6335 46.331 26.5525C47.4747 25.4715 48.0465 23.991 48.0465 22.111C48.0465 20.1997 47.4747 18.7192 46.331 17.6695C45.203 16.6198 43.5188 16.095 41.2785 16.095H35.3565V28.174ZM58.9758 45V12.1H63.4408V45H58.9758ZM69.2218 45L73.6398 12.1H77.4468L86.0948 28.409L94.6488 12.1H98.5028L102.874 45H98.1738L94.8368 18.163L96.0118 18.351L86.1418 37.198L76.0838 18.351L77.2588 18.163L73.9218 45H69.2218ZM108.638 45V12.1H128.707V16.142H113.103V25.777H125.511V29.819H113.103V40.958H129.13V45H108.638ZM154.619 45.658C153.256 45.658 151.893 45.5562 150.53 45.3525C149.167 45.1488 147.906 44.8903 146.746 44.577C145.587 44.248 144.624 43.9033 143.856 43.543L144.467 38.796C145.313 39.2033 146.331 39.6263 147.522 40.065C148.728 40.5037 150.029 40.8718 151.423 41.1695C152.817 41.4672 154.227 41.616 155.653 41.616C157.768 41.616 159.444 41.2322 160.682 40.4645C161.935 39.6812 162.562 38.467 162.562 36.822C162.562 35.5843 162.249 34.5738 161.622 33.7905C160.995 32.9915 160.047 32.31 158.778 31.746C157.525 31.182 155.951 30.618 154.055 30.054C152.253 29.5213 150.593 28.8947 149.073 28.174C147.553 27.4377 146.331 26.4585 145.407 25.2365C144.498 23.9988 144.044 22.3617 144.044 20.325C144.044 18.586 144.49 17.0507 145.383 15.719C146.292 14.3717 147.616 13.322 149.355 12.57C151.11 11.818 153.256 11.442 155.794 11.442C157.956 11.442 159.938 11.677 161.739 12.147C163.557 12.617 165.053 13.134 166.228 13.698L165.758 18.445C163.972 17.3797 162.264 16.6198 160.635 16.1655C159.021 15.7112 157.345 15.484 155.606 15.484C153.679 15.484 152.081 15.8443 150.812 16.565C149.559 17.2857 148.932 18.4607 148.932 20.09C148.932 21.1867 149.214 22.0875 149.778 22.7925C150.342 23.4818 151.18 24.0772 152.292 24.5785C153.405 25.0642 154.791 25.5577 156.452 26.059C158.739 26.7483 160.705 27.5395 162.35 28.4325C163.995 29.3098 165.257 30.3987 166.134 31.699C167.011 32.9837 167.45 34.5817 167.45 36.493C167.45 37.903 167.184 39.172 166.651 40.3C166.118 41.428 165.319 42.3915 164.254 43.1905C163.189 43.9895 161.849 44.6005 160.235 45.0235C158.637 45.4465 156.765 45.658 154.619 45.658ZM172.666 45V12.1H183.523C185.732 12.1 187.675 12.4525 189.351 13.1575C191.028 13.8625 192.328 14.9983 193.252 16.565C194.192 18.1317 194.662 20.1997 194.662 22.769C194.662 25.2913 194.192 27.3437 193.252 28.926C192.328 30.4927 191.028 31.6442 189.351 32.3805C187.675 33.1168 185.732 33.485 183.523 33.485H177.366V45H172.666ZM177.366 29.49H182.865C185.262 29.49 187.056 28.9495 188.247 27.8685C189.453 26.7718 190.056 25.0877 190.056 22.816C190.056 20.5287 189.484 18.8367 188.341 17.74C187.213 16.6433 185.388 16.095 182.865 16.095H177.366V29.49ZM213.898 45.658C210.764 45.658 207.976 44.9608 205.532 43.5665C203.088 42.1565 201.169 40.1747 199.774 37.621C198.38 35.0517 197.683 32.028 197.683 28.55C197.683 25.072 198.38 22.0562 199.774 19.5025C201.169 16.9332 203.088 14.9513 205.532 13.557C207.976 12.147 210.764 11.442 213.898 11.442C217.031 11.442 219.82 12.147 222.264 13.557C224.708 14.9513 226.627 16.9332 228.021 19.5025C229.416 22.0562 230.113 25.072 230.113 28.55C230.113 32.028 229.416 35.0517 228.021 37.621C226.627 40.1747 224.708 42.1565 222.264 43.5665C219.82 44.9608 217.031 45.658 213.898 45.658ZM213.898 41.334C216.42 41.334 218.527 40.77 220.219 39.642C221.911 38.4983 223.18 36.963 224.026 35.036C224.888 33.0933 225.319 30.9313 225.319 28.55C225.319 26.1687 224.888 24.0145 224.026 22.0875C223.18 20.1448 221.911 18.6095 220.219 17.4815C218.527 16.3378 216.42 15.766 213.898 15.766C211.375 15.766 209.268 16.3378 207.576 17.4815C205.884 18.6095 204.607 20.1448 203.746 22.0875C202.9 24.0145 202.477 26.1687 202.477 28.55C202.477 30.9313 202.9 33.0933 203.746 35.036C204.607 36.963 205.884 38.4983 207.576 39.642C209.268 40.77 211.375 41.334 213.898 41.334ZM241.116 45V16.142H231.528V12.1H255.169V16.142H245.581V45H241.116Z" fill="white"/>
</svg>
