<svg xmlns="http://www.w3.org/2000/svg" width="1919.268" height="324.987" viewBox="0 0 1919.268 324.987">
  <path id="Path_1" data-name="Path 1" d="M-2096,973.574c10.176,3.9,21.114,2.225,30.712,4.784,33.329,8.887,61.022,16.046,87.118,29.217,126.719,63.957,170.719,129.851,170.719,129.851s49.968,42.9,71.395,50.042c10.778,3.593,48.166,14.047,88.967,15.87,39.893,1.783,83.132-4.963,105.318-18.274,20.846-12.508,65.112-36.774,112.938-50.227,54.1-15.219,110.977-18.866,110.977-18.866l52.159,5.179,43.466,9.155,50.68,17.386,52.159,29.224,33.293,13.687,19.236,6.659,22.935,5.549,53.312,6.346,47.237-3.13,44.391-8.764,61.842-21.929,60.85-33.43,85.191-71.274,67.254-45.583,108.272-51.47,98.4-25.595,108.2-13.465,63.96,3.847,68.288,9.618v310.933l-1918.984.589Z" transform="translate(2096 -934.514)" fill="#1a60bb" opacity="0.32"/>
</svg>
