<svg width="216" height="251" viewBox="0 0 216 251" fill="none" xmlns="http://www.w3.org/2000/svg">
<g opacity="0.42">
<path d="M166 1.5H50C23.2142 1.5 1.5 23.2142 1.5 50V201C1.5 227.786 23.2142 249.5 50 249.5H166C192.786 249.5 214.5 227.786 214.5 201V50C214.5 23.2142 192.786 1.5 166 1.5Z" stroke="#58FF9C" stroke-width="3"/>
</g>
<g opacity="0.88">
<path fill-rule="evenodd" clip-rule="evenodd" d="M67.7493 184.473H120.063C120.636 184.473 123.154 182.19 123.533 181.801C124.081 181.248 124.459 180.864 125.012 180.322C127.538 177.62 129.745 174.637 131.589 171.431C139.784 156.173 138.504 138.018 127.889 124.552L123.836 119.968C121.936 118.519 120.663 117.03 117.914 115.198C115.614 113.662 109.653 110.32 107.549 110.32H80.0283C78.0523 110.32 71.9873 113.939 69.9763 115.28C69.1573 115.823 68.6453 116.186 67.8423 116.78L65.7323 118.538C63.0113 120.833 60.616 123.488 58.6123 126.431C57.0583 128.686 55.7249 131.086 54.6303 133.597C53.3757 136.352 52.4529 139.247 51.8813 142.221C50.1051 150.774 51.0279 159.668 54.5223 167.675C55.9673 171.043 57.8575 174.201 60.1423 177.067C61.0123 178.173 66.6783 184.473 67.7483 184.473H67.7493Z" fill="url(#paint0_linear_3_67)"/>
<path fill-rule="evenodd" clip-rule="evenodd" d="M123.477 88.7097C123.337 93.2655 124.696 97.7415 127.346 101.45C129.125 103.962 131.428 106.059 134.096 107.594C136.764 109.13 139.734 110.068 142.8 110.344C145.866 110.619 148.955 110.226 151.855 109.191C154.754 108.157 157.394 106.505 159.592 104.35C162.603 101.343 164.653 97.5113 165.486 93.3389C166.318 89.1665 165.894 84.8411 164.267 80.9097C161.245 73.7937 153.773 68.0197 145.542 68.0197C138.924 68.0197 134.087 69.8267 129.562 74.3307C125.758 78.1652 123.579 83.3184 123.476 88.7187L123.477 88.7097Z" fill="url(#paint1_linear_3_67)"/>
<path fill-rule="evenodd" clip-rule="evenodd" d="M82.3053 93.9447V103.726H105.051C105.573 103.726 105.732 103.567 105.732 103.045V94.6307C105.732 93.6067 105.302 92.3577 104.365 92.3577H83.8923C83.6761 92.327 83.4557 92.347 83.2485 92.4162C83.0414 92.4853 82.8531 92.6017 82.6987 92.7561C82.5443 92.9106 82.4279 93.0988 82.3588 93.306C82.2896 93.5131 82.2696 93.7335 82.3003 93.9497L82.3053 93.9447Z" fill="url(#paint2_linear_3_67)"/>
<path fill-rule="evenodd" clip-rule="evenodd" d="M87.0863 69.1507V85.7507H100.286C100.808 85.7507 100.967 85.5917 100.967 85.0697V69.6067C100.998 69.39 100.978 69.1691 100.909 68.9615C100.839 68.7539 100.722 68.5654 100.567 68.4108C100.412 68.2563 100.224 68.14 100.016 68.0713C99.8079 68.0025 99.5869 67.9832 99.3703 68.0147H88.2223C87.9323 68.0475 87.662 68.1777 87.4557 68.3841C87.2493 68.5905 87.1191 68.8607 87.0863 69.1507V69.1507Z" fill="url(#paint3_linear_3_67)"/>
<path fill-rule="evenodd" clip-rule="evenodd" d="M107.554 83.0267C107.554 84.1427 109.878 83.7077 112.104 83.7077H117.335C117.538 82.4787 117.853 81.271 118.277 80.0997C118.781 78.9748 119.227 77.825 119.613 76.6547H107.559V83.0217L107.554 83.0267Z" fill="url(#paint4_linear_3_67)"/>
<path fill-rule="evenodd" clip-rule="evenodd" d="M72.2993 80.2987C72.4281 81.2768 72.893 82.1797 73.6143 82.8527C75.1033 84.0147 78.1283 83.7127 80.2583 83.7127V76.6597C77.2383 76.6597 72.2993 75.8817 72.2993 80.2987Z" fill="url(#paint5_linear_3_67)"/>
</g>
<defs>
<linearGradient id="paint0_linear_3_67" x1="93.9583" y1="67.7559" x2="93.9583" y2="184.473" gradientUnits="userSpaceOnUse">
<stop stop-color="#249752"/>
<stop offset="1" stop-color="#A8FFCB"/>
</linearGradient>
<linearGradient id="paint1_linear_3_67" x1="144.684" y1="43.6767" x2="144.684" y2="110.429" gradientUnits="userSpaceOnUse">
<stop stop-color="#249752"/>
<stop offset="1" stop-color="#A8FFCB"/>
</linearGradient>
<linearGradient id="paint2_linear_3_67" x1="94.0093" y1="85.8105" x2="94.0093" y2="103.726" gradientUnits="userSpaceOnUse">
<stop stop-color="#249752"/>
<stop offset="1" stop-color="#A8FFCB"/>
</linearGradient>
<linearGradient id="paint3_linear_3_67" x1="94.0338" y1="57.8111" x2="94.0338" y2="85.7507" gradientUnits="userSpaceOnUse">
<stop stop-color="#249752"/>
<stop offset="1" stop-color="#A8FFCB"/>
</linearGradient>
<linearGradient id="paint4_linear_3_67" x1="113.584" y1="72.5584" x2="113.584" y2="83.7912" gradientUnits="userSpaceOnUse">
<stop stop-color="#249752"/>
<stop offset="1" stop-color="#A8FFCB"/>
</linearGradient>
<linearGradient id="paint5_linear_3_67" x1="76.2788" y1="72.5079" x2="76.2788" y2="83.7481" gradientUnits="userSpaceOnUse">
<stop stop-color="#249752"/>
<stop offset="1" stop-color="#A8FFCB"/>
</linearGradient>
</defs>
</svg>
