<svg width="217" height="252" viewBox="0 0 217 252" fill="none" xmlns="http://www.w3.org/2000/svg">
<path d="M166.5 2H50.5C23.7142 2 2 23.7142 2 50.5V201.5C2 228.286 23.7142 250 50.5 250H166.5C193.286 250 215 228.286 215 201.5V50.5C215 23.7142 193.286 2 166.5 2Z" stroke="#FF4040" stroke-width="3"/>
<path fill-rule="evenodd" clip-rule="evenodd" d="M98.643 61.0705C102.95 61.0705 101.678 57.3615 102.924 54.7915C105.956 48.5355 115.78 50.3285 115.78 57.6855C115.78 62.3415 112.147 63.2575 110.169 64.6255C106.341 67.2715 105.619 70.0125 105.619 74.8195C105.745 76.4155 106.25 77.9584 107.093 79.3195C108.311 81.0647 109.813 82.593 111.537 83.8405L125.68 96.5955C128.38 98.8535 130.786 101.483 133.539 103.679C134.128 104.15 134.484 104.663 135.073 105.133C136.797 106.508 139.992 109.739 141.364 110.798L146.116 115.013C146.954 115.822 153.007 121.031 153.107 121.513C153.128 121.608 153.125 121.706 153.1 121.8C153.075 121.894 153.027 121.98 152.962 122.051C152.896 122.123 152.815 122.178 152.724 122.211C152.633 122.244 152.535 122.256 152.439 122.243H65.571C64.871 122.243 64.741 121.637 65.094 121.194C66.02 120.037 70.021 116.855 71.402 115.522C73.244 113.742 75.985 111.557 77.578 109.942C77.9624 109.528 78.3839 109.149 78.837 108.81C79.2711 108.45 79.6807 108.061 80.063 107.645L88.799 99.8455C90.164 98.7905 91.223 97.4935 92.528 96.4015L96.201 93.1015C97.0841 92.3969 97.914 91.6282 98.684 90.8015C100.34 88.6445 99.005 85.3845 95.458 85.3845C94.227 85.3845 92.308 87.2625 91.419 88.1205C91.037 88.5359 90.6274 88.9251 90.193 89.2855L78.152 100.152C77.207 100.906 76.652 101.53 75.702 102.284C75.3127 102.625 74.9415 102.985 74.59 103.364L61.234 115.309C59.344 117.18 58 118.758 58 122.038C58 126.83 62.344 129.211 66.767 129.211H151.245C156.57 129.211 159.555 126.039 160.012 122.559V120.659C159.836 119.326 159.296 118.066 158.452 117.019C156.61 114.719 145.961 105.93 142.929 102.855C142.329 102.242 141.922 102.055 141.329 101.466L114.738 77.4555C113.677 76.3995 112.393 75.6185 112.393 73.8235C112.393 70.3555 114.764 70.4375 117.693 68.1635C126.315 61.4655 122.98 47.4825 112.908 44.6185C111.37 44.0988 109.741 43.9034 108.124 44.0445C103.617 44.7245 100.18 46.2705 97.647 50.1095C96.214 52.2785 94.76 55.9495 95.498 58.6315C95.6756 59.3311 96.0819 59.9513 96.6525 60.3935C97.2231 60.8356 97.9252 61.0742 98.647 61.0715L98.643 61.0705Z" fill="#888888"/>
</svg>
