<svg width="216" height="251" viewBox="0 0 216 251" fill="none" xmlns="http://www.w3.org/2000/svg">
<g opacity="0.42">
<path d="M166 1.5H50C23.2142 1.5 1.5 23.2142 1.5 50V201C1.5 227.786 23.2142 249.5 50 249.5H166C192.786 249.5 214.5 227.786 214.5 201V50C214.5 23.2142 192.786 1.5 166 1.5Z" stroke="#FFB0FA" stroke-width="3"/>
</g>
<g opacity="0.88">
<path fill-rule="evenodd" clip-rule="evenodd" d="M155.758 130.873C154.772 131.425 153.703 131.814 152.593 132.023C152.336 131.063 150.988 129.629 150.334 128.817C148.495 126.855 146.334 125.222 143.945 123.988C141.682 122.802 142.71 121.066 143.607 120.728C145.199 120.128 149.378 123.505 150.618 124.502C151.925 125.557 155.311 129.227 155.753 130.873H155.758ZM42.154 112.753C40.815 118.492 48.529 124.994 52.88 127.622C67.28 136.315 86.956 140.075 103.696 140.075C119.408 140.075 128.896 139.775 144.062 135.291C144.946 135.029 145.401 134.827 146.222 134.574L152.872 132.311C153.084 133.111 154.049 134.674 154.518 135.841C155.038 137.218 155.449 138.634 155.749 140.075L145.51 146.806C144.667 147.365 142.521 148.528 142.521 149.565V182.64C142.619 184.133 143.257 185.54 144.315 186.599C145.374 187.657 146.781 188.295 148.274 188.393H167.832C169.325 188.295 170.732 187.657 171.791 186.599C172.849 185.54 173.487 184.133 173.585 182.64V149.565C173.585 148.082 160.059 139.696 159.207 139.497C159.693 143.889 159.886 148.308 159.784 152.725C160.764 153.076 161.579 153.776 162.074 154.691C162.569 155.606 162.709 156.672 162.467 157.684C162.244 158.693 161.688 159.598 160.888 160.252C160.088 160.906 159.091 161.272 158.058 161.291C152.941 161.291 151.958 153.891 156.331 152.725L156.34 142.937C156.295 141.472 156.04 141.359 156.04 139.781C157.94 139.281 155.981 138.938 159.205 139.204C159.133 135.953 156.468 132.252 156.329 130.575C160.905 129.511 173.011 120.275 173.011 114.182C173.002 113.689 172.904 113.202 172.722 112.744C172.263 112.564 171.777 112.466 171.284 112.455H43.593C43.1015 112.475 42.6162 112.573 42.155 112.744L42.154 112.753Z" fill="url(#paint0_linear_3_66)"/>
<path fill-rule="evenodd" clip-rule="evenodd" d="M43.592 162.798V169.122C43.592 176.611 50.774 183.788 58.258 183.788C63.145 183.788 65.548 183.36 69.758 181.488C74.9332 178.913 79.1093 174.695 81.634 169.495C83.0549 166.398 83.8092 163.037 83.848 159.63H89.602C89.602 172.538 100.959 183.787 113.187 183.787H115.202C122.691 183.787 129.868 176.605 129.868 169.121V162.795C129.868 155.295 122.708 148.129 115.202 148.129H99.386C95.811 148.129 92.023 151.249 90.409 154.969C89.692 156.619 90.58 156.182 84.142 156.182C83.29 156.182 83.442 155.835 83.137 155.177C82.5895 153.583 81.6222 152.167 80.337 151.077C79.6083 150.228 78.6783 149.574 77.632 149.177C76.5324 148.586 75.323 148.229 74.079 148.126H58.262C50.773 148.126 43.596 155.308 43.596 162.792L43.592 162.798Z" fill="url(#paint1_linear_3_66)"/>
<path fill-rule="evenodd" clip-rule="evenodd" d="M71.203 98.086H143.678C143.678 79.33 126.51 63 109.165 63C102.379 63 97.731 63.509 91.906 66.449C80.391 72.261 71.198 83.8 71.198 98.086H71.203Z" fill="url(#paint2_linear_3_66)"/>
<path fill-rule="evenodd" clip-rule="evenodd" d="M66.6 102.978V109.02H148.278C148.278 105.787 148.972 101.545 146.84 101.545H68.04C67.6728 101.586 67.3305 101.751 67.0692 102.012C66.808 102.274 66.6432 102.616 66.602 102.983L66.6 102.978Z" fill="url(#paint3_linear_3_66)"/>
</g>
<defs>
<linearGradient id="paint0_linear_3_66" x1="107.793" y1="112.455" x2="107.793" y2="188.393" gradientUnits="userSpaceOnUse">
<stop stop-color="#FFB0FA"/>
<stop offset="1" stop-color="#CF78C9"/>
</linearGradient>
<linearGradient id="paint1_linear_3_66" x1="86.73" y1="148.126" x2="86.73" y2="183.788" gradientUnits="userSpaceOnUse">
<stop stop-color="#FFB0FA"/>
<stop offset="1" stop-color="#CF78C9"/>
</linearGradient>
<linearGradient id="paint2_linear_3_66" x1="107.438" y1="63" x2="107.438" y2="98.086" gradientUnits="userSpaceOnUse">
<stop stop-color="#FFB0FA"/>
<stop offset="1" stop-color="#CF78C9"/>
</linearGradient>
<linearGradient id="paint3_linear_3_66" x1="107.493" y1="101.545" x2="107.493" y2="109.02" gradientUnits="userSpaceOnUse">
<stop stop-color="#FFB0FA"/>
<stop offset="1" stop-color="#CF78C9"/>
</linearGradient>
</defs>
</svg>
