<svg width="217" height="252" viewBox="0 0 217 252" fill="none" xmlns="http://www.w3.org/2000/svg">
<path d="M166.5 2H50.5C23.7142 2 2 23.7142 2 50.5V201.5C2 228.286 23.7142 250 50.5 250H166.5C193.286 250 215 228.286 215 201.5V50.5C215 23.7142 193.286 2 166.5 2Z" stroke="#B9D8FF" stroke-width="3"/>
<path fill-rule="evenodd" clip-rule="evenodd" d="M119.962 87.911C119.962 84.132 120.27 80.902 123.614 77.845C125.89 75.8349 128.792 74.6755 131.826 74.564H159.257C166.641 74.564 171.857 79.546 171.857 87.539L170.105 100.239C165.654 123.72 137.779 126.32 127.072 110.453C124.539 106.7 124.155 104.808 122.772 99.927C122.02 97.276 119.964 90.527 119.964 87.911H119.962ZM72.147 120.531C68.3511 120.578 64.5995 119.712 61.208 118.007C57.8164 116.301 54.8842 113.806 52.658 110.731C48.798 105.39 48.309 100.869 47.375 94.147C46.822 90.17 46.575 90.394 46.575 86.053C46.575 79.547 52.503 74.56 59.175 74.56H86.607C89.3239 74.6245 91.9438 75.5827 94.0612 77.2863C96.1785 78.9899 97.6754 81.3439 98.32 83.984C99.304 88.7 96.669 95.823 95.356 101.1C94.7865 103.742 93.8334 106.287 92.527 108.653C90.4188 112.2 87.4418 115.151 83.8768 117.229C80.3118 119.306 76.2763 120.441 72.151 120.527L72.147 120.531ZM99.206 74.565H119.22C118.158 75.8824 117.204 77.2829 116.366 78.753C115.398 80.4116 114.849 82.2813 114.766 84.2C112.655 84.154 112.689 83.457 108.466 83.457C106.266 83.457 105.675 84.157 103.649 84.2C103.649 80.024 100.862 77.039 99.199 74.561L99.206 74.565ZM41.008 86.42C41.008 89 42.621 99.399 43.128 102.093C44.1941 107.796 46.9348 113.052 51.0005 117.19C55.0661 121.329 60.2724 124.162 65.9553 125.33C71.6381 126.497 77.5399 125.945 82.9077 123.744C88.2756 121.544 92.8662 117.794 96.094 112.973C104.847 99.838 99.535 89.02 108.098 89.02C110.572 89.02 113.646 88.868 114.82 91.194L117.151 99.984C118.646 105.245 119.085 108.09 122.18 112.747C125.728 118.225 131.039 122.33 137.235 124.382C153.524 130.069 171.751 119.482 175.167 102.71L177.413 86.793C177.391 84.2867 176.842 81.813 175.802 79.5327C174.762 77.2524 173.253 75.2164 171.375 73.557C167.528 70.3 163.243 69 156.285 69H62.132C55.191 69 51.138 70.233 47.245 73.391C45.3573 75.0108 43.8273 77.0057 42.7522 79.2487C41.6771 81.4917 41.0804 83.9339 41 86.42H41.008Z" fill="#888888"/>
</svg>
