<svg width="217" height="252" viewBox="0 0 217 252" fill="none" xmlns="http://www.w3.org/2000/svg">
<path d="M166.5 2H50.5C23.7142 2 2 23.7142 2 50.5V201.5C2 228.286 23.7142 250 50.5 250H166.5C193.286 250 215 228.286 215 201.5V50.5C215 23.7142 193.286 2 166.5 2Z" stroke="#FFB0FA" stroke-width="3"/>
<path fill-rule="evenodd" clip-rule="evenodd" d="M80.964 80.759H86.619C86.748 82.298 89.664 92.284 89.664 93.591C89.664 94.454 87.364 97.501 87.054 98.811H80.529C79.846 97.52 79.17 96.358 78.429 95.041C77.391 93.201 77.713 93.551 78.487 90.46L80.964 80.759ZM107.166 34H109.75C113.987 34.3018 118.088 35.6207 121.706 37.845C131.678 43.745 136.224 57.225 137.634 68.675C137.947 71.212 137.034 70.539 146.21 70.539C148.82 70.539 153.387 69.601 153.387 73.584V142.309C153.416 143.074 153.152 143.821 152.648 144.397C152.17 144.944 151.5 145.286 150.777 145.353H66.61C65.9326 145.308 65.2945 145.019 64.8144 144.539C64.3342 144.059 64.0448 143.421 64 142.744V124.692C64 122.938 67.262 122.936 67.262 124.692V142.092H150.125V73.8H138.163C138.163 79.567 137.963 76.786 139.225 78.611C139.906 79.593 142.211 89.776 142.558 91.153C142.843 92.285 143.37 93.588 142.874 94.811C142.644 95.3574 142.364 95.8813 142.037 96.376C140.316 99.199 139.637 102.29 136.859 102.29C128.51 102.29 129.13 103.048 126.679 98.99C126.2 98.197 125.779 97.383 125.344 96.628C125.117 96.237 124.956 95.917 124.713 95.519C124.402 95.1695 124.234 94.7149 124.245 94.247C124.245 91.679 126.509 83.941 127.245 80.936C127.355 80.2454 127.562 79.5738 127.86 78.941C128.239 78.272 128.812 78.085 128.812 77.5C128.812 73.054 129.268 73.8 125.767 73.8H107.279C104.879 73.8 101.842 74.422 101.842 72.06C101.842 71.445 102.532 70.538 103.142 70.538H128.375C128.263 65.538 125.482 56.787 122.898 52.526C117.29 43.275 107.138 40 99.514 46.46C97.3688 48.1822 95.5746 50.3006 94.229 52.7C93.5019 53.9729 92.8576 55.2913 92.3 56.647C90.953 60.005 89.087 66.958 89.007 70.536C91.307 70.536 95.097 69.968 95.097 71.836C95.097 74.5 92.948 73.793 88.572 73.793C88.572 76.723 88.062 77.259 88.827 78.093C90.127 79.506 90.31 81.832 90.965 84.449C91.365 86.035 91.723 87.48 92.139 89.149C93.187 93.337 93.832 93.595 92.01 96.588C90.258 99.469 89.669 102.288 86.832 102.288C77.693 102.288 79.171 102.938 76.652 98.766C73.42 93.413 74.021 94.374 75.218 89.587C75.597 88.076 75.885 86.923 76.263 85.413C76.918 82.796 77.535 78.163 79.221 77.713V73.8H67.262V115.34C67.262 117.073 64 117.073 64 115.34V73.149C64 69.781 68.67 70.539 70.525 70.539H79.442L80.542 63.376C81.014 61.108 81.542 59.164 82.188 56.976C85.978 44.1 95.649 34.648 107.164 34H107.166ZM130.766 80.759H136.421L139.439 92.77C139.839 94.346 138.323 96.035 136.857 98.808H130.333C129.814 96.577 127.333 94.725 127.749 92.989C127.929 92.245 128.177 91.343 128.376 90.545C128.785 88.906 129.164 87.393 129.594 85.674C130.087 84.0613 130.479 82.4194 130.768 80.758L130.766 80.759ZM85.1 77.279H82.49C82.49 71.245 83.982 61.472 86.061 56.056C87.1472 53.1655 88.5338 50.397 90.198 47.796C100.387 32.412 125.029 31.827 132.728 60.747C134.148 66.1385 134.806 71.7021 134.683 77.276H132.29C132.179 72.6985 131.639 68.1415 130.676 63.665C130.057 60.6525 129.14 57.7093 127.937 54.879C124.454 47.113 117.992 39.652 108.584 39.652C102.19 39.652 97.221 43.368 93.643 47.545C90.109 51.67 87.888 58.151 86.711 63.45C85.7043 67.9927 85.1645 72.6265 85.1 77.279V77.279Z" fill="#888888"/>
<path fill-rule="evenodd" clip-rule="evenodd" d="M104.016 80.758C104.016 83.249 107.54 82.498 111.628 82.498C111.847 82.5057 112.065 82.4691 112.27 82.3906C112.474 82.3121 112.661 82.1932 112.819 82.041C112.976 81.8888 113.102 81.7064 113.187 81.5047C113.273 81.303 113.317 81.0861 113.317 80.867C113.317 80.6479 113.273 80.431 113.187 80.2293C113.102 80.0276 112.976 79.8452 112.819 79.693C112.661 79.5408 112.474 79.4219 112.27 79.3433C112.065 79.2648 111.847 79.2283 111.628 79.236H105.321C104.706 79.236 104.016 80.143 104.016 80.758Z" fill="#888888"/>
</svg>
