<svg width="216" height="251" viewBox="0 0 216 251" fill="none" xmlns="http://www.w3.org/2000/svg">
<g opacity="0.88">
<path fill-rule="evenodd" clip-rule="evenodd" d="M104.952 99.47C106.175 98.821 114.97 94.311 115.49 94.311C116.01 94.311 124.802 98.824 126.028 99.47C124.754 102.122 126.021 101.946 122.377 105.4C117.622 109.9 109.805 108.348 106.337 102.877C105.206 101.097 105.517 100.649 104.952 99.47ZM104.711 75.045V75.765H111.894C112.261 74.193 112.651 73.089 114.146 72.505C114.818 72.2365 115.557 72.1805 116.262 72.3445C116.967 72.5084 117.606 72.8845 118.091 73.4222C118.576 73.9598 118.884 74.6331 118.975 75.3514C119.066 76.0698 118.934 76.7987 118.598 77.44C117.358 79.76 114.57 79.359 111.898 79.359V87.982C110.825 88.233 103.69 91.949 101.761 92.934C99.808 93.934 100.046 93.734 97.292 93.734C88.792 93.724 83.443 93.17 76.219 98.285C70.9706 102.029 67.3145 107.602 65.971 113.907L64.477 122.707H79.562V115.527H86.745V151.689H105.186C114.729 151.689 120.38 159.008 118.736 166.917C118.436 168.118 117.986 169.276 117.395 170.364C116.695 171.573 115.812 172.398 115.245 173.244C117.038 175.924 119.667 178.253 118.882 183.585C118.502 186.18 117.958 186.658 117.877 187.613H144.217V115.531H151.4V122.714H166.727C166.622 121.444 166.227 119.714 166.007 118.404C165.759 116.904 165.555 115.436 165.233 113.911C164.424 110.188 162.799 106.692 160.477 103.672C158.154 100.653 155.191 98.1853 151.801 96.448C141.901 91.463 133.578 95.205 129.523 93.103C127.623 92.115 120.106 88.233 119.07 87.992V86.076C123.787 83.576 126.253 81.165 126.253 75.059C126.255 70.05 121.209 65 116.196 65H114.759C109.75 65 104.7 70.047 104.7 75.059L104.711 75.045Z" fill="url(#paint0_linear_7_13)"/>
<path fill-rule="evenodd" clip-rule="evenodd" d="M47 181.853C47 185.259 49.2 187.599 52.03 187.599H106.87C113.496 187.599 113.496 176.823 106.87 176.823H52.03C50.7147 176.881 49.469 177.43 48.5381 178.361C47.6071 179.292 47.0584 180.538 47 181.853V181.853Z" fill="url(#paint1_linear_7_13)"/>
<path fill-rule="evenodd" clip-rule="evenodd" d="M47 163.891C47 167.297 49.2 169.637 52.03 169.637H106.87C113.496 169.637 113.496 158.861 106.87 158.861H52.03C50.7147 158.919 49.469 159.468 48.5381 160.399C47.6071 161.33 47.0584 162.576 47 163.891V163.891Z" fill="url(#paint2_linear_7_13)"/>
<path fill-rule="evenodd" clip-rule="evenodd" d="M151.41 144.255H169.61C169.61 141.664 167.983 132.094 167.932 129.886H151.41V144.255Z" fill="url(#paint3_linear_7_13)"/>
<path fill-rule="evenodd" clip-rule="evenodd" d="M61.607 144.255H79.569V129.886H63.285C63.237 132.026 61.607 141.769 61.607 144.255Z" fill="url(#paint4_linear_7_13)"/>
</g>
<g opacity="0.42">
<path d="M166 1.5H50C23.2142 1.5 1.5 23.2142 1.5 50V201C1.5 227.786 23.2142 249.5 50 249.5H166C192.786 249.5 214.5 227.786 214.5 201V50C214.5 23.2142 192.786 1.5 166 1.5Z" stroke="#FF4040" stroke-width="3"/>
</g>
<defs>
<linearGradient id="paint0_linear_7_13" x1="115.602" y1="65" x2="115.602" y2="187.613" gradientUnits="userSpaceOnUse">
<stop stop-color="#FF6F6F"/>
<stop offset="1" stop-color="#F52020"/>
</linearGradient>
<linearGradient id="paint1_linear_7_13" x1="79.4198" y1="176.823" x2="79.4198" y2="187.599" gradientUnits="userSpaceOnUse">
<stop stop-color="#FF6F6F"/>
<stop offset="1" stop-color="#F52020"/>
</linearGradient>
<linearGradient id="paint2_linear_7_13" x1="79.4198" y1="158.861" x2="79.4198" y2="169.637" gradientUnits="userSpaceOnUse">
<stop stop-color="#FF6F6F"/>
<stop offset="1" stop-color="#F52020"/>
</linearGradient>
<linearGradient id="paint3_linear_7_13" x1="160.51" y1="129.886" x2="160.51" y2="144.255" gradientUnits="userSpaceOnUse">
<stop stop-color="#FF6F6F"/>
<stop offset="1" stop-color="#F52020"/>
</linearGradient>
<linearGradient id="paint4_linear_7_13" x1="70.588" y1="129.886" x2="70.588" y2="144.255" gradientUnits="userSpaceOnUse">
<stop stop-color="#FF6F6F"/>
<stop offset="1" stop-color="#F52020"/>
</linearGradient>
</defs>
</svg>
