<svg width="217" height="252" viewBox="0 0 217 252" fill="none" xmlns="http://www.w3.org/2000/svg">
<path fill-rule="evenodd" clip-rule="evenodd" d="M99.3391 58.451H118.369V67.512H99.3391V58.451ZM80.9901 32.853V54.601C80.9901 56.501 82.6461 58.452 84.3901 58.452H95.7151V67.513H80.7641C78.3702 67.5568 76.0184 68.1501 73.8901 69.247C70.9128 70.7082 68.4065 72.9774 66.6577 75.7954C64.9088 78.6134 63.9879 81.8665 64.0001 85.183V127.319C64.0001 137.065 72.1221 144.992 80.7641 144.992H116.33C116.57 144.998 116.808 144.956 117.031 144.867C117.253 144.778 117.456 144.645 117.625 144.475C117.795 144.306 117.928 144.103 118.017 143.881C118.106 143.658 118.148 143.42 118.142 143.18C118.142 140.875 113.855 141.594 111.572 141.594H87.1071C80.7381 141.594 77.2621 141.713 73.4791 138.912C70.2871 136.548 67.6261 132.637 67.6261 128.228V84.276C67.7418 81.665 68.5932 79.1399 70.0821 76.992C73.2301 72.435 77.6821 70.903 83.4821 70.91H122.448C123.988 70.91 126.109 71.23 126.808 70.274C127.01 70.0171 127.134 69.7076 127.166 69.3822C127.197 69.0568 127.135 68.7292 126.985 68.4384C126.836 68.1476 126.606 67.9058 126.323 67.7418C126.041 67.5777 125.717 67.4983 125.39 67.513H121.99V58.451H133.321C135.076 58.451 136.721 56.672 136.721 54.151V33.306C136.721 30.781 135.077 29.006 133.321 29.006H98.4341C97.9833 29.006 97.5508 29.1851 97.232 29.5039C96.9132 29.8227 96.7341 30.2551 96.7341 30.706C96.7341 31.1569 96.9132 31.5893 97.232 31.9081C97.5508 32.2269 97.9833 32.406 98.4341 32.406H133.095V55.054H84.6161V32.4H90.2791C90.73 32.4 91.1624 32.2209 91.4812 31.9021C91.8 31.5833 91.9791 31.1509 91.9791 30.7C91.9791 30.2491 91.8 29.8167 91.4812 29.4979C91.1624 29.1791 90.73 29 90.2791 29H84.3901C82.6471 29.002 80.9901 30.951 80.9901 32.853Z" fill="#888888"/>
<path fill-rule="evenodd" clip-rule="evenodd" d="M79.4041 91.303V107.614C79.3591 108.037 79.4666 108.463 79.7072 108.814C79.9479 109.165 80.3059 109.418 80.7169 109.529C81.1279 109.639 81.5648 109.6 81.9491 109.417C82.3334 109.234 82.6398 108.92 82.8131 108.531C83.2751 107.598 83.0551 94.725 83.0241 92.431C83.0101 91.384 82.7241 90.17 83.7081 90.17H134C134.522 90.17 134.68 90.328 134.68 90.85V122.112C134.68 122.634 134.522 122.792 134 122.792H83.7081C81.6461 122.792 84.8821 113.957 81.2161 113.957C78.6871 113.957 79.4041 118.733 79.4041 121.657C79.3521 122.295 79.4395 122.936 79.6601 123.537C79.8808 124.138 80.2295 124.684 80.6821 125.136C81.1346 125.589 81.6802 125.937 82.2809 126.158C82.8817 126.379 83.5232 126.466 84.1611 126.414H133.546C134.184 126.466 134.826 126.379 135.426 126.158C136.027 125.937 136.573 125.589 137.025 125.136C137.478 124.684 137.826 124.138 138.047 123.537C138.268 122.936 138.355 122.295 138.303 121.657V91.303C138.355 90.6651 138.268 90.0236 138.047 89.4228C137.826 88.8221 137.478 88.2765 137.025 87.8239C136.573 87.3714 136.027 87.0227 135.426 86.802C134.826 86.5813 134.184 86.494 133.546 86.546H84.1621C83.5242 86.494 82.8827 86.5813 82.2819 86.802C81.6812 87.0227 81.1356 87.3714 80.6831 87.8239C80.2305 88.2765 79.8818 88.8221 79.6612 89.4228C79.4405 90.0236 79.3531 90.6651 79.4051 91.303H79.4041Z" fill="#888888"/>
<path fill-rule="evenodd" clip-rule="evenodd" d="M131.736 69.098C131.736 73.429 141.772 67.315 148.148 77.831C149.334 79.7783 150.001 81.9967 150.086 84.275V128.223C150.086 133.672 146.093 138.593 141.16 140.592C137.817 141.947 130.774 141.601 126.299 141.592C124.464 141.587 122.448 141.392 122.448 143.178C122.432 143.42 122.467 143.663 122.552 143.891C122.638 144.118 122.77 144.324 122.942 144.496C123.114 144.668 123.32 144.801 123.548 144.886C123.775 144.971 124.018 145.007 124.26 144.99H136.946C146.018 144.99 153.71 136.935 153.71 126.867V85.635C153.807 82.271 152.943 78.949 151.218 76.0594C149.492 73.1698 146.979 70.8325 143.971 69.322C139.955 67.311 137.935 67.513 133.548 67.513C133.099 67.4883 132.658 67.6404 132.319 67.9365C131.981 68.2327 131.771 68.6495 131.736 69.098V69.098Z" fill="#888888"/>
<path fill-rule="evenodd" clip-rule="evenodd" d="M90.7311 100.813C90.7996 101.308 91.0426 101.763 91.4164 102.095C91.7901 102.427 92.2702 102.615 92.7701 102.625H124.938C125.189 102.646 125.442 102.615 125.68 102.534C125.918 102.452 126.137 102.322 126.322 102.152C126.508 101.982 126.656 101.775 126.757 101.544C126.858 101.313 126.911 101.064 126.911 100.812C126.911 100.561 126.858 100.312 126.757 100.081C126.656 99.8504 126.508 99.6434 126.322 99.473C126.137 99.3026 125.918 99.1726 125.68 99.0912C125.442 99.0098 125.189 98.9787 124.938 99H92.7691C92.2692 99.0101 91.7893 99.1982 91.4157 99.5305C91.0421 99.8629 90.7993 100.318 90.7311 100.813Z" fill="#888888"/>
<path fill-rule="evenodd" clip-rule="evenodd" d="M97.5271 112.14C97.5956 112.635 97.8386 113.09 98.2124 113.422C98.5861 113.754 99.0662 113.942 99.5661 113.952H118.137C118.388 113.973 118.641 113.942 118.879 113.861C119.117 113.779 119.336 113.649 119.521 113.479C119.707 113.309 119.855 113.102 119.956 112.871C120.057 112.64 120.11 112.391 120.11 112.14C120.11 111.888 120.057 111.639 119.956 111.408C119.855 111.178 119.707 110.97 119.521 110.8C119.336 110.63 119.117 110.5 118.879 110.418C118.641 110.337 118.388 110.306 118.137 110.327H99.5661C99.066 110.337 98.5859 110.525 98.2121 110.857C97.8383 111.19 97.5954 111.645 97.5271 112.14V112.14Z" fill="#888888"/>
<path d="M166.5 2H50.5C23.7142 2 2 23.7142 2 50.5V201.5C2 228.286 23.7142 250 50.5 250H166.5C193.286 250 215 228.286 215 201.5V50.5C215 23.7142 193.286 2 166.5 2Z" stroke="#58FF9C" stroke-width="3"/>
</svg>
