<svg width="217" height="252" viewBox="0 0 217 252" fill="none" xmlns="http://www.w3.org/2000/svg">
<path fill-rule="evenodd" clip-rule="evenodd" d="M112.931 115.561C108.831 115.561 112.361 109.927 114.083 105.593C114.628 104.22 117.219 98.334 117.292 97.463H121.435C120.939 99.0802 120.335 100.663 119.628 102.2L114.809 113.947C114.44 114.86 114.109 115.561 112.931 115.561ZM128.848 97.461H132.772C133.026 98.552 136.499 113.261 136.395 113.961C136.147 115.631 134.835 115.554 134.08 115.554C132.371 115.554 131.604 109.417 131.025 107.054L128.847 97.454L128.848 97.461ZM107.481 113.6C107.464 114.851 107.886 116.068 108.673 117.04C109.461 118.011 110.565 118.676 111.792 118.918C113.02 119.159 114.293 118.962 115.39 118.362C116.487 117.761 117.339 116.794 117.796 115.63L125.096 97.853C125.161 97.7088 125.252 97.5777 125.363 97.466C125.609 98.549 129.147 114.79 129.709 116C130.233 117.115 131.131 118.012 132.246 118.535C133.362 119.058 134.626 119.174 135.818 118.863C137.01 118.552 138.056 117.833 138.774 116.832C139.492 115.831 139.837 114.61 139.749 113.381C139.624 112.021 139.361 110.676 138.964 109.369L136.264 97.469H150.869V128.208C150.869 129.591 149.623 130.171 148.253 130.171H106.609C103.241 130.171 103.775 128.556 103.775 126.247H145.2C145.436 126.272 145.674 126.244 145.897 126.165C146.12 126.086 146.323 125.958 146.49 125.79C146.658 125.623 146.785 125.42 146.864 125.197C146.943 124.973 146.971 124.735 146.945 124.5C146.945 122.677 145.082 122.743 143.24 122.755H104.646C105.182 121.743 105.895 120.998 106.366 119.896C107.012 118.426 107.323 116.83 107.278 115.225C107.232 113.62 106.832 112.045 106.105 110.613C105.78 110.011 105.409 109.434 104.995 108.888C104.627 108.403 103.774 107.868 103.774 107.274V97.466H113.804C112.881 99.21 107.481 112.366 107.481 113.601V113.6ZM86.7675 100.3C86.7675 102.7 89.2175 102.92 90.1365 100.618C91.1365 98.11 90.9645 97.637 93.5305 98.109C97.5965 98.857 99.6305 101.686 99.6305 105.969C99.6305 106.703 98.6395 106.869 97.5095 107.337C96.5535 107.737 95.4875 107.944 95.4875 109.237C95.4875 112.609 99.8875 109.917 100.938 109.673C105.538 112.751 103.911 119.585 101.288 121.173C100.522 121.636 100.178 121.173 99.3885 120.829C98.5994 120.38 97.7072 120.144 96.7995 120.144C95.7265 120.144 93.3885 123.05 99.6335 124.505C99.6335 130.396 96.9955 133.005 91.1335 133.005C90.8205 131.664 89.9615 128.862 88.2995 128.862C87.0275 128.862 86.7735 129.871 86.7735 130.825C86.7735 132.296 88.5675 133.607 87.7095 134.793C85.7205 137.547 79.2465 138.704 76.3095 134.313C76.6525 132.84 79.3205 128.862 75.6545 128.862C74.7775 128.862 74.2975 129.962 73.9995 130.696C73.7835 131.232 73.6765 131.552 73.5195 131.96C73.0705 133.13 73.2785 133.005 71.5125 133.005C67.5765 133.005 64.5355 129.331 64.5355 125.805C64.5355 124.698 64.8465 124.483 65.7045 124.139C66.4511 123.897 67.1816 123.609 67.8915 123.274C69.1635 122.53 69.3975 120.136 66.9335 120.136C66.0805 120.136 64.2205 121.213 63.2275 121.444C62.6385 120.565 62.0045 120.271 61.3495 119.18C60.5879 117.813 60.2706 116.243 60.4416 114.688C60.6125 113.132 61.2632 111.669 62.3035 110.5C63.8615 108.575 65.0035 110.979 67.3605 110.979C67.6709 110.928 67.9611 110.792 68.1996 110.586C68.4381 110.381 68.6155 110.114 68.7126 109.815C68.8097 109.516 68.8228 109.196 68.7502 108.889C68.6777 108.583 68.5225 108.303 68.3015 108.079C67.2028 107.402 66.0015 106.909 64.7445 106.618C64.5955 104.83 64.4035 103.795 65.5445 101.748C67.5095 98.216 72.2355 97.13 73.2565 98.543C73.9745 99.537 74.1115 102.258 75.8655 102.258C76.3193 102.233 76.7481 102.042 77.0698 101.72C77.3915 101.399 77.5836 100.971 77.6095 100.517C77.6095 98.327 74.0535 96.663 79.1325 94.408C80.1659 93.9392 81.2939 93.7161 82.428 93.756C83.5621 93.7959 84.6715 94.0978 85.6695 94.638C86.7435 95.194 87.1695 95.982 88.0765 96.592C87.8455 97.586 86.7685 99.445 86.7685 100.299L86.7675 100.3ZM130.156 85.689C130.36 87.0874 130.651 88.4717 131.026 89.834C131.43 91.1884 131.722 92.5733 131.901 93.975H127.976C127.953 92.975 127.524 92.387 127.629 91.653C127.845 90.958 128.108 90.2787 128.417 89.62C128.698 88.985 129.001 88.254 129.252 87.62L130.152 85.689H130.156ZM115.329 93.975C112.204 93.975 109.079 93.975 105.953 93.975C103.615 93.975 100.284 93.741 100.284 97.899L96.9165 95.599C96.4885 95.207 96.5765 95.977 96.5765 94.848C96.7784 92.5622 97.6187 90.3792 99.0015 88.548C101.801 84.781 110.026 80.97 111.501 79.031C113.106 76.931 112.701 75.387 112.701 72.169H119.678L120.962 78.1C121.354 79.658 121.052 79.57 120.528 80.855C120.189 81.684 119.818 82.632 119.471 83.505C118.853 85.061 115.407 93.014 115.327 93.97L115.329 93.975ZM123.397 73.7C123.293 73.1963 123.221 72.6867 123.179 72.174H124.051L123.396 73.7H123.397ZM122.961 93.977H118.818C119.223 93.211 119.574 92.2 119.908 91.36L126.638 74.979C127.018 74.05 127.349 73.022 127.757 72.173H131.9L129.689 77.589C128.979 79.369 128.231 81.113 127.478 83.009C126.738 84.87 126.059 86.547 125.268 88.429C124.846 89.435 124.526 90.173 124.114 91.2C123.732 92.156 123.393 93.155 122.961 93.972V93.977ZM143.461 68.684H111.409C108.298 68.684 108.476 64.76 111.627 64.76H142.585C146.874 64.757 145.651 68.682 143.456 68.682L143.461 68.684ZM136.261 61.484H132.119L140.438 41.24C140.961 39.94 141.462 38.572 142.074 37.207L143.752 33.216C143.963 32.8681 144.283 32.5999 144.663 32.4533C145.042 32.3067 145.459 32.29 145.849 32.4058C146.239 32.5216 146.579 32.7633 146.817 33.0932C147.055 33.4231 147.177 33.8225 147.163 34.229C146.981 35.4305 146.591 36.5909 146.009 37.658L141.838 47.875C140.887 50.253 140.026 52.36 139.068 54.698L136.262 61.486L136.261 61.484ZM111.187 33.8C111.187 35.369 112.244 42.74 114.021 42.74C116.663 42.74 115.855 40.346 115.492 38.652C115.347 37.973 115.103 36.862 114.935 36.152C114.635 34.878 114.184 33.638 115.197 32.795C118.286 30.223 119.009 36.772 119.379 38.466C120.012 41.366 124.442 59.513 124.486 61.486H120.562C120.562 59.786 118.498 51.734 117.987 49.669C117.553 47.908 117.534 46.877 115.546 46.877C114.975 46.877 114.238 47.842 114.238 48.185C114.541 50.4292 115.022 52.6456 115.678 54.813C115.962 55.93 116.187 56.987 116.401 58.013C116.747 59.1431 116.973 60.3066 117.074 61.484C113.521 61.484 109.665 60.784 107.417 62.948C105.125 65.157 105.102 69.292 107.954 71.04C109.848 72.2 109.224 71.991 109.224 75.875C109.224 77.375 105.724 79.075 104.514 79.887C100.027 82.878 95.5755 85.548 93.8775 91.054C93.4995 92.281 93.3775 93.41 93.0895 94.626C88.9275 94.626 91.0715 94.026 88.1205 92.181C87.3457 91.6776 86.5164 91.2636 85.6485 90.947C80.9405 89.268 75.3345 91.508 73.6835 94.626C71.1775 94.626 70.0245 94.581 68.1995 95.247C66.7728 95.7626 65.4745 96.5804 64.3933 97.6445C63.3121 98.7086 62.4737 99.9938 61.9355 101.412C61.1515 103.468 61.2545 104.328 61.2545 107.054C57.6395 108.967 55.6455 115.477 58.0545 120.286C58.9935 122.163 59.7945 122.423 60.8915 123.771C61.4645 124.471 61.1715 127.418 61.7665 129.22C62.2576 130.695 63.0674 132.044 64.1385 133.171C65.2113 134.187 66.448 135.014 67.7965 135.618C69.6965 136.47 70.6705 136.348 73.1415 136.412C73.8185 136.429 74.1755 137.079 74.7195 137.634C79.4015 142.404 88.1355 141.101 90.6925 136.271C91.9226 136.431 93.1683 136.431 94.3985 136.271C95.0355 138.655 99.1035 140.632 101.375 140.632H110.096C112.214 140.632 113.045 137.326 109.233 137.353C107.704 137.363 106.175 137.362 104.645 137.362C102.092 137.362 99.1695 137.423 97.6685 135.181C98.3105 134.304 99.8785 133.709 101.374 131.474C102.531 132.249 103.174 133.437 105.298 133.437H149.342C152.626 133.437 154.357 130.353 154.357 127.332V98.552C154.425 97.9803 154.379 97.4009 154.222 96.8471C154.065 96.2932 153.8 95.776 153.442 95.325C153.117 94.8956 152.694 94.5494 152.209 94.3146C151.723 94.0798 151.189 93.9631 150.65 93.974H135.387C135.282 92.9859 135.093 92.0087 134.82 91.053C134.33 88.894 132.065 80.911 132.531 79.581L135.124 73.216C135.758 71.564 136.217 72.171 141.924 72.171C141.924 79.9 141.58 78.341 151.3 84.817C155.172 87.397 158.059 90.622 158.059 95.937V132.13C158.006 132.96 157.767 133.767 157.358 134.491C156.95 135.215 156.384 135.838 155.701 136.313C154.341 137.342 152.56 137.364 150.21 137.363C146.084 137.363 119.549 137.112 117.516 137.375C117.094 137.415 116.703 137.617 116.427 137.94C116.151 138.263 116.012 138.68 116.039 139.104C116.066 139.528 116.257 139.924 116.571 140.21C116.885 140.495 117.298 140.647 117.722 140.633H153.262C157.962 140.633 161.547 136.027 161.547 131.475V97.027C161.547 86.518 155.411 83.489 148.508 78.887C144.867 76.46 145.194 77.493 145.194 71.735C149.494 70.735 150.077 64.428 146.363 62.281C144.422 61.16 142.805 61.487 139.963 61.487C140.357 59.795 145.787 47.268 146.723 44.917C147.811 42.18 150.647 36.654 150.647 34.017C150.647 28.994 143.947 27.217 141.014 31.144C140.082 32.391 130.947 55.3 129.282 59.526C128.954 60.359 128.894 61.242 127.973 61.488C127.929 59.537 122.682 37.749 122.001 34.754C121.181 31.146 120.05 29 115.981 29C114.736 29.0838 113.563 29.6164 112.681 30.4991C111.798 31.3818 111.265 32.5546 111.181 33.8H111.187Z" fill="#888888"/>
<path fill-rule="evenodd" clip-rule="evenodd" d="M82.1885 119.267C77.5815 119.267 76.6645 111.854 82.6245 111.854C86.8305 111.854 87.0045 119.267 82.1885 119.267ZM74.1215 108.801C74.1452 109.439 74.3399 110.059 74.6852 110.596C75.0305 111.133 75.5138 111.568 76.0845 111.854C74.4645 114.274 74.7895 116.82 76.0845 119.267C71.9085 122.067 75.3725 125.985 78.2655 121.667C80.6175 122.215 78.7765 122.539 83.0655 122.539C83.9986 122.482 84.9005 122.181 85.6815 121.667C86.4255 122.167 87.4505 123.63 88.5155 123.63C88.971 123.608 89.4021 123.417 89.7245 123.094C90.0469 122.772 90.2376 122.341 90.2595 121.885C90.2595 120.992 88.7935 120.011 88.2965 119.269C88.7715 117.231 89.1685 118.675 89.1685 114.69C89.1685 113.372 88.5455 112.707 88.2965 111.637C92.6195 108.743 88.6965 105.278 85.8965 109.456C81.6555 107.212 79.9835 108.997 78.2645 109.456C75.8385 105.834 74.1215 108.145 74.1215 108.801V108.801Z" fill="#888888"/>
<path d="M166.5 2H50.5C23.7142 2 2 23.7142 2 50.5V201.5C2 228.286 23.7142 250 50.5 250H166.5C193.286 250 215 228.286 215 201.5V50.5C215 23.7142 193.286 2 166.5 2Z" stroke="#E2FF9E" stroke-width="3"/>
</svg>
