<svg width="217" height="252" viewBox="0 0 217 252" fill="none" xmlns="http://www.w3.org/2000/svg">
<path d="M166.5 2H50.5C23.7142 2 2 23.7142 2 50.5V201.5C2 228.286 23.7142 250 50.5 250H166.5C193.286 250 215 228.286 215 201.5V50.5C215 23.7142 193.286 2 166.5 2Z" stroke="#F7D630" stroke-width="3"/>
<path fill-rule="evenodd" clip-rule="evenodd" d="M128.412 140.714H111.26V88.354H120.96V128.754C120.96 129.021 121.013 129.285 121.115 129.531C121.217 129.778 121.366 130.002 121.555 130.19C121.743 130.379 121.967 130.528 122.214 130.63C122.46 130.732 122.724 130.785 122.991 130.785C123.258 130.785 123.522 130.732 123.768 130.63C124.015 130.528 124.239 130.379 124.427 130.19C124.616 130.002 124.765 129.778 124.867 129.531C124.969 129.285 125.022 129.021 125.022 128.754V88.354H129.536C130.334 88.4664 131.074 88.8354 131.644 89.4052C132.214 89.9751 132.583 90.7149 132.695 91.513V137.103C132.7 139.415 130.765 140.714 128.412 140.714ZM54.836 136.2V92.641C54.836 87.451 59.392 88.353 62.736 88.353V140.713C59.227 140.713 54.836 141.354 54.836 136.199V136.2ZM81.017 80C81.0048 79.4717 81.1203 78.9482 81.3536 78.474C81.5869 77.9998 81.9311 77.5888 82.357 77.276C83.3632 76.6171 84.5572 76.3053 85.757 76.388H101.781C107.588 76.388 106.746 80.253 106.746 84.288H81.018V80H81.017ZM76.955 80V84.288H58.9C54.447 84.288 51 88.057 51 91.288V137.329C51.0983 139.213 51.8907 140.993 53.2243 142.327C54.558 143.661 56.3384 144.453 58.222 144.552H78.535C78.776 144.567 79.0176 144.531 79.2436 144.446C79.4695 144.361 79.6748 144.228 79.8455 144.058C80.0163 143.887 80.1488 143.682 80.234 143.456C80.3193 143.23 80.3554 142.988 80.34 142.747V99.639C80.34 97.915 76.504 97.293 76.504 100.09V140.715H66.8V88.355H107.2V140.715H91.625C89.039 140.715 89.587 144.551 91.399 144.551H129.766C133.02 144.551 136.766 141.037 136.766 137.104V92.19C136.786 90.128 135.991 88.1415 134.554 86.6622C133.117 85.183 131.155 84.3305 129.093 84.29H110.808V80.679C110.808 76.353 107.615 72.554 103.361 72.554H83.951C80.742 72.555 76.955 76.006 76.955 80.002V80Z" fill="#888888"/>
<path fill-rule="evenodd" clip-rule="evenodd" d="M148.724 136.88V135.075H154.363V138.234C154.363 141.042 148.721 142.189 148.721 136.88H148.724ZM120.739 36.446C120.739 34.135 122.674 32.835 125.027 32.835H146.463C148.817 32.835 150.751 34.135 150.751 36.446V58.564H120.739V42.089H143.763C146.229 42.089 146.881 38.027 143.312 38.027H120.739V36.446ZM116.677 36.446V58.564C112.869 58.564 110.503 58.12 107.608 60.555C105.32 62.48 103.629 68.269 107.197 68.269C110.325 68.269 107.816 62.627 112.613 62.627H159.105C161.416 62.627 162.716 64.562 162.716 66.915V126.498C162.716 131.823 158.15 131.012 155.269 131.012L146.513 131.057C144.168 131.502 144.887 134.182 144.887 138.457C144.887 141.366 148.072 144.55 150.98 144.55C153.544 144.55 155.541 144.108 157.173 141.716C158.661 139.533 158.428 138.472 158.428 135.072C162.898 134.7 166.553 132.028 166.553 127.625V65.788C166.441 63.8705 165.614 62.0648 164.235 60.7276C162.856 59.3904 161.026 58.6191 159.106 58.566H154.818V36.449C154.751 34.5493 153.993 32.7395 152.685 31.36C151.393 30.0241 149.67 29.1881 147.821 29H123.898C121.98 29.1117 120.174 29.9387 118.837 31.3176C117.5 32.6964 116.728 34.5268 116.675 36.447L116.677 36.446Z" fill="#888888"/>
<path fill-rule="evenodd" clip-rule="evenodd" d="M123.221 74.812C123.221 76.352 123.757 77.294 125.703 77.294H146.241C149.613 77.294 149.416 73.232 146.692 73.232H125.251C124.321 73.232 123.221 73.991 123.221 74.812Z" fill="#888888"/>
<path fill-rule="evenodd" clip-rule="evenodd" d="M142.405 96.705C142.405 98.012 142.905 98.962 144.887 98.962H152.56C152.833 98.989 153.109 98.9604 153.371 98.8778C153.633 98.7953 153.876 98.6606 154.085 98.4819C154.293 98.3032 154.463 98.0841 154.585 97.8378C154.707 97.5915 154.777 97.3232 154.793 97.0489C154.808 96.7747 154.768 96.5002 154.674 96.2419C154.58 95.9837 154.435 95.747 154.248 95.5462C154.06 95.3455 153.834 95.1847 153.583 95.0736C153.332 94.9626 153.061 94.9035 152.786 94.9H144.215C143.974 94.8838 143.731 94.9194 143.505 95.0044C143.278 95.0893 143.072 95.2216 142.901 95.3925C142.73 95.5634 142.597 95.7688 142.511 95.9952C142.426 96.2215 142.389 96.4635 142.405 96.705Z" fill="#888888"/>
<path fill-rule="evenodd" clip-rule="evenodd" d="M141.277 118.145C141.277 121.06 143.377 120.627 146.242 120.627C149.614 120.627 149.417 116.565 146.693 116.565C145.387 116.565 141.277 116.059 141.277 118.145Z" fill="#888888"/>
</svg>
