<svg xmlns="http://www.w3.org/2000/svg" width="413.02" height="413.052" viewBox="0 0 413.02 413.052">
  <g id="_2522507681824" transform="translate(0)">
    <path id="Path_1685" data-name="Path 1685" d="M17809.039,206.519c0,114.069-92.441,206.533-206.508,206.533-114.039,0-206.512-92.465-206.512-206.533S17488.492,0,17602.531,0C17716.6,0,17809.039,92.465,17809.039,206.519Z" transform="translate(-17396.02)" fill="#4a5457"/>
    <path id="Path_1686" data-name="Path 1686" d="M18263.109,10030.592c-.562-.945-1.113-1.9-1.648-2.863C18262,10028.688,18262.547,10029.646,18263.109,10030.592Z" transform="translate(-18234.889 -9719.818)" fill="#4a5457"/>
    <path id="Path_1687" data-name="Path 1687" d="M18186.059,9890.386c-.34-.61-.676-1.25-1.008-1.878C18185.383,9889.136,18185.719,9889.775,18186.059,9890.386Z" transform="translate(-18160.828 -9584.869)" fill="#4a5457"/>
    <path id="Path_1688" data-name="Path 1688" d="M18721.746,10735.255c-.531-.7-1.066-1.388-1.586-2.106C18720.68,10733.867,18721.215,10734.559,18721.746,10735.255Z" transform="translate(-18679.506 -10403.577)" fill="#4a5457"/>
    <path id="Path_1689" data-name="Path 1689" d="M18600.254,10566.182c-.941-1.291-1.879-2.6-2.8-3.922C18598.375,10563.584,18599.313,10564.891,18600.254,10566.182Z" transform="translate(-18560.564 -10237.937)" fill="#4a5457"/>
    <path id="Path_1690" data-name="Path 1690" d="M18517.289,10444.5c-.469-.671-.922-1.351-1.359-2.023C18516.367,10443.151,18516.82,10443.831,18517.289,10444.5Z" transform="translate(-18481.539 -10121.835)" fill="#4a5457"/>
    <path id="Path_1691" data-name="Path 1691" d="M18437.594,10321.863c-.434-.654-.859-1.333-1.289-2C18436.734,10320.53,18437.16,10321.209,18437.594,10321.863Z" transform="translate(-18404.359 -10002.979)" fill="#4a5457"/>
    <path id="Path_1692" data-name="Path 1692" d="M18360.438,10197.242c-.406-.654-.812-1.309-1.2-1.961C18359.625,10195.934,18360.031,10196.588,18360.438,10197.242Z" transform="translate(-18329.66 -9882.226)" fill="#4a5457"/>
    <path id="Path_1693" data-name="Path 1693" d="M18117,9757.836c-.316-.625-.645-1.268-.969-1.906C18116.355,9756.568,18116.684,9757.211,18117,9757.836Z" transform="translate(-18093.92 -9456.363)" fill="#4a5457"/>
    <path id="Path_1694" data-name="Path 1694" d="M17747.6,8877.06c-.148-.434-.309-.882-.457-1.321C17747.289,8876.178,17747.449,8876.626,17747.6,8877.06Z" transform="translate(-17736.361 -8603.201)" fill="#4a5457"/>
    <path id="Path_1695" data-name="Path 1695" d="M17797.672,9019.549c-.211-.6-.434-1.182-.645-1.758C17797.238,9018.367,17797.461,9018.952,17797.672,9019.549Z" transform="translate(-17784.713 -8740.894)" fill="#4a5457"/>
    <path id="Path_1696" data-name="Path 1696" d="M17850.918,9161.17c-.246-.613-.48-1.207-.715-1.82C17850.438,9159.963,17850.672,9160.557,17850.918,9161.17Z" transform="translate(-17836.254 -8878.106)" fill="#4a5457"/>
    <path id="Path_1697" data-name="Path 1697" d="M17984.863,9481.512q-.387-.8-.754-1.613Q17984.479,9480.707,17984.863,9481.512Z" transform="translate(-17966.053 -9188.81)" fill="#4a5457"/>
    <path id="Path_1698" data-name="Path 1698" d="M18051.223,9624.265c-.289-.607-.605-1.219-.895-1.847C18050.617,9623.046,18050.934,9623.657,18051.223,9624.265Z" transform="translate(-18030.238 -9326.956)" fill="#4a5457"/>
    <path id="Path_1699" data-name="Path 1699" d="M17908.629,9304.508c-.238-.551-.469-1.123-.7-1.687C17908.16,9303.385,17908.391,9303.957,17908.629,9304.508Z" transform="translate(-17892.217 -9017.168)" fill="#4a5457"/>
    <path id="Path_1700" data-name="Path 1700" d="M20439.49,12353.838q-6.715-3.741-13.143-7.98Q20432.761,12350.088,20439.49,12353.838Z" transform="translate(-20333.297 -11966.766)" fill="#4a5457"/>
    <path id="Path_1701" data-name="Path 1701" d="M20317.236,12272.5c-.965-.639-1.924-1.295-2.877-1.947C20315.313,12271.2,20316.271,12271.858,20317.236,12272.5Z" transform="translate(-20224.754 -11893.773)" fill="#4a5457"/>
    <path id="Path_1702" data-name="Path 1702" d="M19915.412,11972.716c-4.115-2.871-8.107-5.857-12.006-9C19907.295,11966.858,19911.3,11969.845,19915.412,11972.716Z" transform="translate(-19826.414 -11596.358)" fill="#4a5457"/>
    <path id="Path_1703" data-name="Path 1703" d="M20870.721,12614.625c-1.072-.576-2.146-1.146-3.213-1.746C20868.574,12613.479,20869.648,12614.049,20870.721,12614.625Z" transform="translate(-20760.914 -12225.589)" fill="#4a5457"/>
    <path id="Path_1704" data-name="Path 1704" d="M21459.2,12903.6c-1.152-.461-2.316-.959-3.469-1.455C21456.879,12902.645,21458.043,12903.143,21459.2,12903.6Z" transform="translate(-21331.066 -12505.976)" fill="#4a5457"/>
    <path id="Path_1705" data-name="Path 1705" d="M18809.646,10850.811c-.543-.7-1.1-1.393-1.639-2.09C18808.545,10849.418,18809.1,10850.113,18809.646,10850.811Z" transform="translate(-18764.648 -10515.603)" fill="#4a5457"/>
    <path id="Path_1706" data-name="Path 1706" d="M19801.984,11880.579c-.844-.684-1.676-1.381-2.5-2.078C19800.309,11879.2,19801.141,11879.9,19801.984,11880.579Z" transform="translate(-19725.68 -11513.761)" fill="#4a5457"/>
    <path id="Path_1707" data-name="Path 1707" d="M21001.889,12684.555q-7.236-3.161-14.186-6.816Q20994.638,12681.395,21001.889,12684.555Z" transform="translate(-20877.416 -12288.456)" fill="#4a5457"/>
    <path id="Path_1708" data-name="Path 1708" d="M18992.168,11074.819c-2.238-2.415-4.418-4.858-6.535-7.37C18987.75,11069.961,18989.93,11072.4,18992.168,11074.819Z" transform="translate(-18936.824 -10727.613)" fill="#4a5457"/>
    <path id="Path_1709" data-name="Path 1709" d="M19229.639,11340.936c-.689-.713-1.369-1.42-2.049-2.135C19228.27,11339.516,19228.949,11340.223,19229.639,11340.936Z" transform="translate(-19171.35 -10990.634)" fill="#4a5457"/>
    <path id="Path_1710" data-name="Path 1710" d="M18898.84,10963.054c-.584-.69-1.154-1.388-1.73-2.106C18897.686,10961.666,18898.256,10962.363,18898.84,10963.054Z" transform="translate(-18851.012 -10624.384)" fill="#4a5457"/>
    <path id="Path_1711" data-name="Path 1711" d="M19328.148,11443.187c-.707-.7-1.41-1.4-2.117-2.119C19326.738,11441.782,19327.441,11442.489,19328.148,11443.187Z" transform="translate(-19266.771 -11089.759)" fill="#4a5457"/>
    <path id="Path_1712" data-name="Path 1712" d="M19694.76,11788.836c-.832-.715-1.672-1.41-2.482-2.135C19693.088,11787.426,19693.928,11788.121,19694.76,11788.836Z" transform="translate(-19621.762 -11424.779)" fill="#4a5457"/>
    <path id="Path_1713" data-name="Path 1713" d="M19429.826,11543.449q-4-3.513-7.8-7.24Q19425.83,11539.936,19429.826,11543.449Z" transform="translate(-19359.816 -11181.981)" fill="#4a5457"/>
    <path id="Path_1714" data-name="Path 1714" d="M17527.088,8052.095c-.086-.38-.148-.757-.229-1.134C17526.939,8051.338,17527,8051.715,17527.088,8052.095Z" transform="translate(-17522.84 -7803.749)" fill="#4a5457"/>
    <path id="Path_1715" data-name="Path 1715" d="M17566.607,8236.948c-.107-.437-.217-.888-.318-1.339C17566.391,8236.061,17566.5,8236.512,17566.607,8236.948Z" transform="translate(-17561.068 -7982.727)" fill="#4a5457"/>
    <path id="Path_1716" data-name="Path 1716" d="M17470.441,7727.371c-.086-.565-.176-1.131-.262-1.7C17470.266,7726.24,17470.355,7726.806,17470.441,7727.371Z" transform="translate(-17467.902 -7488.445)" fill="#4a5457"/>
    <path id="Path_1717" data-name="Path 1717" d="M17495.721,7884.049c-.1-.554-.193-1.107-.291-1.659C17495.527,7882.941,17495.623,7883.5,17495.721,7884.049Z" transform="translate(-17492.373 -7640.353)" fill="#4a5457"/>
    <path id="Path_1718" data-name="Path 1718" d="M17602.912,8385.992c-.16-.566-.3-1.133-.451-1.713C17602.609,8384.859,17602.752,8385.426,17602.912,8385.992Z" transform="translate(-17596.119 -8126.831)" fill="#4a5457"/>
    <path id="Path_1719" data-name="Path 1719" d="M17642.807,8535.616c-.16-.57-.314-1.139-.475-1.718C17642.492,8534.478,17642.646,8535.046,17642.807,8535.616Z" transform="translate(-17634.77 -8271.856)" fill="#4a5457"/>
    <path id="Path_1720" data-name="Path 1720" d="M17413.672,7209.768c-.045-.522-.08-1.062-.113-1.6C17413.592,7208.707,17413.627,7209.246,17413.672,7209.768Z" transform="translate(-17413.02 -6986.836)" fill="#4a5457"/>
    <path id="Path_1721" data-name="Path 1721" d="M17398.131,6886.33c-.012-.508-.035-1.016-.045-1.541C17398.1,6885.314,17398.119,6885.822,17398.131,6886.33Z" transform="translate(-17398.023 -6673.385)" fill="#4a5457"/>
    <path id="Path_1722" data-name="Path 1722" d="M17687.973,8690.641c-.154-.482-.285-.965-.434-1.441C17687.688,8689.676,17687.818,8690.158,17687.973,8690.641Z" transform="translate(-17678.59 -8422.387)" fill="#4a5457"/>
    <path id="Path_1723" data-name="Path 1723" d="M17448.939,7572.271c-.057-.463-.131-.945-.193-1.422C17448.809,7571.326,17448.883,7571.809,17448.939,7572.271Z" transform="translate(-17447.121 -7338.38)" fill="#4a5457"/>
    <path id="Path_1724" data-name="Path 1724" d="M17429.189,7394.014c-.035-.234-.051-.469-.068-.714C17429.139,7393.545,17429.154,7393.779,17429.189,7394.014Z" transform="translate(-17428.105 -7166.282)" fill="#4a5457"/>
    <path id="Path_1725" data-name="Path 1725" d="M17403.859,7046.552c-.039-.571-.062-1.153-.092-1.732C17403.8,7045.4,17403.82,7045.98,17403.859,7046.552Z" transform="translate(-17403.527 -6828.501)" fill="#4a5457"/>
    <path id="Path_1726" data-name="Path 1726" d="M19676.566,11772.47c-.168-.143-.344-.291-.5-.451C19676.223,11772.179,19676.4,11772.327,19676.566,11772.47Z" transform="translate(-19606.051 -11410.547)" fill="#3f4242"/>
    <path id="Path_1727" data-name="Path 1727" d="M17406.941,7104.457c-.08-1.091-.148-2.184-.211-3.286C17406.793,7102.273,17406.861,7103.366,17406.941,7104.457Z" transform="translate(-17406.395 -6883.123)" fill="#3f4242"/>
    <path id="Path_1728" data-name="Path 1728" d="M19396.018,11510.959c-.275-.262-.549-.525-.822-.8C19395.469,11510.434,19395.742,11510.7,19396.018,11510.959Z" transform="translate(-19333.807 -11156.732)" fill="#3f4242"/>
    <path id="Path_1729" data-name="Path 1729" d="M19295.342,11409.329c-.314-.336-.646-.668-.971-1C19294.7,11408.661,19295.027,11408.993,19295.342,11409.329Z" transform="translate(-19236.082 -11058.028)" fill="#3f4242"/>
    <path id="Path_1730" data-name="Path 1730" d="M19199.418,11308.508c-.3-.32-.6-.641-.891-.959C19198.818,11307.867,19199.121,11308.188,19199.418,11308.508Z" transform="translate(-19143.182 -10960.339)" fill="#3f4242"/>
    <path id="Path_1731" data-name="Path 1731" d="M17431.729,7421.238c-.184-1.572-.377-3.154-.537-4.738C17431.352,7418.084,17431.545,7419.666,17431.729,7421.238Z" transform="translate(-17430.113 -7188.77)" fill="#3f4242"/>
    <path id="Path_1732" data-name="Path 1732" d="M17417.623,7264.347c-.143-1.353-.252-2.724-.365-4.088C17417.371,7261.624,17417.48,7262.995,17417.623,7264.347Z" transform="translate(-17416.604 -7037.327)" fill="#3f4242"/>
    <path id="Path_1733" data-name="Path 1733" d="M20855.105,12606.022c-.119-.074-.262-.148-.387-.223C20854.844,12605.874,20854.986,12605.948,20855.105,12606.022Z" transform="translate(-20748.514 -12218.726)" fill="#3f4242"/>
    <path id="Path_1734" data-name="Path 1734" d="M19773.938,11856.928c-.258-.238-.543-.467-.8-.689C19773.395,11856.461,19773.68,11856.689,19773.938,11856.928Z" transform="translate(-19700.143 -11492.183)" fill="#3f4242"/>
    <path id="Path_1735" data-name="Path 1735" d="M21569.285,12949.773c-.16-.074-.32-.131-.469-.205C21568.965,12949.643,21569.125,12949.7,21569.285,12949.773Z" transform="translate(-21440.684 -12551.942)" fill="#3f4242"/>
    <path id="Path_1736" data-name="Path 1736" d="M21450.059,12899.9a1.4,1.4,0,0,0-.184-.068A1.4,1.4,0,0,1,21450.059,12899.9Z" transform="translate(-21325.4 -12503.729)" fill="#3f4242"/>
    <path id="Path_1737" data-name="Path 1737" d="M20972.592,12669.9c-.16-.092-.314-.16-.475-.252C20972.277,12669.74,20972.432,12669.809,20972.592,12669.9Z" transform="translate(-20862.307 -12280.613)" fill="#3f4242"/>
    <path id="Path_1738" data-name="Path 1738" d="M17399.764,6938.356c-.051-1.125-.1-2.241-.131-3.377C17399.668,6936.115,17399.713,6937.231,17399.764,6938.356Z" transform="translate(-17399.527 -6722.034)" fill="#3f4242"/>
    <path id="Path_1739" data-name="Path 1739" d="M19881.969,11946.713c-.229-.17-.451-.359-.68-.535C19881.518,11946.354,19881.74,11946.543,19881.969,11946.713Z" transform="translate(-19804.98 -11579.356)" fill="#3f4242"/>
    <path id="Path_1740" data-name="Path 1740" d="M17396.07,6730.584c-.047-1.612-.064-3.242-.064-4.884C17396.006,6727.342,17396.023,6728.972,17396.07,6730.584Z" transform="translate(-17396.006 -6519.182)" fill="#3f4242"/>
    <path id="Path_1741" data-name="Path 1741" d="M20295.113,12257.291c-.2-.148-.395-.291-.605-.422C20294.719,12257,20294.914,12257.143,20295.113,12257.291Z" transform="translate(-20205.51 -11880.513)" fill="#3f4242"/>
    <path id="Path_1742" data-name="Path 1742" d="M20408.766,12334.334c-.187-.133-.371-.252-.559-.365C20408.395,12334.082,20408.578,12334.2,20408.766,12334.334Z" transform="translate(-20315.713 -11955.244)" fill="#3f4242"/>
    <path id="Path_1743" data-name="Path 1743" d="M17703.145,8740.357q-.718-2.131-1.4-4.287Q17702.423,8738.228,17703.145,8740.357Z" transform="translate(-17692.355 -8467.822)" fill="#3f4242"/>
    <path id="Path_1744" data-name="Path 1744" d="M18009.641,9535.209c-.434-.914-.867-1.826-1.289-2.76C18008.773,9533.383,18009.207,9534.295,18009.641,9535.209Z" transform="translate(-17989.543 -9239.748)" fill="#3f4242"/>
    <path id="Path_1745" data-name="Path 1745" d="M18080.672,9684.791c-.383-.754-.754-1.492-1.125-2.252C18079.918,9683.3,18080.289,9684.037,18080.672,9684.791Z" transform="translate(-18058.559 -9385.227)" fill="#3f4242"/>
    <path id="Path_1746" data-name="Path 1746" d="M17617.652,8443.03c-.273-.965-.537-1.918-.781-2.88C17617.115,8441.112,17617.379,8442.065,17617.652,8443.03Z" transform="translate(-17610.086 -8180.988)" fill="#3f4242"/>
    <path id="Path_1747" data-name="Path 1747" d="M18148.912,9820.128c-.377-.717-.758-1.441-1.135-2.169C18148.154,9818.687,18148.535,9819.411,18148.912,9820.128Z" transform="translate(-18124.693 -9516.49)" fill="#3f4242"/>
    <path id="Path_1748" data-name="Path 1748" d="M17577.475,8282.4c-.262-1.076-.531-2.155-.787-3.229C17576.943,8280.243,17577.213,8281.322,17577.475,8282.4Z" transform="translate(-17571.139 -8024.95)" fill="#3f4242"/>
    <path id="Path_1749" data-name="Path 1749" d="M18219.273,9951.978c-.451-.8-.9-1.6-1.336-2.4C18218.371,9950.379,18218.822,9951.173,18219.273,9951.978Z" transform="translate(-18192.697 -9644.069)" fill="#3f4242"/>
    <path id="Path_1750" data-name="Path 1750" d="M17819.086,9077.667c-.332-.862-.668-1.732-.988-2.589C17818.418,9075.935,17818.754,9076.8,17819.086,9077.667Z" transform="translate(-17805.139 -8796.424)" fill="#3f4242"/>
    <path id="Path_1751" data-name="Path 1751" d="M17932.371,9361.49c-.551-1.25-1.1-2.482-1.633-3.75C17931.273,9359.008,17931.82,9360.24,17932.371,9361.49Z" transform="translate(-17914.316 -9070.401)" fill="#3f4242"/>
    <path id="Path_1752" data-name="Path 1752" d="M17874.5,9221.127c-.355-.857-.715-1.73-1.062-2.586C17873.785,9219.4,17874.145,9220.27,17874.5,9221.127Z" transform="translate(-17858.773 -8935.478)" fill="#3f4242"/>
    <path id="Path_1753" data-name="Path 1753" d="M18954.488,11030.781c-.336-.395-.674-.77-.992-1.164C18953.814,11030.012,18954.152,11030.387,18954.488,11030.781Z" transform="translate(-18905.666 -10690.942)" fill="#3f4242"/>
    <path id="Path_1754" data-name="Path 1754" d="M17658.916,8592.82c-.309-1.016-.617-2.029-.908-3.051C17658.3,8590.791,17658.607,8591.8,17658.916,8592.82Z" transform="translate(-17649.961 -8326.013)" fill="#3f4242"/>
    <path id="Path_1755" data-name="Path 1755" d="M18689.633,10691.439c-.326-.439-.645-.879-.965-1.33C18688.988,10690.561,18689.307,10691,18689.633,10691.439Z" transform="translate(-18648.977 -10361.859)" fill="#3f4242"/>
    <path id="Path_1756" data-name="Path 1756" d="M17479.336,7784.188c-.176-1.027-.348-2.062-.508-3.108C17478.988,7782.127,17479.16,7783.161,17479.336,7784.188Z" transform="translate(-17476.285 -7542.155)" fill="#3f4242"/>
    <path id="Path_1757" data-name="Path 1757" d="M17763.18,8921.867c-.363-1-.723-2.023-1.066-3.037C17762.457,8919.844,17762.816,8920.865,17763.18,8921.867Z" transform="translate(-17750.875 -8644.967)" fill="#3f4242"/>
    <path id="Path_1758" data-name="Path 1758" d="M18773.258,10803.267c-.371-.485-.727-.959-1.1-1.438C18772.531,10802.308,18772.887,10802.781,18773.258,10803.267Z" transform="translate(-18729.904 -10470.15)" fill="#3f4242"/>
    <path id="Path_1759" data-name="Path 1759" d="M18862.625,10918.221c-.367-.451-.738-.9-1.09-1.354C18861.887,10917.318,18862.258,10917.77,18862.625,10918.221Z" transform="translate(-18816.533 -10581.655)" fill="#3f4242"/>
    <path id="Path_1760" data-name="Path 1760" d="M17455.5,7620.581c-.16-1.1-.309-2.209-.457-3.331C17455.2,7618.372,17455.344,7619.476,17455.5,7620.581Z" transform="translate(-17453.236 -7383.355)" fill="#3f4242"/>
    <path id="Path_1761" data-name="Path 1761" d="M18399.535,10261.058c-.4-.608-.775-1.23-1.164-1.858C18398.76,10259.827,18399.137,10260.449,18399.535,10261.058Z" transform="translate(-18367.594 -9944.183)" fill="#3f4242"/>
    <path id="Path_1762" data-name="Path 1762" d="M18316.521,10123.252c-.463-.758-.9-1.514-1.354-2.281C18315.619,10121.738,18316.059,10122.5,18316.521,10123.252Z" transform="translate(-18286.951 -9810.194)" fill="#3f4242"/>
    <path id="Path_1763" data-name="Path 1763" d="M17535.188,8092.426c-.344-1.5-.668-3.025-.988-4.535C17534.52,8089.4,17534.844,8090.928,17535.188,8092.426Z" transform="translate(-17529.949 -7839.544)" fill="#3f4242"/>
    <path id="Path_1764" data-name="Path 1764" d="M17505.643,7939.891c-.229-1.179-.451-2.344-.662-3.52C17505.191,7937.547,17505.414,7938.712,17505.643,7939.891Z" transform="translate(-17501.633 -7692.677)" fill="#3f4242"/>
    <path id="Path_1765" data-name="Path 1765" d="M18561.186,10509.98c-.387-.549-.775-1.105-1.146-1.652C18560.41,10508.875,18560.8,10509.432,18561.186,10509.98Z" transform="translate(-18524.295 -10185.66)" fill="#3f4242"/>
    <path id="Path_1766" data-name="Path 1766" d="M18479.545,10386.97c-.387-.582-.77-1.164-1.146-1.761C18478.775,10385.806,18479.158,10386.388,18479.545,10386.97Z" transform="translate(-18445.164 -10066.323)" fill="#3f4242"/>
    <path id="Path_1767" data-name="Path 1767" d="M17686.318,3860.968l-16.859-34.036-7.816-2.6,59.779-42.234-18.2-9.217,32.42-95.139-83.162-28.191-56.365,31.724-40.883-21.14-23.961,16.91-11.27-10.57-82.461-9.16-29.109,16.065a206.119,206.119,0,0,0-12.4,70.629q0,2.464.063,4.884c.018.524.035,1.033.051,1.542.035,1.135.07,2.253.121,3.373.027.583.057,1.163.092,1.731.051,1.1.125,2.195.211,3.285.033.538.068,1.075.113,1.6.1,1.366.223,2.732.365,4.085.018.246.035.478.059.712.158,1.584.348,3.169.541,4.739.068.479.131.96.2,1.426.143,1.119.3,2.224.455,3.328.092.567.189,1.135.27,1.7.166,1.044.336,2.077.514,3.11.1.552.193,1.1.3,1.657.211,1.178.434,2.341.674,3.519.068.378.143.756.217,1.133.314,1.513.645,3.04.992,4.537.1.45.2.9.314,1.337.258,1.076.525,2.152.789,3.227.154.582.3,1.149.445,1.715.25.96.508,1.92.781,2.879.154.582.309,1.149.48,1.715.3,1.019.594,2.035.906,3.053.143.479.287.96.445,1.44.439,1.438.92,2.863,1.395,4.288.143.437.3.888.449,1.323.344,1.018.7,2.036,1.068,3.04.211.581.445,1.164.656,1.758.326.858.65,1.73.988,2.588.229.611.469,1.206.707,1.818.344.858.709,1.729,1.063,2.587.234.567.457,1.133.7,1.687.529,1.265,1.078,2.5,1.627,3.75.256.538.514,1.078.752,1.616.43.929.857,1.845,1.291,2.762.291.625.6,1.234.891,1.845.371.757.742,1.5,1.131,2.254.32.639.645,1.279.971,1.905.383.727.76,1.453,1.141,2.165.344.625.668,1.266,1.018,1.877q.65,1.2,1.33,2.4c.541.959,1.09,1.919,1.654,2.864.439.771.891,1.527,1.342,2.282q.609.981,1.211,1.964c.389.624.771,1.249,1.164,1.858.424.671.857,1.353,1.291,2.008.383.6.76,1.177,1.146,1.76.451.668.9,1.352,1.365,2.02.377.552.76,1.1,1.137,1.658.93,1.322,1.855,2.632,2.809,3.925.32.449.639.886.977,1.321.508.714,1.055,1.412,1.586,2.108.371.481.725.96,1.1,1.44q.823,1.047,1.645,2.094c.371.451.742.9,1.1,1.352.582.712,1.146,1.41,1.729,2.108.326.393.65.771.988,1.164,2.123,2.516,4.293,4.957,6.537,7.37.3.32.582.641.9.959.678.714,1.357,1.427,2.049,2.138.326.335.645.669.971,1,.7.712,1.4,1.424,2.129,2.122.264.276.549.538.811.8q3.82,3.727,7.811,7.239c.16.16.336.305.5.451.822.727,1.645,1.425,2.484,2.137.262.218.537.451.8.685.834.7,1.672,1.4,2.529,2.078.211.174.439.363.674.538q5.821,4.71,12,9c.205.131.41.277.611.422.953.652,1.906,1.307,2.883,1.948a6.417,6.417,0,0,1,.553.362q6.416,4.23,13.154,7.983c.137.073.268.144.406.217,1.061.6,2.129,1.163,3.207,1.746.154.087.309.16.48.247q6.929,3.663,14.188,6.819a.988.988,0,0,1,.182.071c1.154.494,2.3.989,3.465,1.454.16.073.32.13.48.2C17529.57,3937.323,17686.318,3860.968,17686.318,3860.968Z" transform="translate(-17396.031 -3537.486)" fill="#3f4242"/>
    <path id="Path_1768" data-name="Path 1768" d="M25173.887,3678.986a3.842,3.842,0,0,1-4.727,2.616l-67.7-14.93a3.821,3.821,0,0,1-3.176-4.349l17.8-80.788a3.824,3.824,0,0,1,4.7-2.618l67.723,14.917a3.839,3.839,0,0,1,3.172,4.361Z" transform="translate(-24861.713 -3468.918)" fill="#d84140"/>
    <path id="Path_1769" data-name="Path 1769" d="M22550.719,4042.383c0,2.181-2.5,3.969-5.594,3.969h-95.957c-3.094,0-5.594-1.79-5.594-3.969V3950.37c0-2.2,2.5-3.969,5.594-3.969h95.957c3.094,0,5.594,1.773,5.594,3.969Z" transform="translate(-22288.586 -3825.222)" fill="#f1931f"/>
    <path id="Path_1770" data-name="Path 1770" d="M21857.461,4399.05h-210.98c-2.2,0-3.984,2.05-3.984,4.58s1.781,4.594,3.984,4.594h210.98c2.219,0,4-2.049,4-4.594A4.313,4.313,0,0,0,21857.461,4399.05Z" transform="translate(-21512.102 -4263.974)" fill="#ebecec"/>
    <path id="Path_1771" data-name="Path 1771" d="M22170.588,5596.459H21983.23c-2.193,0-3.984,2.049-3.984,4.579s1.791,4.581,3.984,4.581h187.357c2.205,0,3.975-2.049,3.975-4.581S22172.793,5596.459,22170.588,5596.459Z" transform="translate(-21838.516 -5424.615)" fill="#ebecec"/>
    <path id="Path_1772" data-name="Path 1772" d="M22413.375,6793.409h-165.16c-2.2,0-3.984,2.05-3.984,4.579,0,2.546,1.781,4.581,3.984,4.581h165.16a4.624,4.624,0,0,0,0-9.16Z" transform="translate(-22095.357 -6584.813)" fill="#ebecec"/>
    <path id="Path_1773" data-name="Path 1773" d="M22782.41,4598.379l-7.914,1.18,10.766,95.6,8.359,2.05Z" transform="translate(-22609.348 -4457.181)" fill="#ebecec"/>
    <path id="Path_1774" data-name="Path 1774" d="M23816.662,4621.109l-7.961.626,5.859,98.366,8.348-1.729Z" transform="translate(-23611.795 -4479.215)" fill="#ebecec"/>
    <path id="Path_1775" data-name="Path 1775" d="M24848.623,4576.129l-.023,100.678,7.594-.305.4-100.373Z" transform="translate(-24619.766 -4435.616)" fill="#ebecec"/>
    <path id="Path_1776" data-name="Path 1776" d="M25572.664,4565.24l-15.07,102.161,8.609-3.489,14.328-97.144Z" transform="translate(-25306.982 -4425.061)" fill="#ebecec"/>
    <path id="Path_1777" data-name="Path 1777" d="M26382.385,4563.819l-24.789,102.8,8.871-2.049,23.59-98.31Z" transform="translate(-26082.418 -4423.684)" fill="#ebecec"/>
    <path id="Path_1778" data-name="Path 1778" d="M27223.252,4509.84l-32.762,99.5,7.855,3.794,32.359-100.066Z" transform="translate(-26889.744 -4371.363)" fill="#ebecec"/>
    <path id="Path_1779" data-name="Path 1779" d="M21567.758,4232.192h-160.824l-32.406-104.442c-.453,5.6-5.48,6.745-10.309,7.413l33.125,106a5.936,5.936,0,0,0,5.492,4.449h164.922c3.23,0,5.832-3,5.832-6.717S21570.977,4232.192,21567.758,4232.192Z" transform="translate(-21242.369 -4001.005)" fill="#d84140"/>
    <path id="Path_1780" data-name="Path 1780" d="M18711.527,3869.565a11,11,0,0,0-7.312-2.706H18628.8c-5.762,0-10.426,4.188-10.426,9.364,0,5.16,4.664,9.363,10.426,9.363h75.414a12.367,12.367,0,0,0,1.258-.117c4.824-.524,8.6-4,9.059-8.359a7.275,7.275,0,0,0,.1-.887A8.92,8.92,0,0,0,18711.527,3869.565Z" transform="translate(-18580.838 -3748.124)" fill="#ebecec"/>
    <path id="Path_1781" data-name="Path 1781" d="M22453.039,7788.518H22324.2l15.379-71.368,8.086,2.3-12.836,59.5h118.211Z" transform="translate(-22172.877 -7480.188)" fill="#d84140"/>
    <path id="Path_1782" data-name="Path 1782" d="M21833.816,9182.977a23.15,23.15,0,1,1-23.156-23.146A23.151,23.151,0,0,1,21833.816,9182.977Z" transform="translate(-21652.668 -8878.569)" fill="#ebecec"/>
    <path id="Path_1783" data-name="Path 1783" d="M22010.68,9365.628a17.361,17.361,0,1,1-17.355-17.358A17.359,17.359,0,0,1,22010.68,9365.628Z" transform="translate(-21835.324 -9061.222)" fill="#f1931f"/>
    <path id="Path_1784" data-name="Path 1784" d="M25735.258,9182.977a23.15,23.15,0,1,1-23.145-23.146A23.146,23.146,0,0,1,25735.258,9182.977Z" transform="translate(-25434.318 -8878.569)" fill="#ebecec"/>
    <path id="Path_1785" data-name="Path 1785" d="M25912.18,9365.628a17.367,17.367,0,1,1-17.367-17.358A17.369,17.369,0,0,1,25912.18,9365.628Z" transform="translate(-25617.012 -9061.222)" fill="#f1931f"/>
  </g>
</svg>
