<svg xmlns="http://www.w3.org/2000/svg" xmlns:xlink="http://www.w3.org/1999/xlink" width="110.354" height="147.425" viewBox="0 0 110.354 147.425">
  <defs>
    <linearGradient id="linear-gradient" x1="0.5" y1="0.05" x2="0.5" y2="0.977" gradientUnits="objectBoundingBox">
      <stop offset="0" stop-color="#f3bf27"/>
      <stop offset="1" stop-color="#ee783b"/>
    </linearGradient>
    <linearGradient id="linear-gradient-2" x1="0.5" y1="0.975" x2="0.5" y2="0.053" xlink:href="#linear-gradient"/>
    <linearGradient id="linear-gradient-3" x1="0.48" y1="2.149" x2="0.48" y2="-2.752" xlink:href="#linear-gradient"/>
    <linearGradient id="linear-gradient-4" x1="0.469" y1="2.249" x2="0.469" y2="-0.385" xlink:href="#linear-gradient"/>
  </defs>
  <g id="Group_2537" data-name="Group 2537" transform="translate(-508.416 -4485.993)">
    <path id="Path_422" data-name="Path 422" d="M2995.024,55.176c0,30.474-55.178,92.249-55.178,92.249S2884.67,85.65,2884.67,55.176a55.177,55.177,0,0,1,110.354,0Z" transform="translate(-2376.254 4485.993)" fill-rule="evenodd" fill="url(#linear-gradient)"/>
    <path id="Path_423" data-name="Path 423" d="M3044.178,113.734A40.574,40.574,0,1,1,3003.6,73.16,40.574,40.574,0,0,1,3044.178,113.734Z" transform="translate(-2440.012 4426.466)" fill-rule="evenodd" fill="url(#linear-gradient-2)"/>
    <path id="Path_424" data-name="Path 424" d="M3075.037,330.555a2.3,2.3,0,1,1-2.3,2.3A2.3,2.3,0,0,1,3075.037,330.555Zm17.224,0a2.3,2.3,0,1,1-2.294,2.3A2.3,2.3,0,0,1,3092.261,330.555Zm17.228,0a2.3,2.3,0,1,1-2.3,2.3A2.3,2.3,0,0,1,3109.49,330.555Zm-34.452,6.4a4.106,4.106,0,0,0,.9-8.112v-2.029a1.576,1.576,0,0,1,1.573-1.573h13.844v3.6a4.107,4.107,0,1,0,1.811,0v-3.6h13.842a1.574,1.574,0,0,1,1.573,1.573v2.027a4.106,4.106,0,1,0,1.809,0v-2.027a3.386,3.386,0,0,0-3.38-3.384h-13.842v-.84a.906.906,0,0,0-1.812,0v.84h-13.844a3.389,3.389,0,0,0-3.384,3.384v2.027a4.106,4.106,0,0,0,.907,8.112Z" transform="translate(-2527.804 4224.25)" fill-rule="evenodd" fill="url(#linear-gradient-3)"/>
    <path id="Path_425" data-name="Path 425" d="M3123.391,156.719a12.388,12.388,0,0,1,8.718,21.2,9.2,9.2,0,0,0-2.8-3.721,9.418,9.418,0,0,0-2.86-1.545,4.85,4.85,0,1,0-6.472.13,9.423,9.423,0,0,0-2.495,1.413,9.161,9.161,0,0,0-2.8,3.721,12.386,12.386,0,0,1,8.713-21.2Zm-3.291,12.394a3.038,3.038,0,1,1,3.038,3.039A3.041,3.041,0,0,1,3120.1,169.114Zm3.291,12.4a12.332,12.332,0,0,1-7.241-2.342,7.642,7.642,0,0,1,14.485,0A12.326,12.326,0,0,1,3123.391,181.51Zm-8.911-1.342.074.067a14.39,14.39,0,0,0,2.244,1.468v-.009a14.181,14.181,0,0,0,14.511-.788l.005.006c.313-.211.621-.438.919-.675l.073-.067a14.205,14.205,0,1,0-17.823,0Z" transform="translate(-2558.934 4359.951)" fill-rule="evenodd" fill="url(#linear-gradient-4)"/>
  </g>
</svg>
