<svg xmlns="http://www.w3.org/2000/svg" xmlns:xlink="http://www.w3.org/1999/xlink" width="110.353" height="147.425" viewBox="0 0 110.353 147.425">
  <defs>
    <linearGradient id="linear-gradient" x1="0.5" y1="0.05" x2="0.5" y2="0.977" gradientUnits="objectBoundingBox">
      <stop offset="0" stop-color="#e9477a"/>
      <stop offset="1" stop-color="#862723"/>
    </linearGradient>
    <linearGradient id="linear-gradient-2" x1="0.5" y1="0.975" x2="0.5" y2="0.053" xlink:href="#linear-gradient"/>
    <linearGradient id="linear-gradient-3" x1="0.497" y1="1.365" x2="0.497" y2="-0.275" xlink:href="#linear-gradient"/>
  </defs>
  <g id="Group_2536" data-name="Group 2536" transform="translate(-134.998 -4622.888)">
    <path id="Path_413" data-name="Path 413" d="M991.163,789.786c0,30.474-55.176,92.249-55.176,92.249S880.81,820.26,880.81,789.786a55.176,55.176,0,0,1,110.353,0Z" transform="translate(-745.812 3888.278)" fill-rule="evenodd" fill="url(#linear-gradient)"/>
    <path id="Path_414" data-name="Path 414" d="M1040.308,848.336a40.574,40.574,0,1,1-40.574-40.576A40.573,40.573,0,0,1,1040.308,848.336Z" transform="translate(-809.562 3828.759)" fill-rule="evenodd" fill="url(#linear-gradient-2)"/>
    <path id="Path_415" data-name="Path 415" d="M1081.11,921.575l.63.259.632-.259,3.628-3.638a5.441,5.441,0,1,1-1.275-1.245l-3.613,3.623a.89.89,0,0,0,0,1.26Zm12.472-3.68a12.405,12.405,0,1,1-3.91-6.168l-3.678,3.69a7.24,7.24,0,1,0,1.271,1.249l3.675-3.684a12.383,12.383,0,0,1,2.642,4.916Zm10.1-16.091h-2.853v-2.885a.891.891,0,0,0-1.781,0v3.41l-3.727,3.734a20.379,20.379,0,0,0-28.113,29.494,20.668,20.668,0,0,0,1.886,1.668l-4.906,4.908a.892.892,0,0,0,0,1.262l.632.263.63-.263,5.121-5.121a20.4,20.4,0,0,0,22.153-.03l5.153,5.153.63.263.63-.263a.892.892,0,0,0,0-1.262l-4.942-4.942a20.511,20.511,0,0,0,1.841-1.634,20.4,20.4,0,0,0,3.953-23.26.891.891,0,0,0-1.6.777,18.418,18.418,0,0,1,1.839,8.075,18.6,18.6,0,1,1-6.155-13.822l-3.127,3.134a14.177,14.177,0,1,0,4.86,10.685,14.14,14.14,0,0,0-3.595-9.431l3.768-3.777,0,0,0-.006,4.333-4.342h3.375a.892.892,0,0,0,0-1.783Z" transform="translate(-892.619 3755.311)" fill-rule="evenodd" fill="url(#linear-gradient-3)"/>
  </g>
</svg>
