<svg xmlns="http://www.w3.org/2000/svg" width="76.631" height="12.524" viewBox="0 0 76.631 12.524">
  <path id="Path_778" data-name="Path 778" d="M16199.261,618.959c-3.011.245-4.524,3.208-5.863,5.837-1.278,2.509-2.484,4.879-4.671,4.879s-3.395-2.37-4.667-4.879c-1.4-2.745-2.983-5.856-6.265-5.856s-4.866,3.111-6.268,5.856c-1.274,2.509-2.483,4.879-4.667,4.879s-3.394-2.37-4.672-4.879c-1.4-2.745-2.983-5.856-6.264-5.856s-4.867,3.112-6.264,5.856c-1.279,2.509-2.485,4.879-4.672,4.879s-3.388-2.37-4.666-4.879c-1.4-2.744-2.983-5.856-6.263-5.856s-4.869,3.112-6.266,5.856c-1.274,2.509-2.483,4.879-4.666,4.879a2.9,2.9,0,0,1-.5-.048v1.81c.162.016.328.027.5.027,3.281,0,4.862-3.111,6.264-5.856,1.273-2.509,2.484-4.878,4.668-4.878s3.392,2.369,4.671,4.878c1.4,2.745,2.978,5.856,6.258,5.856s4.868-3.111,6.268-5.856c1.275-2.509,2.48-4.878,4.668-4.878s3.394,2.369,4.673,4.878c1.395,2.745,2.982,5.856,6.263,5.856s4.867-3.111,6.263-5.856c1.28-2.509,2.486-4.878,4.672-4.878s3.389,2.369,4.667,4.878c1.4,2.745,2.983,5.856,6.265,5.856s4.867-3.111,6.263-5.856c1.2-2.349,2.333-4.577,4.271-4.85v-1.8Z" transform="translate(-16122.63 -618.94)" fill="#231f20"/>
</svg>
