<svg width="216" height="251" viewBox="0 0 216 251" fill="none" xmlns="http://www.w3.org/2000/svg">
<g opacity="0.42">
<path d="M166 1.5H50C23.2142 1.5 1.5 23.2142 1.5 50V201C1.5 227.786 23.2142 249.5 50 249.5H166C192.786 249.5 214.5 227.786 214.5 201V50C214.5 23.2142 192.786 1.5 166 1.5Z" stroke="#E2FF9E" stroke-width="3"/>
</g>
<g opacity="0.88">
<path fill-rule="evenodd" clip-rule="evenodd" d="M62.391 151.802C62.3919 153.076 62.4713 154.348 62.629 155.612C62.765 156.858 62.969 158.29 62.969 159.326C63.6379 159.187 64.3149 159.091 64.996 159.037H83.222C84.196 159.037 85.249 159.547 85.249 160.481C85.249 161.181 84.779 161.33 84.383 161.925H63.552C64.158 169.218 73.732 184.783 76.28 184.783H142.821C143.687 184.783 144.706 183.318 145.137 182.757C150.493 175.781 153.251 171.794 155.55 161.925H127.777C123.938 161.925 119.677 162.911 119.677 160.188C119.677 159.174 120.962 159.033 121.993 159.033H154.108C154.789 159.086 155.466 159.183 156.135 159.321C156.135 157.021 156.713 154.469 156.713 152.091C156.659 147.19 155.867 142.324 154.363 137.658C153.726 135.597 152.934 133.587 151.991 131.645C151.491 130.654 151.108 129.845 150.643 128.939L141.309 117.148C139.367 115.348 132.957 110.427 130.964 110.427C123.082 110.427 124.798 108.915 123.031 116.961L114.94 152.262C113.219 159.844 114.702 160.081 105.218 157.873V163.947C103.248 165.266 102.664 164.813 98.854 164.813C98.0929 164.793 97.3683 164.483 96.827 163.947L96.368 150.517C96.1685 148.245 96.1307 145.961 96.255 143.683L95.455 123.362C95.3129 121.074 95.2902 118.779 95.387 116.488C95.37 114.92 95.104 114.778 95.081 113.323C95.024 109.841 96.366 110.423 88.428 110.423C86.05 110.423 80.241 114.856 78.083 116.855C73.1838 121.27 69.2583 126.657 66.5568 132.673C63.8554 138.689 62.4373 145.202 62.393 151.796L62.391 151.802Z" fill="url(#paint0_linear_3_65)"/>
<path fill-rule="evenodd" clip-rule="evenodd" d="M99.421 161.931H102.603C102.603 157.322 102.914 153.76 102.892 149.196L103.459 136.446C103.629 134.379 103.402 131.916 103.465 129.799C103.533 127.534 103.765 127.268 103.765 123.446C103.765 120.921 104.071 119.297 104.059 117.088C104.047 114.879 104.053 112.648 104.053 110.428C95.481 110.428 98 109.428 97.978 115.928C97.9349 118.068 98.0161 120.208 98.221 122.338C98.436 124.257 98.227 126.947 98.249 128.963L99.415 161.933L99.421 161.931Z" fill="url(#paint1_linear_3_65)"/>
<path fill-rule="evenodd" clip-rule="evenodd" d="M108.39 155.855C109.346 156.02 110.313 156.116 111.283 156.145C113.067 148.501 114.839 140.886 116.605 133.117L121.242 112.857C121.955 109.957 122.318 110.435 116.491 110.435C115.149 110.435 115.177 113.085 114.798 115.395C114.47 117.354 114.215 119.217 113.892 121.142C113.292 124.726 108.392 153.405 108.392 155.862L108.39 155.855Z" fill="url(#paint2_linear_3_65)"/>
<path fill-rule="evenodd" clip-rule="evenodd" d="M118.52 93.6515H125.751C125.973 91.7725 126.341 89.9136 126.851 88.0915L130.673 71.3715C127.825 71.3715 124.841 70.5055 121.993 70.5055L119.309 87.7805C118.88 89.7098 118.617 91.6723 118.522 93.6465L118.52 93.6515Z" fill="url(#paint3_linear_3_65)"/>
<path fill-rule="evenodd" clip-rule="evenodd" d="M97.111 93.6515H104.64C104.668 92.3325 104.94 91.3925 104.929 89.6035C104.923 88.0915 104.872 86.4615 104.918 84.9605C104.963 83.4205 105.229 82.7805 105.218 80.9235C105.207 79.3775 105.212 77.8315 105.212 76.2915C94.607 76.2915 96.832 75.2325 96.821 79.7625C96.815 81.2795 96.764 82.8995 96.81 84.4055L97.11 93.6515H97.111Z" fill="url(#paint4_linear_3_65)"/>
<path fill-rule="evenodd" clip-rule="evenodd" d="M105.497 154.982H105.786C105.902 153.106 106.166 151.241 106.573 149.406C106.89 147.506 107.156 145.606 107.439 143.906C108.073 140.067 108.622 136.488 109.257 132.705C109.657 130.361 112.728 112.554 112.728 110.43H106.941L106.573 121.347C106.211 123.974 105.497 154.114 105.497 154.986V154.982Z" fill="url(#paint5_linear_3_65)"/>
<path fill-rule="evenodd" clip-rule="evenodd" d="M87.559 107.822H95.084L94.507 96.2495H83.222C83.335 97.5805 85.668 102.936 86.444 104.889C86.8816 105.841 87.2542 106.821 87.559 107.822V107.822Z" fill="url(#paint6_linear_3_65)"/>
<path fill-rule="evenodd" clip-rule="evenodd" d="M125.173 107.822H131.537C132.124 105.888 132.843 103.996 133.689 102.16C134.21 100.852 135.784 97.4095 135.88 96.2495H127.78L125.173 107.822Z" fill="url(#paint7_linear_3_65)"/>
<path fill-rule="evenodd" clip-rule="evenodd" d="M106.946 107.824H113.31C113.61 104.224 115.048 100.033 115.048 96.2505C106.385 96.2505 107.172 95.6225 107.217 98.5505C107.28 102.552 106.946 104.489 106.946 107.824Z" fill="url(#paint8_linear_3_65)"/>
<path fill-rule="evenodd" clip-rule="evenodd" d="M97.4 99.4375C97.4 102.62 97.689 104.681 97.689 107.829H104.342L104.631 96.2555H97.4V99.4375V99.4375Z" fill="url(#paint9_linear_3_65)"/>
<path fill-rule="evenodd" clip-rule="evenodd" d="M116.204 107.822C123.457 107.822 122.155 109.136 123.604 102.494L124.884 96.2495H117.944C117.637 99.9075 116.204 103.955 116.204 107.822Z" fill="url(#paint10_linear_3_65)"/>
<path fill-rule="evenodd" clip-rule="evenodd" d="M54 105.802C54 113.089 62.68 111.441 62.68 106.38C62.68 100.831 54 100.7 54 105.802Z" fill="url(#paint11_linear_3_65)"/>
<path fill-rule="evenodd" clip-rule="evenodd" d="M153.528 83.5215C153.528 88.6905 162.208 90.1575 162.208 82.9435C162.208 78.0745 153.528 77.9045 153.528 83.5215Z" fill="url(#paint12_linear_3_65)"/>
<path fill-rule="evenodd" clip-rule="evenodd" d="M79.463 70.7935C79.8593 70.8201 80.2568 70.765 80.6309 70.6316C81.0051 70.4982 81.3478 70.2894 81.6379 70.0181C81.928 69.7468 82.1592 69.4188 82.3174 69.0545C82.4755 68.6901 82.5571 68.2972 82.5571 67.9C82.5571 67.5028 82.4755 67.1099 82.3174 66.7455C82.1592 66.3812 81.928 66.0532 81.6379 65.7819C81.3478 65.5106 81.0051 65.3018 80.6309 65.1684C80.2568 65.035 79.8593 64.9799 79.463 65.0065C75.895 65.0065 75.821 70.7935 79.463 70.7935Z" fill="url(#paint13_linear_3_65)"/>
</g>
<defs>
<linearGradient id="paint0_linear_3_65" x1="109.552" y1="110.315" x2="109.552" y2="184.783" gradientUnits="userSpaceOnUse">
<stop stop-color="#CCE78F"/>
<stop offset="1" stop-color="#709423"/>
</linearGradient>
<linearGradient id="paint1_linear_3_65" x1="100.854" y1="110.373" x2="100.854" y2="161.933" gradientUnits="userSpaceOnUse">
<stop stop-color="#CCE78F"/>
<stop offset="1" stop-color="#709423"/>
</linearGradient>
<linearGradient id="paint2_linear_3_65" x1="115.011" y1="110.405" x2="115.011" y2="156.145" gradientUnits="userSpaceOnUse">
<stop stop-color="#CCE78F"/>
<stop offset="1" stop-color="#709423"/>
</linearGradient>
<linearGradient id="paint3_linear_3_65" x1="124.596" y1="70.5055" x2="124.596" y2="93.6515" gradientUnits="userSpaceOnUse">
<stop stop-color="#CCE78F"/>
<stop offset="1" stop-color="#709423"/>
</linearGradient>
<linearGradient id="paint4_linear_3_65" x1="100.926" y1="76.184" x2="100.926" y2="93.6515" gradientUnits="userSpaceOnUse">
<stop stop-color="#CCE78F"/>
<stop offset="1" stop-color="#709423"/>
</linearGradient>
<linearGradient id="paint5_linear_3_65" x1="109.112" y1="110.43" x2="109.112" y2="154.986" gradientUnits="userSpaceOnUse">
<stop stop-color="#CCE78F"/>
<stop offset="1" stop-color="#709423"/>
</linearGradient>
<linearGradient id="paint6_linear_3_65" x1="89.153" y1="96.2495" x2="89.153" y2="107.822" gradientUnits="userSpaceOnUse">
<stop stop-color="#CCE78F"/>
<stop offset="1" stop-color="#709423"/>
</linearGradient>
<linearGradient id="paint7_linear_3_65" x1="130.527" y1="96.2495" x2="130.527" y2="107.822" gradientUnits="userSpaceOnUse">
<stop stop-color="#CCE78F"/>
<stop offset="1" stop-color="#709423"/>
</linearGradient>
<linearGradient id="paint8_linear_3_65" x1="110.997" y1="96.1939" x2="110.997" y2="107.824" gradientUnits="userSpaceOnUse">
<stop stop-color="#CCE78F"/>
<stop offset="1" stop-color="#709423"/>
</linearGradient>
<linearGradient id="paint9_linear_3_65" x1="101.015" y1="96.2555" x2="101.015" y2="107.829" gradientUnits="userSpaceOnUse">
<stop stop-color="#CCE78F"/>
<stop offset="1" stop-color="#709423"/>
</linearGradient>
<linearGradient id="paint10_linear_3_65" x1="120.544" y1="96.2495" x2="120.544" y2="107.928" gradientUnits="userSpaceOnUse">
<stop stop-color="#CCE78F"/>
<stop offset="1" stop-color="#709423"/>
</linearGradient>
<linearGradient id="paint11_linear_3_65" x1="58.34" y1="102.092" x2="58.34" y2="110.73" gradientUnits="userSpaceOnUse">
<stop stop-color="#CCE78F"/>
<stop offset="1" stop-color="#709423"/>
</linearGradient>
<linearGradient id="paint12_linear_3_65" x1="157.868" y1="79.2988" x2="157.868" y2="87.8821" gradientUnits="userSpaceOnUse">
<stop stop-color="#CCE78F"/>
<stop offset="1" stop-color="#709423"/>
</linearGradient>
<linearGradient id="paint13_linear_3_65" x1="79.6581" y1="65" x2="79.6581" y2="70.8" gradientUnits="userSpaceOnUse">
<stop stop-color="#CCE78F"/>
<stop offset="1" stop-color="#709423"/>
</linearGradient>
</defs>
</svg>
