<svg width="216" height="251" viewBox="0 0 216 251" fill="none" xmlns="http://www.w3.org/2000/svg">
<g opacity="0.42">
<path d="M166 1.5H50C23.2142 1.5 1.5 23.2142 1.5 50V201C1.5 227.786 23.2142 249.5 50 249.5H166C192.786 249.5 214.5 227.786 214.5 201V50C214.5 23.2142 192.786 1.5 166 1.5Z" stroke="#F7D630" stroke-width="3"/>
</g>
<g opacity="0.88">
<path fill-rule="evenodd" clip-rule="evenodd" d="M148.594 167.084V106.94C148.564 106.438 148.637 105.935 148.809 105.463C148.98 104.99 149.247 104.558 149.591 104.192C149.936 103.826 150.352 103.534 150.814 103.335C151.275 103.136 151.773 103.033 152.275 103.033C152.778 103.033 153.276 103.136 153.737 103.335C154.199 103.534 154.615 103.826 154.96 104.192C155.304 104.558 155.571 104.99 155.742 105.463C155.914 105.935 155.987 106.438 155.957 106.94V167.083C155.957 172.914 148.594 172.914 148.594 167.084ZM160.106 188.684H159.351C158.489 188.672 157.663 188.338 157.035 187.747C156.408 187.156 156.024 186.352 155.96 185.492V181.321H109.317V185.495C109.256 186.362 108.868 187.173 108.233 187.765C107.597 188.357 106.761 188.687 105.892 188.687H105.208C104.512 188.656 103.841 188.413 103.287 187.99C102.733 187.567 102.322 186.985 102.108 186.321C101.653 184.968 101.95 182.862 101.95 181.321C99.9697 181.058 98.1549 180.078 96.85 178.565C96.1369 177.869 95.5696 177.038 95.1812 176.121C94.7928 175.203 94.5912 174.217 94.588 173.221V100.806C94.8421 98.5608 95.9268 96.4919 97.629 95.006C99.4861 93.5524 101.807 92.8209 104.162 92.947H161.113C163.526 92.835 165.898 93.6041 167.786 95.111C169.4 96.6016 170.429 98.6199 170.686 100.802V173.221C170.686 177.705 167.215 180.414 163.323 181.321C163.323 182.931 163.586 185.306 163.097 186.495C162.857 187.106 162.448 187.636 161.919 188.024C161.389 188.412 160.761 188.642 160.106 188.687V188.684ZM109.317 167.084V106.94C109.287 106.438 109.36 105.935 109.532 105.463C109.703 104.99 109.97 104.558 110.314 104.192C110.659 103.826 111.075 103.534 111.537 103.335C111.998 103.136 112.496 103.033 112.999 103.033C113.501 103.033 113.999 103.136 114.46 103.335C114.922 103.534 115.338 103.826 115.683 104.192C116.027 104.558 116.294 104.99 116.465 105.463C116.637 105.935 116.71 106.438 116.68 106.94V167.083C116.68 172.914 109.317 172.914 109.317 167.084V167.084Z" fill="url(#paint0_linear_3_69)"/>
<path fill-rule="evenodd" clip-rule="evenodd" d="M59.729 167.084V131.733C59.729 127.321 63.816 126.348 66.064 128.587C66.4418 129.013 66.728 129.512 66.9049 130.053C67.0817 130.594 67.1454 131.166 67.092 131.733V167.084C67.092 172.914 59.729 172.914 59.729 167.084ZM56.3 188.689H55.62C54.9236 188.658 54.2534 188.415 53.6993 187.992C53.1452 187.569 52.7337 186.987 52.52 186.323C52.065 184.97 52.362 182.864 52.362 181.323C50.3817 181.06 48.5668 180.08 47.262 178.567C46.549 177.871 45.9818 177.04 45.5934 176.123C45.205 175.206 45.0033 174.22 45 173.224V125.599C45.107 123.485 45.9948 121.487 47.4913 119.99C48.9877 118.494 50.9864 117.606 53.1 117.499H87.222V171.999C87.222 177.848 89.197 179.266 89.677 181.328H59.729V185.502C59.6665 186.368 59.278 187.179 58.6417 187.77C58.0054 188.362 57.1687 188.69 56.3 188.689V188.689Z" fill="url(#paint1_linear_3_69)"/>
<path fill-rule="evenodd" clip-rule="evenodd" d="M116.68 71.837V85.829H124.043V72.818C124.039 72.4945 124.1 72.1735 124.222 71.8739C124.344 71.5743 124.525 71.3021 124.753 71.0734C124.982 70.8446 125.254 70.6639 125.554 70.542C125.854 70.42 126.175 70.3591 126.498 70.363H138.772C139.095 70.3591 139.416 70.42 139.716 70.542C140.016 70.6639 140.288 70.8446 140.517 71.0734C140.745 71.3021 140.926 71.5743 141.048 71.8739C141.17 72.1735 141.231 72.4945 141.227 72.818V85.829H148.59V71.837C148.59 67.527 144.237 63 139.753 63H125.517C121.139 63 116.68 67.459 116.68 71.837Z" fill="url(#paint2_linear_3_69)"/>
<path fill-rule="evenodd" clip-rule="evenodd" d="M72.003 103.751V110.133H79.366C79.366 101.203 78.536 102.278 87.221 102.278C87.221 97.813 88.537 96.562 88.695 94.667C84.332 94.667 80.019 94.237 77.071 95.81C75.6104 96.5804 74.3751 97.7173 73.4865 99.1091C72.5978 100.501 72.0863 102.1 72.002 103.749L72.003 103.751Z" fill="url(#paint3_linear_3_69)"/>
</g>
<defs>
<linearGradient id="paint0_linear_3_69" x1="132.637" y1="92.933" x2="132.637" y2="188.687" gradientUnits="userSpaceOnUse">
<stop stop-color="#F7D630"/>
<stop offset="1" stop-color="#F8EEBC"/>
</linearGradient>
<linearGradient id="paint1_linear_3_69" x1="67.3385" y1="117.499" x2="67.3385" y2="188.689" gradientUnits="userSpaceOnUse">
<stop stop-color="#F7D630"/>
<stop offset="1" stop-color="#F8EEBC"/>
</linearGradient>
<linearGradient id="paint2_linear_3_69" x1="132.635" y1="63" x2="132.635" y2="85.829" gradientUnits="userSpaceOnUse">
<stop stop-color="#F7D630"/>
<stop offset="1" stop-color="#F8EEBC"/>
</linearGradient>
<linearGradient id="paint3_linear_3_69" x1="80.3485" y1="94.6133" x2="80.3485" y2="110.133" gradientUnits="userSpaceOnUse">
<stop stop-color="#F7D630"/>
<stop offset="1" stop-color="#F8EEBC"/>
</linearGradient>
</defs>
</svg>
