<svg width="216" height="251" viewBox="0 0 216 251" fill="none" xmlns="http://www.w3.org/2000/svg">
<g opacity="0.42">
<path d="M166 1.5H50C23.2142 1.5 1.5 23.2142 1.5 50V201C1.5 227.786 23.2142 249.5 50 249.5H166C192.786 249.5 214.5 227.786 214.5 201V50C214.5 23.2142 192.786 1.5 166 1.5Z" stroke="#B9D8FF" stroke-width="3"/>
</g>
<g opacity="0.88">
<path fill-rule="evenodd" clip-rule="evenodd" d="M138.972 181.371C138.628 179.883 137.642 178.842 137.608 177.271L152.632 170.989C152.976 172.477 153.962 173.518 153.996 175.089L138.972 181.371ZM128.045 177.002C127.701 175.515 126.715 174.473 126.681 172.902C127.968 172.533 129.217 172.045 130.413 171.444L157.002 160.07C157.346 161.558 158.332 162.599 158.366 164.17C156.836 164.527 137.915 172.77 135.705 173.737C134.455 174.285 133.159 174.817 131.88 175.377C130.673 175.908 129.236 176.44 128.051 177.009L128.045 177.002ZM128.045 168.26C127.64 166.929 127.09 165.646 126.404 164.435C131.636 161.668 143.829 156.683 150.438 153.508C150.844 154.839 151.394 156.122 152.079 157.333C148.024 159.479 135.321 164.933 129.592 167.622C128.967 167.915 128.58 168 128.045 168.26V168.26ZM97.1824 149.687V142.314C98.4689 142.74 99.7861 143.067 101.122 143.292C102.695 143.641 103.927 143.892 105.376 144.227V151.057C102.167 148.911 103.701 146.242 97.1824 149.693V149.687ZM52.6634 121.557C53.2164 120.805 53.0464 121.089 54.0494 120.757L96.0554 106.771C114.16 100.736 107.879 101.123 117.632 104.11C119.961 104.824 122.132 105.517 124.458 106.299C126.685 107.047 129.006 107.719 131.288 108.484L138.152 110.635C138.152 112.148 138.836 116.917 135.419 116.917C134.637 116.917 124.858 112.556 123.247 111.885C121.109 110.985 119.167 110.079 117.123 109.271C110.416 106.627 111.976 106.045 107.293 107.907C106.137 108.366 104.849 108.825 103.706 109.237L66.3484 123.503C63.5904 124.515 64.6614 124.421 60.6364 123.414C59.0854 123.027 53.8494 121.582 52.6594 121.557H52.6634ZM149.627 71.0283C149.723 69.5623 149.906 68.1034 150.175 66.6593C151.11 67.2883 150.932 67.3863 151.62 68.2153L154.476 71.3693C155.131 72.0693 155.258 72.4273 155.976 73.1503C156.466 73.6656 156.927 74.2078 157.357 74.7743L167.591 86.3943C169.215 87.9713 168.751 88.5833 168.747 91.5203V147.511C166.678 146.95 164.581 146.494 162.465 146.147C162.465 144.774 162.771 141.82 162.937 140.609C163.375 137.375 163.213 133.448 163.757 129.409L164.926 112.553C164.994 111.082 165.274 108.464 165.426 107.045C165.639 105.056 165.643 103.352 165.74 101.345C165.812 99.8113 166.152 97.3803 166.271 95.8673C166.352 94.8213 166.241 94.0563 166.403 92.9943C166.558 92.0493 166.617 91.091 166.577 90.1343C166.477 88.0943 163.3 85.6593 161.167 83.5253L152.156 74.5213C151.293 73.6583 149.631 72.5213 149.631 71.0403L149.627 71.0283ZM144.982 71.3003C144.982 74.6413 149.87 78.5083 152.836 81.4753C153.814 82.4533 161.918 90.3113 161.918 90.6933C161.944 92.9494 161.828 95.2049 161.569 97.4463C161.293 99.5163 161.263 101.968 161.08 104.335L159.473 124.578C159.29 126.941 159.265 129.398 158.984 131.467C158.678 133.749 158.861 136.117 158.521 138.378C158.22 140.681 158.077 143.001 158.092 145.323C149.092 143.223 135.516 140.78 126.021 138.88C122.328 138.14 117.47 136.853 113.845 136.853C109.799 136.853 108.634 140.206 106.73 139.909L97.5504 137.848C95.6674 137.117 97.5334 136.522 94.5244 133.5C91.6004 130.563 88.7954 130.453 84.2354 129.314C82.2034 128.808 73.6444 126.5 72.3264 126.475V125.921C74.3364 125.453 102.076 114.714 103.657 114.097C105.008 113.566 106.057 113.162 107.401 112.652C111.413 111.126 109.951 111.062 115.201 113.362C117.653 114.437 132.885 121.276 134.601 121.276C137.708 121.276 140.496 120.545 141.983 117.187C142.761 115.436 142.518 112.529 142.518 110.349C142.518 106.617 138.952 106.209 136.338 105.33L115.036 98.5093C109.136 96.5843 111.678 96.8263 101.929 100.077C91.2024 103.655 76.8664 108.021 67.0964 111.675C64.1344 112.784 61.3414 113.532 58.2264 114.548C55.2554 115.521 52.5024 116.521 49.6584 117.455L43.1344 119.669C42.7661 119.816 42.4566 120.08 42.2537 120.42C42.0508 120.761 41.966 121.159 42.0124 121.552V146.406C42.221 150.326 43.2093 154.166 44.9194 157.699C46.4895 160.729 48.4721 163.527 50.8104 166.012C56.0214 170.883 63.1954 174.538 70.6924 174.538C75.3924 174.538 78.6924 174.572 83.0814 172.447C87.665 170.391 91.467 166.916 93.9274 162.536C94.8544 161.002 96.6434 157.266 96.6434 154.873L100.743 152.965C101.612 153.634 102.412 154.387 103.132 155.213C107.408 159.484 104.118 156.994 106.592 165.685C109.44 175.698 114.943 181.393 123.086 186.336C130.362 190.756 137.965 190.378 146.359 190.378C160.278 190.378 173.126 177.53 173.126 163.611V86.3113C173.126 85.4113 161.702 72.9113 161.188 72.2993L154.354 64.3853C152.602 62.5703 152.266 62.0013 149.902 62.0013C148.98 61.978 148.077 62.2747 147.348 62.841C146.619 63.4073 146.108 64.2083 145.902 65.1083C145.368 67.1292 145.06 69.2033 144.984 71.2923L144.982 71.3003Z" fill="url(#paint0_linear_3_68)"/>
</g>
<defs>
<linearGradient id="paint0_linear_3_68" x1="107.563" y1="62" x2="107.563" y2="190.386" gradientUnits="userSpaceOnUse">
<stop stop-color="#B9D8FF"/>
<stop offset="1" stop-color="#3E68A0"/>
</linearGradient>
</defs>
</svg>
