<svg xmlns="http://www.w3.org/2000/svg" xmlns:xlink="http://www.w3.org/1999/xlink" width="125.687" height="125.693" viewBox="0 0 125.687 125.693">
  <defs>
    <linearGradient id="linear-gradient" x1="0.5" x2="0.5" y2="1" gradientUnits="objectBoundingBox">
      <stop offset="0" stop-color="#f7d630"/>
      <stop offset="1" stop-color="#f8eebc"/>
    </linearGradient>
  </defs>
  <g id="Layer_x0020_1" opacity="0.88">
    <g id="_2265437386384" transform="translate(0 0)">
      <path id="Path_679" data-name="Path 679" d="M214.156,170.863V110.719a3.688,3.688,0,1,1,7.363,0v60.143C221.519,176.693,214.156,176.693,214.156,170.863Zm11.512,21.6h-.755a3.448,3.448,0,0,1-3.391-3.192V185.1H174.879v4.174a3.434,3.434,0,0,1-3.425,3.192h-.684a3.417,3.417,0,0,1-3.1-2.366c-.455-1.353-.158-3.459-.158-5a8.151,8.151,0,0,1-5.1-2.756A7.5,7.5,0,0,1,160.15,177V104.585a9.05,9.05,0,0,1,3.041-5.8,9.753,9.753,0,0,1,6.533-2.059h56.951a9.958,9.958,0,0,1,6.673,2.164,9.214,9.214,0,0,1,2.9,5.691V177c0,4.484-3.471,7.193-7.363,8.1,0,1.61.263,3.985-.226,5.174a3.47,3.47,0,0,1-2.991,2.192Zm-50.789-21.6V110.719a3.688,3.688,0,1,1,7.363,0v60.143C182.242,176.693,174.879,176.693,174.879,170.863Z" transform="translate(-110.562 -66.779)" fill-rule="evenodd" fill="url(#linear-gradient)"/>
      <path id="Path_680" data-name="Path 680" d="M14.729,225.595V190.244c0-4.412,4.087-5.385,6.335-3.146a4.154,4.154,0,0,1,1.028,3.146v35.351C22.092,231.425,14.729,231.425,14.729,225.595ZM11.3,247.2H10.62a3.417,3.417,0,0,1-3.1-2.366c-.455-1.353-.158-3.459-.158-5a8.151,8.151,0,0,1-5.1-2.756A7.5,7.5,0,0,1,0,231.735V184.11a8.543,8.543,0,0,1,8.1-8.1H42.222v54.5c0,5.849,1.975,7.267,2.455,9.329H14.729v4.174A3.434,3.434,0,0,1,11.3,247.2Z" transform="translate(0 -121.511)" fill-rule="evenodd" fill="url(#linear-gradient)"/>
      <path id="Path_681" data-name="Path 681" d="M231.5,8.837V22.829h7.363V9.818a2.426,2.426,0,0,1,2.455-2.455h12.274a2.426,2.426,0,0,1,2.455,2.455V22.829h7.363V8.837c0-4.31-4.353-8.837-8.837-8.837H240.337c-4.378,0-8.837,4.459-8.837,8.837Z" transform="translate(-159.82 0)" fill-rule="evenodd" fill="url(#linear-gradient)"/>
      <path id="Path_682" data-name="Path 682" d="M87.21,111.235v6.382h7.363c0-8.93-.83-7.855,7.855-7.855,0-4.465,1.316-5.716,1.474-7.611-4.363,0-8.676-.43-11.624,1.143a9.525,9.525,0,0,0-5.069,7.939Z" transform="translate(-60.207 -70.484)" fill-rule="evenodd" fill="url(#linear-gradient)"/>
    </g>
  </g>
</svg>
