<svg xmlns="http://www.w3.org/2000/svg" xmlns:xlink="http://www.w3.org/1999/xlink" width="108.208" height="119.776" viewBox="0 0 108.208 119.776">
  <defs>
    <linearGradient id="linear-gradient" x1="0.5" x2="0.5" y2="1" gradientUnits="objectBoundingBox">
      <stop offset="0" stop-color="#cce78f"/>
      <stop offset="1" stop-color="#709423"/>
    </linearGradient>
  </defs>
  <g id="Layer_x0020_1" opacity="0.88">
    <g id="_2265439201376">
      <path id="Path_665" data-name="Path 665" d="M14.82,121.507a30.961,30.961,0,0,0,.238,3.811c.136,1.246.34,2.678.34,3.714a16.168,16.168,0,0,1,2.027-.289H35.651c.974,0,2.027.51,2.027,1.444,0,.7-.47.849-.866,1.444H15.981c.606,7.293,10.18,22.858,12.728,22.858H95.25c.866,0,1.885-1.466,2.316-2.027,5.356-6.976,8.114-10.962,10.413-20.831H80.206c-3.839,0-8.1.985-8.1-1.738,0-1.014,1.285-1.155,2.316-1.155h32.115a16.324,16.324,0,0,1,2.027.289c0-2.3.578-4.852.578-7.23a48.8,48.8,0,0,0-2.35-14.433,42.4,42.4,0,0,0-2.372-6.013c-.5-.991-.883-1.8-1.348-2.706L93.738,86.854c-1.942-1.8-8.352-6.721-10.345-6.721-7.882,0-6.166-1.512-7.933,6.534l-8.091,35.3c-1.721,7.582-.238,7.819-9.722,5.611v6.075c-1.97,1.319-2.554.866-6.364.866a3,3,0,0,1-2.027-.866l-.459-13.43a48.135,48.135,0,0,1-.113-6.834l-.8-20.321a65.964,65.964,0,0,1-.068-6.874c-.017-1.568-.283-1.71-.306-3.165-.057-3.482,1.285-2.9-6.653-2.9-2.378,0-8.187,4.433-10.345,6.432a47.462,47.462,0,0,0-15.69,34.941Z" transform="translate(-6.429 -34.712)" fill-rule="evenodd" fill="url(#linear-gradient)"/>
      <path id="Path_666" data-name="Path 666" d="M78.862,131.684h3.182c0-4.609.311-8.17.289-12.734L82.9,106.2c.17-2.067-.057-4.53.006-6.647.068-2.265.3-2.531.3-6.353,0-2.525.306-4.15.294-6.359s-.006-4.439-.006-6.659c-8.572,0-6.053-1-6.075,5.5a55.3,55.3,0,0,0,.243,6.409c.215,1.919.006,4.609.028,6.625l1.166,32.97Z" transform="translate(-33.441 -34.76)" fill-rule="evenodd" fill="url(#linear-gradient)"/>
      <path id="Path_667" data-name="Path 667" d="M96.06,125.629a20.674,20.674,0,0,0,2.893.289c1.784-7.644,3.556-15.259,5.322-23.028l4.637-20.259c.713-2.9,1.076-2.423-4.751-2.423-1.342,0-1.314,2.65-1.693,4.96-.328,1.959-.583,3.822-.906,5.747-.6,3.584-5.5,32.263-5.5,34.72Z" transform="translate(-41.67 -34.78)" fill-rule="evenodd" fill="url(#linear-gradient)"/>
      <path id="Path_668" data-name="Path 668" d="M113.95,32.857h7.231a36.6,36.6,0,0,1,1.1-5.56l3.822-16.72c-2.848,0-5.832-.866-8.68-.866l-2.684,17.275a34.682,34.682,0,0,0-.787,5.866Z" transform="translate(-49.43 -4.212)" fill-rule="evenodd" fill="url(#linear-gradient)"/>
      <path id="Path_669" data-name="Path 669" d="M75.771,37.208H83.3c.028-1.319.3-2.259.289-4.048-.006-1.512-.057-3.142-.011-4.643.045-1.54.311-2.18.3-4.037-.011-1.546-.006-3.092-.006-4.632-10.605,0-8.38-1.059-8.391,3.471-.006,1.517-.057,3.137-.011,4.643l.3,9.246Z" transform="translate(-32.66 -8.563)" fill-rule="evenodd" fill="url(#linear-gradient)"/>
      <path id="Path_670" data-name="Path 670" d="M90.95,124.779h.289a36.051,36.051,0,0,1,.787-5.577c.317-1.9.583-3.8.866-5.5.634-3.839,1.183-7.417,1.818-11.2.4-2.344,3.471-20.151,3.471-22.275H92.394l-.368,10.917c-.362,2.627-1.076,32.767-1.076,33.639Z" transform="translate(-39.453 -34.803)" fill-rule="evenodd" fill="url(#linear-gradient)"/>
      <path id="Path_671" data-name="Path 671" d="M55.947,66.753h7.525L62.895,55.18H51.61c.113,1.331,2.446,6.687,3.222,8.64A23.125,23.125,0,0,1,55.947,66.753Z" transform="translate(-22.388 -23.937)" fill-rule="evenodd" fill="url(#linear-gradient)"/>
      <path id="Path_672" data-name="Path 672" d="M125.7,66.753h6.364a44.272,44.272,0,0,1,2.152-5.662c.521-1.308,2.095-4.751,2.191-5.911h-8.1Z" transform="translate(-54.527 -23.937)" fill-rule="evenodd" fill="url(#linear-gradient)"/>
      <path id="Path_673" data-name="Path 673" d="M93.51,66.71h6.364c.3-3.6,1.738-7.791,1.738-11.573-8.663,0-7.876-.628-7.831,2.3C93.844,61.438,93.51,63.375,93.51,66.71Z" transform="translate(-40.564 -23.893)" fill-rule="evenodd" fill="url(#linear-gradient)"/>
      <path id="Path_674" data-name="Path 674" d="M76.65,58.372c0,3.182.289,5.243.289,8.391h6.653l.289-11.573H76.65v3.182Z" transform="translate(-33.25 -23.941)" fill-rule="evenodd" fill="url(#linear-gradient)"/>
      <path id="Path_675" data-name="Path 675" d="M109.86,66.753c7.253,0,5.951,1.314,7.4-5.328l1.28-6.245H111.6C111.293,58.838,109.86,62.886,109.86,66.753Z" transform="translate(-47.656 -23.937)" fill-rule="evenodd" fill="url(#linear-gradient)"/>
      <path id="Path_676" data-name="Path 676" d="M0,69.208c0,7.287,8.68,5.639,8.68.578C8.68,64.237,0,64.106,0,69.208Z" transform="translate(0 -28.413)" fill-rule="evenodd" fill="url(#linear-gradient)"/>
      <path id="Path_677" data-name="Path 677" d="M175.78,29.465c0,5.169,8.68,6.636,8.68-.578C184.46,24.018,175.78,23.848,175.78,29.465Z" transform="translate(-76.252 -10.95)" fill-rule="evenodd" fill="url(#linear-gradient)"/>
      <path id="Path_678" data-name="Path 678" d="M42.9,5.787A2.9,2.9,0,1,0,42.9,0C39.332,0,39.258,5.787,42.9,5.787Z" transform="translate(-17.437)" fill-rule="evenodd" fill="url(#linear-gradient)"/>
    </g>
  </g>
</svg>
