<svg xmlns="http://www.w3.org/2000/svg" xmlns:xlink="http://www.w3.org/1999/xlink" width="131.109" height="128.384" viewBox="0 0 131.109 128.384">
  <defs>
    <linearGradient id="linear-gradient" x1="0.5" x2="0.5" y2="1" gradientUnits="objectBoundingBox">
      <stop offset="0" stop-color="#b9d8ff"/>
      <stop offset="1" stop-color="#3e68a0"/>
    </linearGradient>
  </defs>
  <g id="Layer_x0020_1" opacity="0.88">
    <path id="Path_683" data-name="Path 683" d="M96.97,119.35c-.344-1.488-1.33-2.529-1.364-4.1l15.024-6.282c.344,1.488,1.33,2.529,1.364,4.1L96.97,119.35Zm-10.927-4.369c-.344-1.487-1.33-2.529-1.364-4.1a21.6,21.6,0,0,0,3.732-1.458L115,98.049c.344,1.488,1.33,2.529,1.364,4.1-1.53.357-20.451,8.6-22.661,9.567-1.25.548-2.546,1.08-3.825,1.64-1.207.531-2.644,1.063-3.829,1.632Zm0-8.742a19.037,19.037,0,0,0-1.641-3.825c5.232-2.767,17.425-7.752,24.034-10.927a19.038,19.038,0,0,0,1.641,3.825c-4.055,2.146-16.758,7.6-22.487,10.289-.625.293-1.012.378-1.547.638ZM55.18,87.666V80.293a26.669,26.669,0,0,0,3.94.978c1.573.349,2.805.6,4.254.935v6.83c-3.209-2.146-1.675-4.815-8.194-1.364ZM10.661,59.536c.553-.752.383-.468,1.386-.8L54.053,44.75c18.105-6.035,11.824-5.648,21.577-2.661,2.329.714,4.5,1.407,6.826,2.189,2.227.748,4.548,1.42,6.83,2.185l6.864,2.151c0,1.513.684,6.282-2.733,6.282-.782,0-10.561-4.361-12.172-5.032-2.138-.9-4.08-1.806-6.124-2.614-6.707-2.644-5.147-3.226-9.83-1.364-1.156.459-2.444.918-3.587,1.33L24.346,61.482c-2.758,1.012-1.687.918-5.712-.089-1.551-.387-6.787-1.832-7.977-1.857ZM107.625,9.007a36.8,36.8,0,0,1,.548-4.369c.935.629.757.727,1.445,1.556l2.856,3.154c.655.7.782,1.058,1.5,1.781a19.182,19.182,0,0,1,1.381,1.624l10.234,11.62c1.624,1.577,1.16,2.189,1.156,5.126V85.49a62.818,62.818,0,0,0-6.282-1.364c0-1.373.306-4.327.472-5.538.438-3.234.276-7.161.82-11.2l1.169-16.856c.068-1.471.348-4.089.5-5.508.213-1.989.217-3.693.314-5.7.072-1.534.412-3.965.531-5.478.081-1.046-.03-1.811.132-2.873a14.1,14.1,0,0,0,.174-2.86c-.1-2.04-3.277-4.475-5.41-6.609L110.154,12.5c-.863-.863-2.525-2-2.525-3.481Zm-4.645.272c0,3.341,4.888,7.208,7.854,10.175.978.978,9.082,8.836,9.082,9.218a53.541,53.541,0,0,1-.349,6.753c-.276,2.07-.306,4.522-.489,6.889l-1.607,20.243c-.183,2.363-.208,4.82-.489,6.889-.306,2.282-.123,4.65-.463,6.911a50.916,50.916,0,0,0-.429,6.945c-9-2.1-22.576-4.543-32.071-6.443-3.693-.74-8.551-2.027-12.176-2.027-4.046,0-5.211,3.353-7.115,3.056l-9.18-2.061c-1.883-.731-.017-1.326-3.026-4.348-2.924-2.937-5.729-3.047-10.289-4.186-2.032-.506-10.591-2.814-11.909-2.839V63.9c2.01-.468,29.75-11.207,31.331-11.824,1.351-.531,2.4-.935,3.744-1.445,4.012-1.526,2.55-1.59,7.8.71,2.452,1.075,17.684,7.914,19.4,7.914,3.107,0,5.895-.731,7.382-4.089.778-1.751.535-4.658.535-6.838,0-3.732-3.566-4.14-6.18-5.019L73.034,36.488c-5.9-1.925-3.358-1.683-13.107,1.568C49.2,41.634,34.864,46,25.094,49.654c-2.962,1.109-5.755,1.857-8.87,2.873C13.253,53.5,10.5,54.5,7.656,55.434L1.132,57.648A1.8,1.8,0,0,0,.01,59.531V84.385A29.526,29.526,0,0,0,2.917,95.678a36.933,36.933,0,0,0,5.891,8.313c5.211,4.871,12.385,8.526,19.882,8.526,4.7,0,8,.034,12.389-2.091a23.45,23.45,0,0,0,10.846-9.911c.927-1.534,2.716-5.27,2.716-7.663l4.1-1.908a16.677,16.677,0,0,1,2.389,2.248c4.276,4.271.986,1.781,3.46,10.472,2.848,10.013,8.351,15.708,16.494,20.651,7.276,4.42,14.879,4.042,23.273,4.042,13.919,0,26.767-12.848,26.767-26.767V24.29c0-.9-11.424-13.4-11.938-14.012l-6.834-7.914C110.6.549,110.264-.02,107.9-.02a4,4,0,0,0-4,3.107,28.19,28.19,0,0,0-.918,6.184Z" transform="translate(-0.01 0.02)" fill-rule="evenodd" fill="url(#linear-gradient)"/>
  </g>
</svg>
