<svg xmlns="http://www.w3.org/2000/svg" xmlns:xlink="http://www.w3.org/1999/xlink" width="131.584" height="125.393" viewBox="0 0 131.584 125.393">
  <defs>
    <linearGradient id="linear-gradient" x1="0.5" x2="0.5" y2="1" gradientUnits="objectBoundingBox">
      <stop offset="0" stop-color="#ffb0fa"/>
      <stop offset="1" stop-color="#cf78c9"/>
    </linearGradient>
  </defs>
  <g id="Layer_x0020_1" opacity="0.88">
    <g id="_2230768455456" transform="translate(0)">
      <path id="Path_656" data-name="Path 656" d="M113.756,128.108a10.434,10.434,0,0,1-3.165,1.15c-.257-.96-1.605-2.394-2.259-3.206a23.591,23.591,0,0,0-6.389-4.829c-2.263-1.186-1.235-2.922-.338-3.26,1.592-.6,5.771,2.777,7.011,3.774,1.307,1.055,4.693,4.725,5.135,6.371ZM.152,109.988c-1.339,5.739,6.375,12.241,10.726,14.869,14.4,8.693,34.076,12.453,50.816,12.453,15.712,0,25.2-.3,40.366-4.784.884-.262,1.339-.464,2.16-.717l6.65-2.263c.212.8,1.177,2.363,1.646,3.53a28.29,28.29,0,0,1,1.231,4.234l-10.239,6.731c-.843.559-2.989,1.722-2.989,2.759v33.075a6.172,6.172,0,0,0,5.753,5.753H125.83a6.172,6.172,0,0,0,5.753-5.753V146.8c0-1.483-13.526-9.869-14.378-10.068a99.438,99.438,0,0,1,.577,13.228,4.223,4.223,0,0,1,2.683,4.959,4.6,4.6,0,0,1-4.409,3.607c-5.117,0-6.1-7.4-1.727-8.566l.009-9.788c-.045-1.465-.3-1.578-.3-3.156,1.9-.5-.059-.843,3.165-.577-.072-3.251-2.737-6.952-2.876-8.629,4.576-1.064,16.682-10.3,16.682-16.393a4.1,4.1,0,0,0-.289-1.438,4.2,4.2,0,0,0-1.438-.289H1.591a4.682,4.682,0,0,0-1.438.289Z" transform="translate(0.002 -60.235)" fill-rule="evenodd" fill="url(#linear-gradient)"/>
      <path id="Path_657" data-name="Path 657" d="M3.53,203.476V209.8c0,7.489,7.182,14.666,14.666,14.666,4.887,0,7.29-.428,11.5-2.3a26.156,26.156,0,0,0,11.876-11.993,24.322,24.322,0,0,0,2.214-9.865H49.54c0,12.908,11.357,24.157,23.585,24.157H75.14c7.489,0,14.666-7.182,14.666-14.666v-6.326c0-7.5-7.16-14.666-14.666-14.666H59.324c-3.575,0-7.363,3.12-8.977,6.84-.717,1.65.171,1.213-6.267,1.213-.852,0-.7-.347-1.005-1.005a9.366,9.366,0,0,0-2.8-4.1,6.694,6.694,0,0,0-2.705-1.9,9.084,9.084,0,0,0-3.553-1.051H18.2c-7.489,0-14.666,7.182-14.666,14.666Z" transform="translate(-1.938 -103.678)" fill-rule="evenodd" fill="url(#linear-gradient)"/>
      <path id="Path_658" data-name="Path 658" d="M64.765,35.086H137.24C137.24,16.33,120.072,0,102.727,0,95.941,0,91.293.509,85.468,3.449,73.953,9.261,64.76,20.8,64.76,35.086Z" transform="translate(-35.562)" fill-rule="evenodd" fill="url(#linear-gradient)"/>
      <path id="Path_659" data-name="Path 659" d="M54.56,86.924v6.042h81.678c0-3.233.694-7.475-1.438-7.475H56a1.63,1.63,0,0,0-1.438,1.438Z" transform="translate(-29.96 -46.946)" fill-rule="evenodd" fill="url(#linear-gradient)"/>
    </g>
  </g>
</svg>
