<svg xmlns="http://www.w3.org/2000/svg" width="78.785" height="78.781" viewBox="0 0 78.785 78.781">
  <g id="_2522648457056" transform="translate(0 0)" opacity="0.4">
    <path id="Path_2014" data-name="Path 2014" d="M34870.355,32654.068a39.393,39.393,0,1,1-39.387-39.389A39.391,39.391,0,0,1,34870.355,32654.068Z" transform="translate(-34791.57 -32614.68)" fill="#0ba1a0"/>
    <path id="Path_2015" data-name="Path 2015" d="M34832.664,35602.164l-17.953,13.465,10.2-14.238-33.137,17.523a40.49,40.49,0,0,0-.242,4.375,39.4,39.4,0,0,0,29.887,38.23l31.984-17.676,2.8-23.137-5.578-2.73Z" transform="translate(-34791.527 -35583.898)" fill="#108c84"/>
    <path id="Path_2016" data-name="Path 2016" d="M36883.48,38449.93v-4.3l4.715.008-.7,4.3Zm-39.2-4.406,5.5.016v4.391h-4.93Zm5.5-8.328v7l-5.672-.016-.9-6.984Zm8.086,0v7.023l-6.746-.016v-7.008Zm8.211,0v7.039l-6.867-.016v-7.023Zm7.852,0v7.063l-6.508-.016v-7.047Zm1.344,8.406,6.863.023v4.3h-6.863Zm-7.852-.016,6.508.016v4.328h-6.508Zm-9.555,4.344h-6.746v-4.387l6.746.02Zm1.344-4.367,6.867.016v4.352h-6.867Zm22.926-8.367v7.086l-6.863-.023v-7.062Zm7.43,0-1.152,7.1-4.934-.012v-7.086Zm3.094-10.68a1.347,1.347,0,0,0-1.539,1.109l-1.34,8.227h-6.3v-7.3h-1.344v7.3h-6.863v-7.535h-1.344v7.535h-6.508v-7.418h-1.344v7.418h-6.867v-7.418h-1.344v7.418h-6.746v-7.535h-1.34v7.535h-6.742l-1.012-7.828a1.322,1.322,0,0,0-1.5-1.156,1.341,1.341,0,0,0-1.16,1.5l2.973,23.078a1.342,1.342,0,0,0,1.336,1.172h44.965a1.343,1.343,0,0,0,1.328-1.129l3.8-23.434A1.343,1.343,0,0,0,36892.66,38426.516Z" transform="translate(-36827.359 -38392.461)" fill="#fefefe"/>
    <path id="Path_2017" data-name="Path 2017" d="M36478.293,37461.426a4.223,4.223,0,0,1-4.223,4.223h-50.914a4.223,4.223,0,1,1,0-8.445h50.914A4.223,4.223,0,0,1,36478.293,37461.426Z" transform="translate(-36409.398 -37428.84)" fill="#d84140"/>
    <path id="Path_2018" data-name="Path 2018" d="M38234.1,35521.438a2.016,2.016,0,0,1-1.395-3.469l12.613-12.133a2.014,2.014,0,0,1,2.789,2.906l-12.609,12.133A2.007,2.007,0,0,1,38234.1,35521.438Z" transform="translate(-38211.938 -35488.344)" fill="#fefefe"/>
    <path id="Path_2019" data-name="Path 2019" d="M41679.09,35441a2,2,0,0,1-1.437-.605l-12.488-12.727a2.014,2.014,0,1,1,2.875-2.82l12.484,12.727a2.014,2.014,0,0,1-1.434,3.426Z" transform="translate(-41624.328 -35407.793)" fill="#fefefe"/>
  </g>
</svg>
