<svg xmlns="http://www.w3.org/2000/svg" width="92.387" height="92.395" viewBox="0 0 92.387 92.395">
  <g id="_2522648420224" transform="translate(0.002 0)">
    <path id="Path_1924" data-name="Path 1924" d="M34884.344,16714.434a46.193,46.193,0,1,1-46.191-46.2A46.189,46.189,0,0,1,34884.344,16714.434Z" transform="translate(-34791.957 -16668.238)" fill="#d4d1d0"/>
    <path id="Path_1925" data-name="Path 1925" d="M34874.668,19401.342l6.078.541,7.027-19.994,2.793-8.592-21.051-8.021-8.773-2.506-13.637-5.2-38,31.027a46.227,46.227,0,0,0,35.781,41.742l30.18-22.242Z" transform="translate(-34808.988 -19339.098)" fill="#bdbab9"/>
    <path id="Path_1926" data-name="Path 1926" d="M37639.527,22108.617a2.29,2.29,0,0,1-2.312,2.266h-42.945a2.291,2.291,0,0,1-2.316-2.266v-27.863a2.291,2.291,0,0,1,2.316-2.266h42.945a2.29,2.29,0,0,1,2.313,2.266Z" transform="translate(-37572.723 -22041.326)" fill="#474c55"/>
    <path id="Path_1927" data-name="Path 1927" d="M39424.133,19298.75l-1.656,4.67-41.937-14.908,1.656-4.67a.762.762,0,0,1,.984-.428l40.461,14.385A.754.754,0,0,1,39424.133,19298.75Zm.023-2.4-40.461-14.383a2.294,2.294,0,0,0-2.945,1.357l-1.656,4.668-.961,2.693-.781,2.213-1.086,3.043-1.43,4.023h1.625l1.25-3.51,9.871,3.51h21.34a2.293,2.293,0,0,1,2.32,2.264v6.146l8.406,2.988L39414.8,19325a.762.762,0,0,1-.984.426l-2.578-.916v1.629l2.063.734a2.292,2.292,0,0,0,2.941-1.359l4.852-13.637,1.078-3.043.785-2.211.961-2.693,1.656-4.672A2.289,2.289,0,0,0,39424.156,19296.354Z" transform="translate(-39343.359 -19263.879)" fill="#474c55"/>
    <path id="Path_1928" data-name="Path 1928" d="M38061.023,25653.191h.566v-2.539h-.59V25650h1.3v3.191h.523v.607h-1.8Z" transform="translate(-38038.547 -25588.307)" fill="#fefefe"/>
    <path id="Path_1929" data-name="Path 1929" d="M38385.406,25644.078c.008-.8.766-1.148,1.465-1.148.762,0,1.586.309,1.586,1.211,0,.965-.727,1.148-1.523,1.148-.316,0-.828.082-.828.5v.324h2.363v.668h-3.078v-1c0-.873.793-1.135,1.543-1.135.285,0,.813-.049.813-.488,0-.414-.375-.607-.863-.607-.371,0-.758.189-.766.529Z" transform="translate(-38360.707 -25581.285)" fill="#fefefe"/>
    <path id="Path_1930" data-name="Path 1930" d="M38883.27,25644.352v-.586h.551c.383,0,.789-.1.8-.457,0-.215-.172-.5-.781-.5-.336,0-.8.117-.8.469h-.715c0-.822.816-1.121,1.516-1.121.715,0,1.488.348,1.492,1.156a.8.8,0,0,1-.527.75.9.9,0,0,1,.617.8c0,.93-.871,1.205-1.6,1.205s-1.547-.3-1.555-1.166h.719c0,.391.531.527.836.527.367,0,.852-.152.852-.559,0-.23-.125-.512-.809-.512Z" transform="translate(-38854.168 -25580.512)" fill="#fefefe"/>
    <path id="Path_1931" data-name="Path 1931" d="M39416.586,25653.254v-1.758l-1.285,1.758Zm.707-2.375v2.375h.441v.7h-.441v.723h-.707v-.723h-2.031l-.062-.727,1.711-2.344Z" transform="translate(-39382.742 -25589.18)" fill="#fefefe"/>
    <path id="Path_1932" data-name="Path 1932" d="M40116.895,25651.512h-2.051v.668h.738c.809,0,1.527.332,1.523,1.223a1.326,1.326,0,0,1-1.488,1.275c-.836,0-1.551-.3-1.555-1.189h.711c0,.418.477.527.836.527s.785-.162.785-.613c.008-.43-.426-.555-.812-.555h-1.441v-2.008h2.754Z" transform="translate(-40077.504 -25589.141)" fill="#fefefe"/>
    <path id="Path_1933" data-name="Path 1933" d="M40607.672,25642.453c0-.42-.375-.641-.855-.641s-.883.215-.879.641.406.617.871.617S40607.672,25642.871,40607.672,25642.453Zm-1.734-1.436v.572a1.117,1.117,0,0,1,.879-.4c.766,0,1.57.32,1.57,1.266,0,.84-.809,1.258-1.578,1.258s-1.582-.418-1.582-1.27v-1.418c0-.846.781-1.242,1.563-1.242.824,0,1.559.324,1.559,1.121h-.715c0-.336-.422-.5-.836-.5s-.859.23-.859.641Z" transform="translate(-40565.297 -25578.156)" fill="#fefefe"/>
    <path id="Path_1934" data-name="Path 1934" d="M41080,25653.8l1.551-3.115h-1.852V25650h2.789l.039.379-1.7,3.42Z" transform="translate(-41036.508 -25588.307)" fill="#fefefe"/>
    <path id="Path_1935" data-name="Path 1935" d="M41506.219,25642.258c.438,0,.793-.2.8-.533s-.324-.537-.809-.537c-.535,0-.809.277-.8.537C41505.426,25642.055,41505.8,25642.258,41506.219,25642.258Zm-.895,1.063c0,.293.313.57.895.57s.895-.271.891-.57c-.008-.373-.414-.543-.891-.543C41505.773,25642.777,41505.332,25642.947,41505.324,25643.32Zm-.168-.824a.85.85,0,0,1-.477-.75c0-.766.707-1.156,1.531-1.156s1.559.4,1.559,1.156a.778.778,0,0,1-.488.715.953.953,0,0,1,.574.848c.016.885-.8,1.238-1.645,1.234-.824-.006-1.648-.344-1.633-1.234A.916.916,0,0,1,41505.156,25642.5Z" transform="translate(-41458.469 -25578.961)" fill="#fefefe"/>
    <path id="Path_1936" data-name="Path 1936" d="M42188.422,25653.191h.566v-2.539h-.59V25650h1.3v3.191h.527v.607h-1.8Z" transform="translate(-42137.594 -25588.307)" fill="#fefefe"/>
    <path id="Path_1937" data-name="Path 1937" d="M42512.938,25644.078c0-.8.762-1.148,1.465-1.148.758,0,1.582.309,1.582,1.211,0,.965-.727,1.148-1.523,1.148-.316,0-.828.082-.828.5v.324H42516v.668h-3.078v-1c0-.873.793-1.135,1.543-1.135.285,0,.816-.049.816-.488,0-.414-.379-.607-.867-.607-.375,0-.758.189-.762.529Z" transform="translate(-42459.883 -25581.285)" fill="#fefefe"/>
    <path id="Path_1938" data-name="Path 1938" d="M43010.648,25644.352v-.586h.547c.391,0,.8-.1.8-.457,0-.215-.172-.5-.781-.5-.336,0-.789.117-.789.469h-.719c0-.822.816-1.121,1.516-1.121.719,0,1.484.348,1.492,1.156a.8.8,0,0,1-.523.75.9.9,0,0,1,.617.8c0,.93-.875,1.205-1.609,1.205-.719,0-1.547-.3-1.551-1.166h.723c0,.391.527.527.836.527.363,0,.844-.152.844-.559,0-.23-.125-.512-.8-.512Z" transform="translate(-42953.199 -25580.512)" fill="#fefefe"/>
    <path id="Path_1939" data-name="Path 1939" d="M43543.969,25653.254v-1.758l-1.285,1.758Zm.707-2.375v2.375h.441v.7h-.441v.723h-.707v-.723h-2.031l-.062-.727,1.711-2.344Z" transform="translate(-43481.773 -25589.18)" fill="#fefefe"/>
    <path id="Path_1940" data-name="Path 1940" d="M38104.789,24071.7v1.445a1.828,1.828,0,0,0,.043.438,1.538,1.538,0,0,0,1.633,1.211c1.383,0,2.762,0,4.141,0v-3.094Z" transform="translate(-38082.035 -24020.846)" fill="#edd403"/>
    <path id="Path_1941" data-name="Path 1941" d="M39031.4,23486.273h3.184v.547h-3.184v4.3q2.057,0,4.113,0a1.975,1.975,0,0,0,.465-.045,1.562,1.562,0,0,0,1.215-1.682v-5.406h-5.793Z" transform="translate(-39002.281 -23437.172)" fill="#edd403"/>
    <path id="Path_1942" data-name="Path 1942" d="M38604.344,22756.734v-4.477h-2.473q-1.348,0-2.7,0v4.475Z" transform="translate(-38573.023 -22710.469)" fill="#edd403"/>
    <path id="Path_1943" data-name="Path 1943" d="M38110.48,23483.9h-5.816v3.488h5.816Z" transform="translate(-38081.91 -23437.088)" fill="#edd403"/>
    <path id="Path_1944" data-name="Path 1944" d="M38107.395,22752.391c-.371,0-.738,0-1.105,0a2.283,2.283,0,0,0-.555.049,1.54,1.54,0,0,0-1.191,1.605c0,.939,0,1.879,0,2.818h2.852Z" transform="translate(-38081.789 -22710.6)" fill="#edd403"/>
    <path id="Path_1945" data-name="Path 1945" d="M39434.75,22756.738v-2.752a2.013,2.013,0,0,0-.055-.531,1.544,1.544,0,0,0-1.629-1.191q-.68,0-1.359,0v4.477Z" transform="translate(-39399.836 -22710.473)" fill="#edd403"/>
    <path id="Path_1946" data-name="Path 1946" d="M40388.117,23232.395a2.677,2.677,0,0,1-2.16,1.086c-2.113,0-3-1.867-3.012-3.762s.961-3.848,3.012-3.848a2.66,2.66,0,0,1,2.09,1.115l-.719.887a1.744,1.744,0,0,0-1.371-.689c-1.371,0-1.965,1.316-1.957,2.535s.555,2.469,1.957,2.469a1.883,1.883,0,0,0,1.43-.74Z" transform="translate(-40344.543 -23180.828)" fill="#fefefe"/>
    <path id="Path_1947" data-name="Path 1947" d="M41104.531,23248.633l-1.055,3.105h2.109Zm1.488,4.389h-2.977l-.484,1.375h-1.16l2.547-7.3h1.168l2.555,7.3h-1.172Z" transform="translate(-41058.059 -23201.91)" fill="#fefefe"/>
    <path id="Path_1948" data-name="Path 1948" d="M42085.266,23246.883v2.336h1.633c.68,0,.977-.586.977-1.168a1.036,1.036,0,0,0-.977-1.168Zm3.961,6.016h-1.273l-1.656-2.439h-1.031v2.439h-1.07v-7.309c.9,0,1.8.012,2.7.012a2.17,2.17,0,0,1,2.047,2.418,2.128,2.128,0,0,1-1.437,2.293l1.719,2.492Z" transform="translate(-42034.105 -23200.41)" fill="#fefefe"/>
    <path id="Path_1949" data-name="Path 1949" d="M42871,23253.09h1.164c1.293,0,1.8-1.209,1.781-2.4-.023-1.137-.547-2.273-1.781-2.273H42871Zm4.008-2.387c.023,1.844-.852,3.711-2.844,3.711h-2.23v-7.3h2.23C42874.117,23247.115,42874.984,23248.9,42875.008,23250.7Z" transform="translate(-42814.449 -23201.926)" fill="#fefefe"/>
  </g>
</svg>
