<svg id="_2756520030688" xmlns="http://www.w3.org/2000/svg" width="51.442" height="203.969" viewBox="0 0 51.442 203.969">
  <path id="Path_84" data-name="Path 84" d="M14.429,2536.28a2.307,2.307,0,1,0,2.31,2.3A2.309,2.309,0,0,0,14.429,2536.28Z" transform="translate(-11.631 -2456.437)" fill="#ed1c24"/>
  <path id="Path_85" data-name="Path 85" d="M14.429,3520.1a2.31,2.31,0,1,0,2.31,2.31A2.312,2.312,0,0,0,14.429,3520.1Z" transform="translate(-11.631 -3400.588)" fill="#ed1c24"/>
  <path id="Path_86" data-name="Path 86" d="M14.429,3028.13a2.309,2.309,0,1,0,2.31,2.309A2.311,2.311,0,0,0,14.429,3028.13Z" transform="translate(-11.631 -2928.455)" fill="#ed1c24"/>
  <path id="Path_87" data-name="Path 87" d="M14.429,2044.16a2.31,2.31,0,1,0,2.31,2.31A2.312,2.312,0,0,0,14.429,2044.16Z" transform="translate(-11.631 -1984.16)" fill="#ed1c24"/>
  <path id="Path_88" data-name="Path 88" d="M14.429,1060.22a2.31,2.31,0,1,0,2.31,2.31A2.312,2.312,0,0,0,14.429,1060.22Z" transform="translate(-11.631 -1039.895)" fill="#ed1c24"/>
  <path id="Path_89" data-name="Path 89" d="M14.429,568.25a2.31,2.31,0,1,0,2.31,2.315A2.315,2.315,0,0,0,14.429,568.25Z" transform="translate(-11.631 -567.762)" fill="#ed1c24"/>
  <path id="Path_90" data-name="Path 90" d="M14.429,4012.07a2.313,2.313,0,1,0,2.31,2.309A2.312,2.312,0,0,0,14.429,4012.07Z" transform="translate(-11.631 -3872.72)" fill="#ed1c24"/>
  <path id="Path_91" data-name="Path 91" d="M14.429,5488a2.31,2.31,0,1,0,2.31,2.31A2.312,2.312,0,0,0,14.429,5488Z" transform="translate(-11.631 -5289.138)" fill="#ed1c24"/>
  <path id="Path_92" data-name="Path 92" d="M14.429,1552.19a2.31,2.31,0,1,0,2.31,2.31A2.312,2.312,0,0,0,14.429,1552.19Z" transform="translate(-11.631 -1512.027)" fill="#ed1c24"/>
  <path id="Path_93" data-name="Path 93" d="M14.429,4996.01a2.31,2.31,0,1,0,2.31,2.31A2.312,2.312,0,0,0,14.429,4996.01Z" transform="translate(-11.631 -4816.987)" fill="#ed1c24"/>
  <path id="Path_94" data-name="Path 94" d="M14.429,4504.04a2.31,2.31,0,1,0,2.31,2.31A2.312,2.312,0,0,0,14.429,4504.04Z" transform="translate(-11.631 -4344.854)" fill="#ed1c24"/>
  <path id="Path_95" data-name="Path 95" d="M582.93,4012.07a2.313,2.313,0,1,0,2.309,2.309A2.313,2.313,0,0,0,582.93,4012.07Z" transform="translate(-557.208 -3872.72)" fill="#ed1c24"/>
  <path id="Path_96" data-name="Path 96" d="M582.93,4996.01a2.31,2.31,0,1,0,2.309,2.31A2.313,2.313,0,0,0,582.93,4996.01Z" transform="translate(-557.208 -4816.987)" fill="#ed1c24"/>
  <path id="Path_97" data-name="Path 97" d="M582.93,5488a2.31,2.31,0,1,0,2.309,2.31A2.313,2.313,0,0,0,582.93,5488Z" transform="translate(-557.208 -5289.138)" fill="#ed1c24"/>
  <path id="Path_98" data-name="Path 98" d="M582.93,3520.1a2.31,2.31,0,1,0,2.309,2.31A2.313,2.313,0,0,0,582.93,3520.1Z" transform="translate(-557.208 -3400.588)" fill="#ed1c24"/>
  <path id="Path_99" data-name="Path 99" d="M582.93,4504.04a2.31,2.31,0,1,0,2.309,2.31A2.313,2.313,0,0,0,582.93,4504.04Z" transform="translate(-557.208 -4344.854)" fill="#ed1c24"/>
  <path id="Path_100" data-name="Path 100" d="M582.93,1552.19a2.31,2.31,0,1,0,2.309,2.31A2.313,2.313,0,0,0,582.93,1552.19Z" transform="translate(-557.208 -1512.027)" fill="#ed1c24"/>
  <path id="Path_101" data-name="Path 101" d="M582.93,1060.22a2.31,2.31,0,1,0,2.309,2.31A2.312,2.312,0,0,0,582.93,1060.22Z" transform="translate(-557.208 -1039.895)" fill="#ed1c24"/>
  <path id="Path_102" data-name="Path 102" d="M582.93,568.25a2.31,2.31,0,1,0,2.309,2.315A2.315,2.315,0,0,0,582.93,568.25Z" transform="translate(-557.208 -567.762)" fill="#ed1c24"/>
  <path id="Path_103" data-name="Path 103" d="M582.93,2536.28a2.307,2.307,0,1,0,2.309,2.3A2.309,2.309,0,0,0,582.93,2536.28Z" transform="translate(-557.208 -2456.437)" fill="#ed1c24"/>
  <path id="Path_104" data-name="Path 104" d="M582.93,2044.16a2.31,2.31,0,1,0,2.309,2.31A2.313,2.313,0,0,0,582.93,2044.16Z" transform="translate(-557.208 -1984.16)" fill="#ed1c24"/>
  <path id="Path_105" data-name="Path 105" d="M582.93,3028.13a2.309,2.309,0,1,0,2.309,2.309A2.312,2.312,0,0,0,582.93,3028.13Z" transform="translate(-557.208 -2928.455)" fill="#ed1c24"/>
  <path id="Path_106" data-name="Path 106" d="M1151.579,572.879a2.31,2.31,0,1,0-2.309-2.3A2.307,2.307,0,0,0,1151.579,572.879Z" transform="translate(-1102.929 -567.771)" fill="#ed1c24"/>
  <path id="Path_107" data-name="Path 107" d="M1151.579,1552.19a2.31,2.31,0,1,0,2.305,2.31A2.312,2.312,0,0,0,1151.579,1552.19Z" transform="translate(-1102.929 -1512.027)" fill="#ed1c24"/>
  <path id="Path_108" data-name="Path 108" d="M1151.579,5488a2.31,2.31,0,1,0,2.305,2.31A2.312,2.312,0,0,0,1151.579,5488Z" transform="translate(-1102.929 -5289.138)" fill="#ed1c24"/>
  <path id="Path_109" data-name="Path 109" d="M1151.579,2044.16a2.31,2.31,0,1,0,2.305,2.31A2.312,2.312,0,0,0,1151.579,2044.16Z" transform="translate(-1102.929 -1984.16)" fill="#ed1c24"/>
  <path id="Path_110" data-name="Path 110" d="M1151.579,2536.28a2.307,2.307,0,1,0,2.305,2.3A2.309,2.309,0,0,0,1151.579,2536.28Z" transform="translate(-1102.929 -2456.437)" fill="#ed1c24"/>
  <path id="Path_111" data-name="Path 111" d="M1151.579,1060.22a2.31,2.31,0,1,0,2.305,2.31A2.312,2.312,0,0,0,1151.579,1060.22Z" transform="translate(-1102.929 -1039.895)" fill="#ed1c24"/>
  <path id="Path_112" data-name="Path 112" d="M1151.579,3028.13a2.309,2.309,0,1,0,2.305,2.309A2.311,2.311,0,0,0,1151.579,3028.13Z" transform="translate(-1102.929 -2928.455)" fill="#ed1c24"/>
  <path id="Path_113" data-name="Path 113" d="M1151.579,4996.01a2.31,2.31,0,1,0,2.305,2.31A2.312,2.312,0,0,0,1151.579,4996.01Z" transform="translate(-1102.929 -4816.987)" fill="#ed1c24"/>
  <path id="Path_114" data-name="Path 114" d="M1151.579,4504.04a2.31,2.31,0,1,0,2.305,2.31A2.312,2.312,0,0,0,1151.579,4504.04Z" transform="translate(-1102.929 -4344.854)" fill="#ed1c24"/>
  <path id="Path_115" data-name="Path 115" d="M1151.579,3520.1a2.31,2.31,0,1,0,2.305,2.31A2.312,2.312,0,0,0,1151.579,3520.1Z" transform="translate(-1102.929 -3400.588)" fill="#ed1c24"/>
  <path id="Path_116" data-name="Path 116" d="M2.8,2524.17a2.8,2.8,0,1,0,2.8,2.791A2.8,2.8,0,0,0,2.8,2524.17Z" transform="translate(0 -2444.815)" fill="#ed1c24"/>
  <path id="Path_117" data-name="Path 117" d="M2.8,3507.99a2.8,2.8,0,1,0,2.8,2.8A2.8,2.8,0,0,0,2.8,3507.99Z" transform="translate(0 -3388.966)" fill="#ed1c24"/>
  <path id="Path_118" data-name="Path 118" d="M2.8,3016.02a2.8,2.8,0,1,0,2.8,2.8A2.8,2.8,0,0,0,2.8,3016.02Z" transform="translate(0 -2916.833)" fill="#ed1c24"/>
  <path id="Path_119" data-name="Path 119" d="M2.8,2032.06a2.8,2.8,0,1,0,2.8,2.8A2.8,2.8,0,0,0,2.8,2032.06Z" transform="translate(0 -1972.548)" fill="#ed1c24"/>
  <path id="Path_120" data-name="Path 120" d="M2.8,1048.12a2.8,2.8,0,1,0,2.8,2.8A2.8,2.8,0,0,0,2.8,1048.12Z" transform="translate(0 -1028.282)" fill="#ed1c24"/>
  <path id="Path_121" data-name="Path 121" d="M2.8,556.15a2.8,2.8,0,1,0,2.8,2.8A2.8,2.8,0,0,0,2.8,556.15Z" transform="translate(0 -556.15)" fill="#ed1c24"/>
  <path id="Path_122" data-name="Path 122" d="M2.8,3999.96a2.8,2.8,0,1,0,2.8,2.8A2.8,2.8,0,0,0,2.8,3999.96Z" transform="translate(0 -3861.099)" fill="#ed1c24"/>
  <path id="Path_123" data-name="Path 123" d="M2.8,5475.9a2.8,2.8,0,1,0,2.8,2.8A2.8,2.8,0,0,0,2.8,5475.9Z" transform="translate(0 -5277.526)" fill="#ed1c24"/>
  <path id="Path_124" data-name="Path 124" d="M2.8,1540.09a2.8,2.8,0,1,0,2.8,2.8A2.8,2.8,0,0,0,2.8,1540.09Z" transform="translate(0 -1500.415)" fill="#ed1c24"/>
  <path id="Path_125" data-name="Path 125" d="M2.8,4983.9a2.8,2.8,0,1,0,2.8,2.8A2.8,2.8,0,0,0,2.8,4983.9Z" transform="translate(0 -4805.365)" fill="#ed1c24"/>
  <path id="Path_126" data-name="Path 126" d="M2.8,4491.93a2.8,2.8,0,1,0,2.8,2.8A2.8,2.8,0,0,0,2.8,4491.93Z" transform="translate(0 -4333.232)" fill="#ed1c24"/>
  <path id="Path_127" data-name="Path 127" d="M571.309,3999.96a2.8,2.8,0,1,0,2.8,2.8A2.8,2.8,0,0,0,571.309,3999.96Z" transform="translate(-545.587 -3861.099)" fill="#ed1c24"/>
  <path id="Path_128" data-name="Path 128" d="M571.309,4983.9a2.8,2.8,0,1,0,2.8,2.8A2.8,2.8,0,0,0,571.309,4983.9Z" transform="translate(-545.587 -4805.365)" fill="#ed1c24"/>
  <path id="Path_129" data-name="Path 129" d="M571.309,5475.9a2.8,2.8,0,1,0,2.8,2.8A2.8,2.8,0,0,0,571.309,5475.9Z" transform="translate(-545.587 -5277.526)" fill="#ed1c24"/>
  <path id="Path_130" data-name="Path 130" d="M571.309,3507.99a2.8,2.8,0,1,0,2.8,2.8A2.8,2.8,0,0,0,571.309,3507.99Z" transform="translate(-545.587 -3388.966)" fill="#ed1c24"/>
  <path id="Path_131" data-name="Path 131" d="M571.309,4491.93a2.8,2.8,0,1,0,2.8,2.8A2.8,2.8,0,0,0,571.309,4491.93Z" transform="translate(-545.587 -4333.232)" fill="#ed1c24"/>
  <path id="Path_132" data-name="Path 132" d="M571.309,1540.09a2.8,2.8,0,1,0,2.8,2.8A2.8,2.8,0,0,0,571.309,1540.09Z" transform="translate(-545.587 -1500.415)" fill="#ed1c24"/>
  <path id="Path_133" data-name="Path 133" d="M571.309,1048.12a2.8,2.8,0,1,0,2.8,2.8A2.8,2.8,0,0,0,571.309,1048.12Z" transform="translate(-545.587 -1028.282)" fill="#ed1c24"/>
  <path id="Path_134" data-name="Path 134" d="M571.309,556.15a2.8,2.8,0,1,0,2.8,2.8A2.8,2.8,0,0,0,571.309,556.15Z" transform="translate(-545.587 -556.15)" fill="#ed1c24"/>
  <path id="Path_135" data-name="Path 135" d="M571.309,2524.17a2.8,2.8,0,1,0,2.8,2.791A2.8,2.8,0,0,0,571.309,2524.17Z" transform="translate(-545.587 -2444.815)" fill="#ed1c24"/>
  <path id="Path_136" data-name="Path 136" d="M571.309,2032.06a2.8,2.8,0,1,0,2.8,2.8A2.8,2.8,0,0,0,571.309,2032.06Z" transform="translate(-545.587 -1972.548)" fill="#ed1c24"/>
  <path id="Path_137" data-name="Path 137" d="M571.309,3016.02a2.8,2.8,0,1,0,2.8,2.8A2.8,2.8,0,0,0,571.309,3016.02Z" transform="translate(-545.587 -2916.833)" fill="#ed1c24"/>
  <path id="Path_138" data-name="Path 138" d="M1139.938,561.736a2.8,2.8,0,1,0-2.8-2.792A2.8,2.8,0,0,0,1139.938,561.736Z" transform="translate(-1091.289 -556.14)" fill="#ed1c24"/>
  <path id="Path_139" data-name="Path 139" d="M1139.938,1540.09a2.8,2.8,0,1,0,2.792,2.8A2.8,2.8,0,0,0,1139.938,1540.09Z" transform="translate(-1091.289 -1500.415)" fill="#ed1c24"/>
  <path id="Path_140" data-name="Path 140" d="M1139.938,5475.9a2.8,2.8,0,1,0,2.792,2.8A2.8,2.8,0,0,0,1139.938,5475.9Z" transform="translate(-1091.289 -5277.526)" fill="#ed1c24"/>
  <path id="Path_141" data-name="Path 141" d="M1139.938,2032.06a2.8,2.8,0,1,0,2.792,2.8A2.8,2.8,0,0,0,1139.938,2032.06Z" transform="translate(-1091.289 -1972.548)" fill="#ed1c24"/>
  <path id="Path_142" data-name="Path 142" d="M1139.938,2524.17a2.8,2.8,0,1,0,2.792,2.791A2.8,2.8,0,0,0,1139.938,2524.17Z" transform="translate(-1091.289 -2444.815)" fill="#ed1c24"/>
  <path id="Path_143" data-name="Path 143" d="M1139.938,1048.12a2.8,2.8,0,1,0,2.792,2.8A2.8,2.8,0,0,0,1139.938,1048.12Z" transform="translate(-1091.289 -1028.282)" fill="#ed1c24"/>
  <path id="Path_144" data-name="Path 144" d="M1139.938,3016.02a2.8,2.8,0,1,0,2.792,2.8A2.8,2.8,0,0,0,1139.938,3016.02Z" transform="translate(-1091.289 -2916.833)" fill="#ed1c24"/>
  <path id="Path_145" data-name="Path 145" d="M1139.938,4983.9a2.8,2.8,0,1,0,2.792,2.8A2.8,2.8,0,0,0,1139.938,4983.9Z" transform="translate(-1091.289 -4805.365)" fill="#ed1c24"/>
  <path id="Path_146" data-name="Path 146" d="M1139.938,4491.93a2.8,2.8,0,1,0,2.792,2.8A2.8,2.8,0,0,0,1139.938,4491.93Z" transform="translate(-1091.289 -4333.232)" fill="#ed1c24"/>
  <path id="Path_147" data-name="Path 147" d="M1139.938,3507.99a2.8,2.8,0,1,0,2.792,2.8A2.8,2.8,0,0,0,1139.938,3507.99Z" transform="translate(-1091.289 -3388.966)" fill="#ed1c24"/>
  <path id="Path_148" data-name="Path 148" d="M1139.938,3999.96a2.8,2.8,0,1,0,2.792,2.8A2.8,2.8,0,0,0,1139.938,3999.96Z" transform="translate(-1091.289 -3861.099)" fill="#ed1c24"/>
  <path id="Path_149" data-name="Path 149" d="M1151.579,4012.07a2.313,2.313,0,1,0,2.305,2.309A2.312,2.312,0,0,0,1151.579,4012.07Z" transform="translate(-1102.929 -3872.72)" fill="#ed1c24"/>
</svg>
