<svg xmlns="http://www.w3.org/2000/svg" width="83.521" height="83.51" viewBox="0 0 83.521 83.51">
  <path id="Path_878" data-name="Path 878" d="M7848.292,4839.512a67.951,67.951,0,0,0-1.616-12.568h10.076a35.415,35.415,0,0,1,3.231,12.568Zm8.459,17.957h-10.076a68.179,68.179,0,0,0,1.616-12.567h11.691a35.681,35.681,0,0,1-3.231,12.567Zm-17.44,17.292a43.211,43.211,0,0,0,5.837-11.9h8.29A35.676,35.676,0,0,1,7839.312,4874.761Zm-12.68,3.079v-14.981h12.68C7836.257,4870.947,7831.669,4876.352,7826.632,4877.84Zm0-32.939h15.977a61.154,61.154,0,0,1-1.7,12.568h-14.274V4844.9Zm0-17.957h14.274a60.9,60.9,0,0,1,1.7,12.568h-15.977Zm0-20.387c5.037,1.48,9.625,6.9,12.68,14.982h-12.68Zm26.807,14.982h-8.29a43.314,43.314,0,0,0-5.837-11.9A35.872,35.872,0,0,1,7853.438,4821.539Zm-32.188,0h-12.683c3.058-8.081,7.624-13.5,12.683-14.982Zm0,17.973h-16a62.612,62.612,0,0,1,1.723-12.568h14.274Zm0,17.957h-14.274a62.841,62.841,0,0,1-1.723-12.567h16Zm0,20.371c-5.059-1.488-9.625-6.893-12.683-14.981h12.683Zm-26.807-14.981h8.27a43.311,43.311,0,0,0,5.855,11.9A35.55,35.55,0,0,1,7794.443,4862.858Zm-3.338-5.39a36.143,36.143,0,0,1-3.206-12.568h11.694a66.468,66.468,0,0,0,1.61,12.568Zm0-30.525h10.1a66.212,66.212,0,0,0-1.61,12.568H7787.9A35.882,35.882,0,0,1,7791.1,4826.944Zm17.462-17.308a43.4,43.4,0,0,0-5.855,11.9h-8.269A35.736,35.736,0,0,1,7808.567,4809.636Zm56.971,29.876a40.424,40.424,0,0,0-2.8-12.568h.3L7861,4823l-.752-1.464h-.132a41.532,41.532,0,0,0-33.479-20.9v-.2h-5.381v.2a41.513,41.513,0,0,0-33.483,20.9h-.126l-.754,1.464-2.042,3.941h.278a41,41,0,0,0-2.777,12.568h-.176v5.39h.176a41.146,41.146,0,0,0,2.777,12.567h-.278l2.042,3.941.754,1.448h.126a41.5,41.5,0,0,0,33.483,20.925v.166h5.381v-.166a41.521,41.521,0,0,0,33.479-20.925h.132l.752-1.448,2.046-3.941h-.3a40.569,40.569,0,0,0,2.8-12.567h.151v-5.39Z" transform="translate(-7782.169 -4800.439)" fill="#5cb64a" opacity="0.26"/>
</svg>
