<svg xmlns="http://www.w3.org/2000/svg" width="69.43" height="69.432" viewBox="0 0 69.43 69.432">
  <g id="_2522648430112" transform="translate(0 0)">
    <path id="Path_1950" data-name="Path 1950" d="M17465.449,16221.9a34.715,34.715,0,1,1-34.715-34.716A34.715,34.715,0,0,1,17465.449,16221.9Z" transform="translate(-17396.02 -16187.18)" fill="#d84140"/>
    <path id="Path_1951" data-name="Path 1951" d="M17446.141,19506.426l-4.229-9.551-.58-3.848-1-6.266,10.2-13.1-8.439,2.375-5.012.438,1.492-1.758-1.143-2.725-2.988-2.111-2.2,2.111.086,3.252-1.67.266-.879-6.771-7.648-.264-7.475,6.77-2.814-4.133-15.727,13.451c-.025.561-.041,1.123-.041,1.689a34.711,34.711,0,0,0,34.715,34.715C17431.643,19520.965,17446.141,19506.426,17446.141,19506.426Z" transform="translate(-17396.078 -19451.535)" fill="#cc2a2a"/>
    <path id="Path_1952" data-name="Path 1952" d="M22281.162,19131.91a2.385,2.385,0,0,1,1.549.176,3.444,3.444,0,0,1,1.48,2.391,12.787,12.787,0,0,1,.1,3.633.4.4,0,0,1-.137.346.859.859,0,0,1-.41.018,7.8,7.8,0,0,1-3.25-1.07,3.038,3.038,0,0,1,.666-5.492Zm-3.711,6.688a4.883,4.883,0,0,0,3.264,1.086c1.566-.025,3.123.035,4.688.008-.008-1.625-.016-3.246.01-4.863a4.6,4.6,0,0,0-.9-2.859,4.3,4.3,0,0,0-1.859-1.6,5.09,5.09,0,0,0-2.91-.437,5.181,5.181,0,0,0-2.82,1.521,4.906,4.906,0,0,0,.529,7.145Z" transform="translate(-22250.434 -19114.699)" fill="#23a9cd"/>
    <path id="Path_1953" data-name="Path 1953" d="M24265.656,19589.771a2.433,2.433,0,0,1,.965-1.631,1.552,1.552,0,0,1,1.5-.051,2.266,2.266,0,0,1,1.346,2.229,2.193,2.193,0,0,1-1.178,1.5,7.221,7.221,0,0,1-2.693.766A7.817,7.817,0,0,1,24265.656,19589.771Zm2.656,3.729a3.772,3.772,0,0,0,2.416-.75,3.706,3.706,0,0,0,1.2-4.434,3.836,3.836,0,0,0-5.588-1.625,3.746,3.746,0,0,0-1.672,2.971c0,1.271-.043,2.541,0,3.8C24265.883,19593.523,24267.1,19593.465,24268.313,19593.5Z" transform="translate(-24229.197 -19568.521)" fill="#23a9cd"/>
    <path id="Path_1954" data-name="Path 1954" d="M20082.156,19940.92a9.173,9.173,0,0,1,3.793.557,4.327,4.327,0,0,0-2.078-1.129c-2.035-.57-4.164-.715-6.207-1.27a8.88,8.88,0,0,1-2.762-1.2,4.478,4.478,0,0,1-1.4-1.557c-.168-.318-.277-.674-.42-1.01-.656.5-1.262,1.068-1.9,1.59a1.316,1.316,0,0,0-.285.285,2.354,2.354,0,0,0,.4.59,8.062,8.062,0,0,0,4.359,2.709A25.835,25.835,0,0,0,20082.156,19940.92Z" transform="translate(-20057.09 -19915.969)" fill="#23a9cd"/>
    <path id="Path_1955" data-name="Path 1955" d="M25167.117,20021.7a5.208,5.208,0,0,1-.6,1.355,4.977,4.977,0,0,1-2.6,1.943c-1.955.732-4.057.783-6.068,1.236a5.505,5.505,0,0,0-2.859,1.262,9.127,9.127,0,0,1,1.43-.5,12.106,12.106,0,0,1,2.012-.168c1.008.059,2.02.041,3.027.109a12.465,12.465,0,0,0,3.82-.406,7.3,7.3,0,0,0,4.082-2.961c-.43-.361-.859-.715-1.279-1.086A6.27,6.27,0,0,0,25167.117,20021.7Z" transform="translate(-25114.941 -20001.906)" fill="#23a9cd"/>
    <path id="Path_1956" data-name="Path 1956" d="M21339.5,22862.047h29.709v-.246H21339.5Z" transform="translate(-21319.145 -22827.348)" fill="#fefefe"/>
    <path id="Path_1957" data-name="Path 1957" d="M24458.6,23198.426h13.609V23195H24458.6Z" transform="translate(-24422.146 -23158.826)" fill="#fefefe"/>
    <path id="Path_1958" data-name="Path 1958" d="M21339.5,24354.2h13.607v-12.8H21339.5Z" transform="translate(-21319.145 -24299.313)" fill="#fefefe"/>
    <path id="Path_1959" data-name="Path 1959" d="M21339.5,23198.426h13.607V23195H21339.5Z" transform="translate(-21319.145 -23158.826)" fill="#fefefe"/>
    <path id="Path_1960" data-name="Path 1960" d="M24458.6,24354.2h13.609v-12.8H24458.6Z" transform="translate(-24422.146 -24299.313)" fill="#fefefe"/>
    <path id="Path_1961" data-name="Path 1961" d="M21339.5,22909.3v1.475h13.607v-1.088h2.492v1.088h13.609v-1.475Z" transform="translate(-21319.145 -22874.604)" fill="#e3e1e0"/>
    <path id="Path_1962" data-name="Path 1962" d="M23975.6,22985.586h2.492v-1.086h-2.492Z" transform="translate(-23941.635 -22949.414)" fill="#1496ab"/>
    <path id="Path_1963" data-name="Path 1963" d="M23975.6,21116.492h2.492v-9.691h-2.492Z" transform="translate(-23941.635 -21081.406)" fill="#23a9cd"/>
    <path id="Path_1964" data-name="Path 1964" d="M21355.6,23198.426V23195h-2.492v3.426H21339.5v2.492h13.607v12.8h2.492v-12.8h13.609v-2.492Z" transform="translate(-21319.145 -23158.826)" fill="#23a9cd"/>
    <path id="Path_1965" data-name="Path 1965" d="M20727.2,21116.492h16.768v-9.691H20727.2Z" transform="translate(-20710.004 -21081.406)" fill="#fefefe"/>
    <path id="Path_1966" data-name="Path 1966" d="M24458.6,21116.492h16.768v-9.691H24458.6Z" transform="translate(-24422.146 -21081.406)" fill="#fefefe"/>
    <path id="Path_1967" data-name="Path 1967" d="M23881.2,20752.6a.986.986,0,0,1-.986.986h-1.246a.986.986,0,0,1,0-1.973h1.246A.986.986,0,0,1,23881.2,20752.6Z" transform="translate(-23844.521 -20728.049)" fill="#1496ab"/>
  </g>
</svg>
