<svg xmlns="http://www.w3.org/2000/svg" width="76.445" height="76.451" viewBox="0 0 76.445 76.451">
  <g id="_2522648452320" opacity="0.54">
    <path id="Path_2005" data-name="Path 2005" d="M76.7,32494.732a38.222,38.222,0,1,1-38.223-38.225A38.223,38.223,0,0,1,76.7,32494.732Z" transform="translate(-0.26 -32456.508)" fill="#4a5457"/>
    <path id="Path_2006" data-name="Path 2006" d="M54.988,36535.289l2.282-1.23,0-14.777-1.341-1-25.177,1.68-13.428-1.594-17.031,13.32c-.026.578-.041,1.156-.041,1.734A38.235,38.235,0,0,0,31.459,36571l27.161-22.906-3.633-12.809Z" transform="translate(-0.25 -36495.195)" fill="#3f4242"/>
    <path id="Path_2007" data-name="Path 2007" d="M2934.669,36513.922q19.5-.053,39,0c-.33.641-1.077.9-1.523,1.441-5.935,4.844-11.81,9.762-17.7,14.672a.377.377,0,0,1-.544-.027c-4.943-4.129-9.915-8.227-14.868-12.336C2937.64,36516.352,2935.96,36515.34,2934.669,36513.922Z" transform="translate(-2917.992 -36490.84)" fill="#f7ab0b"/>
    <path id="Path_2008" data-name="Path 2008" d="M2695.44,36713.1a9.98,9.98,0,0,1,1.98,1.563q6.745,5.613,13.48,11.25c-4.9,4.172-9.906,8.242-14.829,12.4-.185.137-.35.367-.6.367C2695.421,36731.25,2695.313,36714.18,2695.44,36713.1Z" transform="translate(-2680.063 -36688.91)" fill="#f7ab0b"/>
    <path id="Path_2009" data-name="Path 2009" d="M7328.959,36708.211a9.089,9.089,0,0,1,3.855.855c.017-6.7.021-13.574,0-14.777-2.263,1.809-14.5,11.984-15.432,12.918.244.254,2.273,1.961,4.783,4.055A9.073,9.073,0,0,1,7328.959,36708.211Z" transform="translate(-7275.794 -36670.203)" fill="#f7ab0b"/>
    <path id="Path_2010" data-name="Path 2010" d="M2952.384,39161.9c-.312-.25-.628-.5-.953-.734-1.292-1.031-2.5-2.164-3.789-3.2-.154-.109-.319-.344-.523-.223-1.388,1.039-2.6,2.313-4.011,3.293-1.417-1.039-2.652-2.371-4.126-3.324-.671.4-1.175,1.023-1.808,1.469-2.495,2.137-5.038,4.227-7.574,6.313-1.98,1.719-4.02,3.367-6.059,5.027.244.055,15.455.059,28.306.047a9.092,9.092,0,0,1,.537-8.672Z" transform="translate(-2906.926 -39119.629)" fill="#f7ab0b"/>
    <path id="Path_2011" data-name="Path 2011" d="M7961.941,39315.148c-.055-.25-.122-.5-.2-.75a7.954,7.954,0,1,0,.153,4.344c.057-.227.1-.465.141-.7a7.975,7.975,0,0,0-.093-2.891Z" transform="translate(-7901.062 -39269.949)" fill="#e4a533"/>
    <path id="Path_2012" data-name="Path 2012" d="M8274.482,39630.8a6.121,6.121,0,1,0,6.12,6.121A6.122,6.122,0,0,0,8274.482,39630.8Zm0,.758a5.363,5.363,0,1,1-5.365,5.363A5.37,5.37,0,0,1,8274.482,39631.563Z" transform="translate(-8221.37 -39590.031)" fill="#fefefe"/>
    <path id="Path_2013" data-name="Path 2013" d="M8986.472,40055.766v-.875a3.734,3.734,0,0,1-1.562-.395l.275-1.074a3.3,3.3,0,0,0,1.525.4c.523,0,.882-.2.882-.57,0-.348-.294-.566-.974-.8-.983-.332-1.653-.793-1.653-1.68a1.7,1.7,0,0,1,1.552-1.637v-.875h.9v.809a3.355,3.355,0,0,1,1.333.3l-.268,1.035a3.109,3.109,0,0,0-1.322-.309c-.6,0-.789.258-.789.512,0,.309.32.5,1.1.793,1.093.383,1.534.887,1.534,1.719a1.757,1.757,0,0,1-1.635,1.7v.941Z" transform="translate(-8933.848 -40005.117)" fill="#fefefe"/>
  </g>
</svg>
