<svg id="_2521677148880" xmlns="http://www.w3.org/2000/svg" width="73.828" height="73.83" viewBox="0 0 73.828 73.83">
  <path id="Path_1504" data-name="Path 1504" d="M34865.672,758.965a36.914,36.914,0,1,1-36.914-36.915A36.911,36.911,0,0,1,34865.672,758.965Z" transform="translate(-34791.844 -722.05)" fill="#0ba1a0"/>
  <path id="Path_1505" data-name="Path 1505" d="M34796,7089.131c.008-.252.016-.5.031-.751C34796.016,7088.629,34796.008,7088.879,34796,7089.131Z" transform="translate(-34795.977 -7053.437)" fill="#0ba1a0"/>
  <path id="Path_1506" data-name="Path 1506" d="M34804,6908.752c.016-.254.031-.509.051-.761C34804.027,6908.243,34804.012,6908.5,34804,6908.752Z" transform="translate(-34803.93 -6874.039)" fill="#0ba1a0"/>
  <path id="Path_1507" data-name="Path 1507" d="M34816.4,6728.4c.023-.268.047-.535.074-.8C34816.445,6727.868,34816.422,6728.136,34816.4,6728.4Z" transform="translate(-34816.262 -6694.638)" fill="#0ba1a0"/>
  <path id="Path_1508" data-name="Path 1508" d="M34791.8,7269.285c0-.331,0-.658.016-.985C34791.809,7268.627,34791.8,7268.954,34791.8,7269.285Z" transform="translate(-34791.805 -7232.37)" fill="#0ba1a0"/>
  <path id="Path_1509" data-name="Path 1509" d="M34833.1,6549c.031-.286.066-.569.1-.85C34833.168,6548.431,34833.133,6548.714,34833.1,6549Z" transform="translate(-34832.875 -6516.173)" fill="#0ba1a0"/>
  <path id="Path_1510" data-name="Path 1510" d="M34805.6,7872.932c-.027-.317-.051-.637-.07-.951Q34805.561,7872.456,34805.6,7872.932Z" transform="translate(-34805.457 -7832.737)" fill="#0ba1a0"/>
  <path id="Path_1511" data-name="Path 1511" d="M34793.77,7598.684l-.012-.364C34793.762,7598.442,34793.766,7598.564,34793.77,7598.684Z" transform="translate(-34793.75 -7560.579)" fill="#0ba1a0"/>
  <path id="Path_1512" data-name="Path 1512" d="M34798.648,7742.716l-.023-.475Z" transform="translate(-34798.59 -7703.71)" fill="#0ba1a0"/>
  <path id="Path_1513" data-name="Path 1513" d="M34854.2,6370.073c.039-.3.086-.6.133-.894C34854.289,6369.476,34854.242,6369.774,34854.2,6370.073Z" transform="translate(-34853.859 -6338.185)" fill="#0ba1a0"/>
  <path id="Path_1514" data-name="Path 1514" d="M34879.7,6193.02c.051-.312.109-.621.164-.928C34879.8,6192.4,34879.746,6192.708,34879.7,6193.02Z" transform="translate(-34879.211 -6162.068)" fill="#0ba1a0"/>
  <path id="Path_1515" data-name="Path 1515" d="M34909.9,6018.79c.059-.314.121-.629.188-.94C34910.02,6018.161,34909.957,6018.476,34909.9,6018.79Z" transform="translate(-34909.25 -5988.783)" fill="#0ba1a0"/>
  <path id="Path_1516" data-name="Path 1516" d="M34824.586,8113.733c-.008-.1-.02-.189-.031-.283C34824.566,8113.544,34824.578,8113.638,34824.586,8113.733Z" transform="translate(-34824.375 -8072.881)" fill="#0ba1a0"/>
  <path id="Path_1517" data-name="Path 1517" d="M34878.3,6361.174a.153.153,0,0,1,.008-.044A.153.153,0,0,0,34878.3,6361.174Z" transform="translate(-34877.82 -6330.179)" fill="#108c84"/>
  <path id="Path_1518" data-name="Path 1518" d="M34795.688,7665.026c-.008-.14-.012-.283-.016-.426C34795.676,7664.743,34795.68,7664.884,34795.688,7665.026Z" transform="translate(-34795.652 -7626.495)" fill="#108c84"/>
  <path id="Path_1519" data-name="Path 1519" d="M34944.7,6016.91v0Z" transform="translate(-34943.855 -5987.849)" fill="#108c84"/>
  <path id="Path_1520" data-name="Path 1520" d="M34818.664,8045.645c-.012-.125-.02-.25-.031-.374C34818.645,8045.4,34818.652,8045.52,34818.664,8045.645Z" transform="translate(-34818.484 -8005.076)" fill="#108c84"/>
  <path id="Path_1521" data-name="Path 1521" d="M34802.781,7829.126c-.008-.08-.016-.159-.016-.236C34802.766,7828.967,34802.773,7829.046,34802.781,7829.126Z" transform="translate(-34802.707 -7789.883)" fill="#108c84"/>
  <path id="Path_1522" data-name="Path 1522" d="M34791.871,7448.566q-.012-.413-.012-.826Q34791.859,7448.153,34791.871,7448.566Z" transform="translate(-34791.859 -7410.825)" fill="#108c84"/>
  <path id="Path_1523" data-name="Path 1523" d="M34830.3,6703.1c0-.044.012-.091.016-.135C34830.309,6703.014,34830.3,6703.061,34830.3,6703.1Z" transform="translate(-34830.086 -6670.143)" fill="#108c84"/>
  <path id="Path_1524" data-name="Path 1524" d="M34851.9,6532.138c0-.031.008-.06.012-.088C34851.906,6532.078,34851.9,6532.107,34851.9,6532.138Z" transform="translate(-34851.57 -6500.161)" fill="#108c84"/>
  <path id="Path_1525" data-name="Path 1525" d="M34801.4,7046.939c0-.078.012-.153.016-.229C34801.406,7046.786,34801.4,7046.861,34801.4,7046.939Z" transform="translate(-34801.348 -7011.997)" fill="#108c84"/>
  <path id="Path_1526" data-name="Path 1526" d="M34813.4,6874.086c0-.062.012-.125.016-.187C34813.41,6873.962,34813.4,6874.024,34813.4,6874.086Z" transform="translate(-34813.281 -6840.134)" fill="#108c84"/>
  <path id="Path_1527" data-name="Path 1527" d="M34909.4,6189.266v0Z" transform="translate(-34908.754 -6159.242)" fill="#108c84"/>
  <path id="Path_1528" data-name="Path 1528" d="M34794.3,7225.446c0-.08.008-.158.008-.236C34794.3,7225.288,34794.3,7225.366,34794.3,7225.446Z" transform="translate(-34794.285 -7189.517)" fill="#108c84"/>
  <path id="Path_1529" data-name="Path 1529" d="M34849.781,4118.64l6.152-2.481-12.324-22.333-17.406-12.495-20.891,2.04-12.629,8.583,0,.005c-.066.312-.125.626-.187.941v.016q-.094.46-.164.927a.16.16,0,0,0-.008.044c-.051.3-.094.6-.133.894a.626.626,0,0,0-.016.088c-.039.281-.07.564-.1.85-.008.044-.008.091-.016.135-.027.268-.055.535-.078.8a1.5,1.5,0,0,1-.016.187c-.02.252-.035.507-.051.761,0,.076-.012.151-.012.229-.016.25-.023.5-.031.751,0,.078-.008.156-.008.237-.012.327-.016.655-.016.984,0,.276,0,.551.008.827.008.122.008.241.016.363,0,.143.008.286.016.426,0,.159.012.317.023.476,0,.078.008.156.012.237.02.314.043.634.074.951.008.125.02.249.031.374.008.094.02.187.031.283a36.939,36.939,0,0,0,28.039,31.954l27.672-14.413Z" transform="translate(-34791.844 -4062.892)" fill="#108c84"/>
  <path id="Path_1530" data-name="Path 1530" d="M38178.7,10187.255a2.111,2.111,0,1,1-2.1-2.315A2.215,2.215,0,0,1,38178.7,10187.255Z" transform="translate(-38155.926 -10133.001)" fill="#fdfcf1"/>
  <path id="Path_1531" data-name="Path 1531" d="M44153.539,10148.469a2.15,2.15,0,1,1-2.137-2.389A2.271,2.271,0,0,1,44153.539,10148.469Z" transform="translate(-44097.906 -10094.354)" fill="#fdfcf1"/>
  <path id="Path_1532" data-name="Path 1532" d="M44058.4,7080.331v8.771l7.344-.5.07-1-2-6.489Z" transform="translate(-44007.543 -7045.433)" fill="#494546"/>
  <path id="Path_1533" data-name="Path 1533" d="M45562.4,9624.414h3.867v-2.294h-3.867Z" transform="translate(-45503.281 -9573.271)" fill="#f1931f"/>
  <path id="Path_1534" data-name="Path 1534" d="M43625.727,9733.309a1.414,1.414,0,0,1-2.359-1.3,1.422,1.422,0,1,1,2.359,1.3Zm-.961-5.818a4.772,4.772,0,1,0,4.77,4.771A4.772,4.772,0,0,0,43624.766,9727.49Z" transform="translate(-43571.535 -9678.063)" fill="#2b2a29"/>
  <path id="Path_1535" data-name="Path 1535" d="M37721.57,9733.309a1.428,1.428,0,0,1-2.391-1.047,1.92,1.92,0,0,1,.027-.26,1.42,1.42,0,0,1,2.566-.551,1.363,1.363,0,0,1,.234.551,1.444,1.444,0,0,1,.023.26A1.421,1.421,0,0,1,37721.57,9733.309Zm-.953-5.818h-.023a4.768,4.768,0,0,0-4.687,3.96,4.6,4.6,0,0,0-.07.812,4.771,4.771,0,1,0,9.543,0,5.016,5.016,0,0,0-.07-.812A4.772,4.772,0,0,0,37720.617,9727.49Z" transform="translate(-37699.785 -9678.063)" fill="#2b2a29"/>
  <path id="Path_1536" data-name="Path 1536" d="M37587.688,6149.587c-1.234.044-2.488.044-3.723.021-.023-.743-.023-1.469,0-2.212,1.234-.023,2.465-.023,3.7,0C37587.711,6148.139,37587.711,6148.864,37587.688,6149.587Zm-11.4-8.711c-.02-2.118-.062-4.236.02-6.354,1.418,0,2.855-.021,4.277.039.555,2.1,1.238,4.176,1.8,6.294C37580.344,6140.9,37578.328,6140.875,37576.289,6140.875Zm11.629,8.552c-.02-2.178.043-4.337-.043-6.515-.687-.317-1.391-.637-2.094-.964-.488-.227-.977-.458-1.461-.694a1.611,1.611,0,0,1-.18-.086c-.992-.532-.961-1.868-1.336-2.812-.395-1.6-1.039-3.16-1.43-4.761a9.767,9.767,0,0,1-.312-3.113c-2.844-.039-6.055-.021-8.883,0h.352l-.379,0-.012,3.493.012.013c-.012,4.649-.051,9.3,0,13.953h-.531v-18.62a1.132,1.132,0,0,0-1.133-1.136h-29.32a1.138,1.138,0,0,0-1.137,1.136v18.62h-.137v3.96h.734a.246.246,0,0,0,.008-.052,5.051,5.051,0,0,1,3.281-3.909h-.012a4.814,4.814,0,0,1,3.625.083h.027a5.054,5.054,0,0,1,3.07,3.826.236.236,0,0,0,0,.052l21.965,0c.7-2.217,2.438-4.355,4.934-4.5a5.526,5.526,0,0,1,5.914,4.358c1.816.019,3.637.019,5.457.019,0-.759.016-1.539.016-2.3Z" transform="translate(-37524.809 -6098.519)" fill="#fefefe"/>
  <path id="Path_1537" data-name="Path 1537" d="M38029.2,6282.167h27.246V6263.96H38029.2Z" transform="translate(-38011.426 -6233.542)" fill="#bfbcbd"/>
  <path id="Path_1538" data-name="Path 1538" d="M38161.4,7166.911h12.4v-13.722h-12.4Z" transform="translate(-38142.902 -7117.891)" fill="#fcfbfb"/>
  <path id="Path_1539" data-name="Path 1539" d="M40582.3,7166.911h12.4v-13.722h-12.4Z" transform="translate(-40550.516 -7117.891)" fill="#fcfbfb"/>
  <path id="Path_1540" data-name="Path 1540" d="M37565.234,6134.895a2.45,2.45,0,0,1,4.773,0h.234a2.487,2.487,0,0,0,2.484-2.261,2.453,2.453,0,0,0,2.375,1.829h.234a2.45,2.45,0,0,1,4.813,0h.234a2.452,2.452,0,0,1,4.816.227h.234a2.452,2.452,0,0,1,4.816,0h.234a2.45,2.45,0,0,1,4.813-.494h.238a2.444,2.444,0,0,0,.8-.138v-4.742a1.136,1.136,0,0,0-1.137-1.136h-29.32a1.138,1.138,0,0,0-1.137,1.136v5.566a2.066,2.066,0,0,0,.254.013Z" transform="translate(-37549.527 -6098.507)" fill="#bfbcbd"/>
  <path id="Path_1541" data-name="Path 1541" d="M43424.137,6541.629c-2.848-.039-6.059-.021-8.883,0h.348l-.375.005-.016,3.329a1.782,1.782,0,1,1,3.492.614h.234a2.45,2.45,0,0,1,4.813,0h.234a2.518,2.518,0,0,0,.664-.091c-.07-.247-.141-.493-.2-.743A9.876,9.876,0,0,1,43424.137,6541.629Z" transform="translate(-43367.879 -6509.665)" fill="#bfbcbd"/>
  <path id="Path_1542" data-name="Path 1542" d="M37183,4444.542a.736.736,0,0,1-.023-.091c.012-.052.016-.1.023-.153s-.012-.085-.012-.127a1.375,1.375,0,0,1-.012-.179,1.375,1.375,0,0,0,.012.179c0,.042.008.086.012.127s.012.1.02.153C37183.02,4444.483,37183.008,4444.512,37183,4444.542Zm.473,10.647a.679.679,0,0,1-.016-.127,1.346,1.346,0,0,1-.008-.18v-11.8h-5.051v11.8a2.45,2.45,0,0,0,2.449,2.451h.238a2.453,2.453,0,0,0,2.387-1.9l-.023-.094C37183.461,4455.293,37183.469,4455.241,37183.477,4455.189Z" transform="translate(-37165.305 -4422.656)" fill="#e94f50"/>
  <path id="Path_1543" data-name="Path 1543" d="M37183.453,3853l3.141-3.181-3,0L37178.4,3853v.075h5.051Z" transform="translate(-37165.305 -3832.653)" fill="#b92829"/>
  <path id="Path_1544" data-name="Path 1544" d="M38098.5,3852.132h5.047v-.075l2.016-3.186-3.918,0-3.145,3.181Z" transform="translate(-38080.352 -3831.708)" fill="#ece3eb"/>
  <path id="Path_1545" data-name="Path 1545" d="M38103.586,4443.08h-5.047v11.8c0,.063,0,.123.008.18s.008.085.016.127a1,1,0,0,0,.02.153.821.821,0,0,1-.02.094,2.445,2.445,0,0,0,2.383,1.9h.234a2.494,2.494,0,0,0,2.488-2.261,2.488,2.488,0,0,1-.082-.621Z" transform="translate(-38080.391 -4422.657)" fill="#fefefe"/>
  <path id="Path_1546" data-name="Path 1546" d="M38098.5,6593.6c0,.062,0,.122.008.179C38098.5,6593.723,38098.5,6593.663,38098.5,6593.6Z" transform="translate(-38080.352 -6561.374)" fill="#fefefe"/>
  <path id="Path_1547" data-name="Path 1547" d="M38012.688,4609.449a1.372,1.372,0,0,1-.008-.179A1.372,1.372,0,0,0,38012.688,4609.449Z" transform="translate(-37995.004 -4587.935)" fill="#656265"/>
  <path id="Path_1548" data-name="Path 1548" d="M38012.7,4665.293a.048.048,0,1,0,.039,0c-.008-.052-.012-.1-.02-.153C38012.719,4665.191,38012.711,4665.241,38012.7,4665.293Z" transform="translate(-37995.027 -4643.498)" fill="#656265"/>
  <path id="Path_1549" data-name="Path 1549" d="M39023.539,4443.069h-5.047v11.372a2.488,2.488,0,0,0,.078.621,2.452,2.452,0,0,0,2.371,1.83h.234a2.455,2.455,0,0,0,2.41-1.991,2.227,2.227,0,0,1-.047-.46Z" transform="translate(-38995.293 -4422.646)" fill="#e94f50"/>
  <path id="Path_1550" data-name="Path 1550" d="M39018.5,3850.719h5.047v-.075l1.141-3.194-4.168.008-2.02,3.186v.075Z" transform="translate(-38995.301 -3830.295)" fill="#b92829"/>
  <path id="Path_1551" data-name="Path 1551" d="M39938.508,3849.774h5.047V3846.5l-3.906.005-1.141,3.194Z" transform="translate(-39910.258 -3829.351)" fill="#ece3eb"/>
  <path id="Path_1552" data-name="Path 1552" d="M39943.539,4443.08h-5.047v11.372a2.942,2.942,0,0,0,.039.46,2.455,2.455,0,0,0,2.41,1.991h.234a2.45,2.45,0,0,0,2.387-1.9,2.282,2.282,0,0,1-.023-.33Z" transform="translate(-39910.242 -4422.657)" fill="#fefefe"/>
  <path id="Path_1553" data-name="Path 1553" d="M40863.555,3848.363v-.023h-.016v-3.259l-5.039.008v3.274Z" transform="translate(-40825.203 -3827.939)" fill="#b92829"/>
  <path id="Path_1554" data-name="Path 1554" d="M40863.531,4443.08h-5.047v11.6a2.284,2.284,0,0,0,.023.33,2.45,2.45,0,0,0,2.426,2.121h.234a2.455,2.455,0,0,0,2.41-1.991,2.263,2.263,0,0,1-.047-.46Z" transform="translate(-40825.188 -4422.657)" fill="#e94f50"/>
  <path id="Path_1555" data-name="Path 1555" d="M41776.023,3847.352v.075h5.047v-.075l-1.254-3.212-3.809.005v3.207Z" transform="translate(-41737.676 -3827.004)" fill="#ece3eb"/>
  <path id="Path_1556" data-name="Path 1556" d="M41783.539,4443.08h-5.047v11.6a2.994,2.994,0,0,0,.039.46,2.459,2.459,0,0,0,2.414,1.991h.234a2.451,2.451,0,0,0,2.445-2.311,2.433,2.433,0,0,1-.086-.634Z" transform="translate(-41740.145 -4422.657)" fill="#fefefe"/>
  <path id="Path_1557" data-name="Path 1557" d="M42703.539,4443.08h-5.047v11.1a2.429,2.429,0,0,0,.078.634,2.455,2.455,0,0,0,2.367,1.816h.238a2.446,2.446,0,0,0,2.387-1.894,2.328,2.328,0,0,1-.023-.333Z" transform="translate(-42655.094 -4422.657)" fill="#e94f50"/>
  <path id="Path_1558" data-name="Path 1558" d="M42471.445,3846.015h5.055v-.07l-1.141-1.681-1.047-1.543-4.117.008,1.25,3.212Z" transform="translate(-42428.051 -3825.592)" fill="#b92829"/>
  <path id="Path_1559" data-name="Path 1559" d="M43223.578,3845v.07h5.047v-.055l-3.461-3.246-3.766,0,1.043,1.544,1.137,1.676Z" transform="translate(-43175.133 -3824.647)" fill="#ece3eb"/>
  <path id="Path_1560" data-name="Path 1560" d="M43623.539,4443.08h-5.051v11.328a3.08,3.08,0,0,0,.023.333,2.447,2.447,0,0,0,2.426,2.118h.238a2.445,2.445,0,0,0,2.406-1.99,2.533,2.533,0,0,1-.043-.46Z" transform="translate(-43570.043 -4422.657)" fill="#fefefe"/>
  <path id="Path_1561" data-name="Path 1561" d="M43920.379,3843.658v-.075l-4.781-3.233-3.793.008,3.438,3.225v.075Z" transform="translate(-43861.75 -3823.235)" fill="#b92829"/>
  <path id="Path_1562" data-name="Path 1562" d="M44538.5,4443.07V4454.4a2.227,2.227,0,0,0,.047.46,2.445,2.445,0,0,0,2.406,1.99h.234a2.45,2.45,0,0,0,2.449-2.45V4443.07Z" transform="translate(-44485.004 -4422.647)" fill="#e94f50"/>
  <path id="Path_1563" data-name="Path 1563" d="M38420.1,8562.635h.477v-.436h-.477Z" transform="translate(-38400.188 -8519.167)" fill="#e85054"/>
  <path id="Path_1564" data-name="Path 1564" d="M38420.1,8642.771h.477v-1.521h-.477Z" transform="translate(-38400.188 -8597.784)" fill="#89c6b9"/>
  <path id="Path_1565" data-name="Path 1565" d="M38313.4,9315.419h1.648v-1.13h-1.648Z" transform="translate(-38294.07 -9267.129)" fill="#89c6b9"/>
  <path id="Path_1566" data-name="Path 1566" d="M38315.055,8840.115a.824.824,0,1,0-1.648,0v.7h1.648Z" transform="translate(-38294.078 -8794.736)" fill="#89c6b9"/>
  <path id="Path_1567" data-name="Path 1567" d="M38313.4,9117.785h1.648V9116.7h-1.648Z" transform="translate(-38294.07 -9070.624)" fill="#e85054"/>
  <path id="Path_1568" data-name="Path 1568" d="M38821.8,8562.635h.477v-.436h-.477Z" transform="translate(-38799.676 -8519.167)" fill="#e85054"/>
  <path id="Path_1569" data-name="Path 1569" d="M38821.8,8642.771h.477v-1.521h-.477Z" transform="translate(-38799.676 -8597.784)" fill="#89c6b9"/>
  <path id="Path_1570" data-name="Path 1570" d="M38714.9,9315.419h1.648v-1.13h-1.648Z" transform="translate(-38693.367 -9267.129)" fill="#89c6b9"/>
  <path id="Path_1571" data-name="Path 1571" d="M38716.508,8840.115a.824.824,0,1,0-1.648,0v.7h1.648Z" transform="translate(-38693.328 -8794.736)" fill="#89c6b9"/>
  <path id="Path_1572" data-name="Path 1572" d="M38714.9,9117.785h1.648V9116.7h-1.648Z" transform="translate(-38693.367 -9070.624)" fill="#e85054"/>
  <path id="Path_1573" data-name="Path 1573" d="M39223.3,8562.635h.477v-.436h-.477Z" transform="translate(-39198.973 -8519.167)" fill="#e85054"/>
  <path id="Path_1574" data-name="Path 1574" d="M39223.3,8642.771h.477v-1.521h-.477Z" transform="translate(-39198.973 -8597.784)" fill="#89c6b9"/>
  <path id="Path_1575" data-name="Path 1575" d="M39116.4,9315.419h1.648v-1.13h-1.648Z" transform="translate(-39092.66 -9267.129)" fill="#89c6b9"/>
  <path id="Path_1576" data-name="Path 1576" d="M39118.055,8840.115a.824.824,0,1,0-1.648,0v.7h1.648Z" transform="translate(-39092.668 -8794.736)" fill="#89c6b9"/>
  <path id="Path_1577" data-name="Path 1577" d="M39116.4,9117.785h1.648V9116.7h-1.648Z" transform="translate(-39092.66 -9070.624)" fill="#e85054"/>
  <path id="Path_1578" data-name="Path 1578" d="M39625,8562.635h.477v-.436H39625Z" transform="translate(-39598.473 -8519.167)" fill="#e85054"/>
  <path id="Path_1579" data-name="Path 1579" d="M39625,8642.771h.477v-1.521H39625Z" transform="translate(-39598.473 -8597.784)" fill="#89c6b9"/>
  <path id="Path_1580" data-name="Path 1580" d="M39518.1,9315.419h1.652v-1.13h-1.652Z" transform="translate(-39492.16 -9267.129)" fill="#89c6b9"/>
  <path id="Path_1581" data-name="Path 1581" d="M39519.7,8840.115a.824.824,0,1,0-1.648,0v.7h1.648Z" transform="translate(-39492.105 -8794.736)" fill="#89c6b9"/>
  <path id="Path_1582" data-name="Path 1582" d="M39518.1,9117.785h1.652V9116.7h-1.652Z" transform="translate(-39492.16 -9070.624)" fill="#e85054"/>
  <path id="Path_1583" data-name="Path 1583" d="M40026.5,8562.635h.48v-.436h-.48Z" transform="translate(-39997.773 -8519.167)" fill="#e85054"/>
  <path id="Path_1584" data-name="Path 1584" d="M40026.5,8642.771h.48v-1.521h-.48Z" transform="translate(-39997.773 -8597.784)" fill="#89c6b9"/>
  <path id="Path_1585" data-name="Path 1585" d="M39919.6,9315.419h1.652v-1.13h-1.652Z" transform="translate(-39891.453 -9267.129)" fill="#89c6b9"/>
  <path id="Path_1586" data-name="Path 1586" d="M39921.3,8840.115a.824.824,0,1,0-1.648,0v.7h1.648Z" transform="translate(-39891.512 -8794.736)" fill="#89c6b9"/>
  <path id="Path_1587" data-name="Path 1587" d="M39919.6,9117.785h1.652V9116.7h-1.652Z" transform="translate(-39891.453 -9070.624)" fill="#e85054"/>
  <path id="Path_1588" data-name="Path 1588" d="M38417.7,7418.245h.477v-.435h-.477Z" transform="translate(-38397.801 -7381.06)" fill="#e85054"/>
  <path id="Path_1589" data-name="Path 1589" d="M38417.7,7498.362h.477v-1.521h-.477Z" transform="translate(-38397.801 -7459.656)" fill="#89c6b9"/>
  <path id="Path_1590" data-name="Path 1590" d="M38310.7,8171.021h1.652v-1.13h-1.652Z" transform="translate(-38291.387 -8129.012)" fill="#89c6b9"/>
  <path id="Path_1591" data-name="Path 1591" d="M38312.4,7695.726a.824.824,0,1,0-1.648,0v.694h1.648Z" transform="translate(-38291.438 -7656.628)" fill="#89c6b9"/>
  <path id="Path_1592" data-name="Path 1592" d="M38310.7,7972.947h1.652v-1.086h-1.652Z" transform="translate(-38291.387 -7932.068)" fill="#e85054"/>
  <path id="Path_1593" data-name="Path 1593" d="M38819.2,7418.245h.477v-.435h-.477Z" transform="translate(-38797.09 -7381.06)" fill="#e85054"/>
  <path id="Path_1594" data-name="Path 1594" d="M38819.2,7498.362h.477v-1.521h-.477Z" transform="translate(-38797.09 -7459.656)" fill="#89c6b9"/>
  <path id="Path_1595" data-name="Path 1595" d="M38712.2,8171.021h1.648v-1.13h-1.648Z" transform="translate(-38690.68 -8129.012)" fill="#89c6b9"/>
  <path id="Path_1596" data-name="Path 1596" d="M38713.859,7695.726a.828.828,0,0,0-1.656,0v.694h1.656Z" transform="translate(-38690.688 -7656.628)" fill="#89c6b9"/>
  <path id="Path_1597" data-name="Path 1597" d="M38712.2,7972.947h1.648v-1.086h-1.648Z" transform="translate(-38690.68 -7932.068)" fill="#e85054"/>
  <path id="Path_1598" data-name="Path 1598" d="M39220.8,7418.245h.477v-.435h-.477Z" transform="translate(-39196.496 -7381.06)" fill="#e85054"/>
  <path id="Path_1599" data-name="Path 1599" d="M39220.8,7498.362h.477v-1.521h-.477Z" transform="translate(-39196.496 -7459.656)" fill="#89c6b9"/>
  <path id="Path_1600" data-name="Path 1600" d="M39113.891,8171.021h1.652v-1.13h-1.652Z" transform="translate(-39090.168 -8129.012)" fill="#89c6b9"/>
  <path id="Path_1601" data-name="Path 1601" d="M39115.609,7695.726a.824.824,0,1,0-1.648,0v.694h1.648Z" transform="translate(-39090.238 -7656.628)" fill="#89c6b9"/>
  <path id="Path_1602" data-name="Path 1602" d="M39113.891,7972.947h1.652v-1.086h-1.652Z" transform="translate(-39090.168 -7932.068)" fill="#e85054"/>
  <path id="Path_1603" data-name="Path 1603" d="M39622.4,7418.245h.477v-.435h-.477Z" transform="translate(-39595.887 -7381.06)" fill="#e85054"/>
  <path id="Path_1604" data-name="Path 1604" d="M39622.4,7498.362h.477v-1.521h-.477Z" transform="translate(-39595.887 -7459.656)" fill="#89c6b9"/>
  <path id="Path_1605" data-name="Path 1605" d="M39515.4,8171.021h1.648v-1.13h-1.648Z" transform="translate(-39489.473 -8129.012)" fill="#89c6b9"/>
  <path id="Path_1606" data-name="Path 1606" d="M39517.07,7695.726a.824.824,0,1,0-1.648,0v.694h1.648Z" transform="translate(-39489.496 -7656.628)" fill="#89c6b9"/>
  <path id="Path_1607" data-name="Path 1607" d="M39515.4,7972.947h1.648v-1.086h-1.648Z" transform="translate(-39489.473 -7932.068)" fill="#e85054"/>
  <path id="Path_1608" data-name="Path 1608" d="M40023.9,7418.245h.477v-.435h-.477Z" transform="translate(-39995.18 -7381.06)" fill="#e85054"/>
  <path id="Path_1609" data-name="Path 1609" d="M40023.9,7498.362h.477v-1.521h-.477Z" transform="translate(-39995.18 -7459.656)" fill="#89c6b9"/>
  <path id="Path_1610" data-name="Path 1610" d="M39917.008,8171.021h1.652v-1.13h-1.652Z" transform="translate(-39888.879 -8129.012)" fill="#89c6b9"/>
  <path id="Path_1611" data-name="Path 1611" d="M39918.6,7695.726a.824.824,0,1,0-1.648,0v.694h1.648Z" transform="translate(-39888.824 -7656.628)" fill="#89c6b9"/>
  <path id="Path_1612" data-name="Path 1612" d="M39917.008,7972.947h1.652v-1.086h-1.652Z" transform="translate(-39888.879 -7932.068)" fill="#e85054"/>
  <path id="Path_1613" data-name="Path 1613" d="M40795.9,8742.218l.516-.463,1.313,0-.469.465Z" transform="translate(-40762.945 -8697.732)" fill="#4ebbc4"/>
  <path id="Path_1614" data-name="Path 1614" d="M41045.047,8742.21l-.375-.46-.469.465Z" transform="translate(-41009.887 -8697.732)" fill="#1b7a9c"/>
  <path id="Path_1615" data-name="Path 1615" d="M40891.215,8704.35l-1.316,0v.206l1.316-.006Z" transform="translate(-40856.426 -8660.538)" fill="#ddeff0"/>
  <path id="Path_1616" data-name="Path 1616" d="M40797.258,8826.5l-1.359,0,0,1.342h1.363Z" transform="translate(-40762.945 -8782.018)" fill="#ddeff0"/>
  <path id="Path_1617" data-name="Path 1617" d="M40797.4,9259.258l.008,1.406,1.359-.006,0-1.4Z" transform="translate(-40764.438 -9212.4)" fill="#ddeff0"/>
  <path id="Path_1618" data-name="Path 1618" d="M41045.055,8826.909l-.008-1.349-.844,0,0,1.344Z" transform="translate(-41009.887 -8781.083)" fill="#4ebbc4"/>
  <path id="Path_1619" data-name="Path 1619" d="M41045.6,9260.658l.852,0,0-1.4h-.848Z" transform="translate(-41011.277 -9212.4)" fill="#4ebbc4"/>
  <path id="Path_1620" data-name="Path 1620" d="M40798.164,9071.291h-1.363l0,1.031h1.359Z" transform="translate(-40763.84 -9025.465)" fill="#4ebbc4"/>
  <path id="Path_1621" data-name="Path 1621" d="M41045,9071.291l0,1.031h.848l0-1.031Z" transform="translate(-41010.68 -9025.465)" fill="#1b7a9c"/>
  <path id="Path_1622" data-name="Path 1622" d="M41281.9,8742.218l.516-.463,1.313,0-.469.465Z" transform="translate(-41246.277 -8697.732)" fill="#4ebbc4"/>
  <path id="Path_1623" data-name="Path 1623" d="M41530.949,8742.21l-.379-.46-.469.465Z" transform="translate(-41493.117 -8697.732)" fill="#1b7a9c"/>
  <path id="Path_1624" data-name="Path 1624" d="M41377.109,8704.35l-1.312,0v.206l1.313-.006Z" transform="translate(-41339.66 -8660.538)" fill="#ddeff0"/>
  <path id="Path_1625" data-name="Path 1625" d="M41283.258,8826.5l-1.359,0,0,1.342h1.363Z" transform="translate(-41246.277 -8782.018)" fill="#ddeff0"/>
  <path id="Path_1626" data-name="Path 1626" d="M41283.5,9259.258l0,1.406,1.363-.006-.008-1.4Z" transform="translate(-41247.867 -9212.4)" fill="#ddeff0"/>
  <path id="Path_1627" data-name="Path 1627" d="M41530.953,8826.909l0-1.349-.848,0,0,1.344Z" transform="translate(-41493.117 -8781.083)" fill="#4ebbc4"/>
  <path id="Path_1628" data-name="Path 1628" d="M41531.605,9260.658l.848,0,0-1.4h-.848Z" transform="translate(-41494.609 -9212.4)" fill="#4ebbc4"/>
  <path id="Path_1629" data-name="Path 1629" d="M41284.164,9071.291h-1.363l0,1.031h1.359Z" transform="translate(-41247.172 -9025.465)" fill="#4ebbc4"/>
  <path id="Path_1630" data-name="Path 1630" d="M41531,9071.291v1.031h.852l0-1.031Z" transform="translate(-41494.012 -9025.465)" fill="#1b7a9c"/>
  <path id="Path_1631" data-name="Path 1631" d="M41767.9,8742.218l.516-.463,1.313,0-.469.465Z" transform="translate(-41729.609 -8697.732)" fill="#4ebbc4"/>
  <path id="Path_1632" data-name="Path 1632" d="M42016.949,8742.21l-.379-.46-.469.465Z" transform="translate(-41976.449 -8697.732)" fill="#1b7a9c"/>
  <path id="Path_1633" data-name="Path 1633" d="M41863.113,8704.35l-1.316,0v.206l1.316-.006Z" transform="translate(-41822.992 -8660.538)" fill="#ddeff0"/>
  <path id="Path_1634" data-name="Path 1634" d="M41769.258,8826.5l-1.359,0,0,1.342h1.363Z" transform="translate(-41729.609 -8782.018)" fill="#ddeff0"/>
  <path id="Path_1635" data-name="Path 1635" d="M41769.4,9259.258l.008,1.406,1.359-.006-.008-1.4Z" transform="translate(-41731.102 -9212.4)" fill="#ddeff0"/>
  <path id="Path_1636" data-name="Path 1636" d="M42016.953,8826.909l0-1.349-.848,0,0,1.344Z" transform="translate(-41976.449 -8781.083)" fill="#4ebbc4"/>
  <path id="Path_1637" data-name="Path 1637" d="M42017.7,9260.658l.848,0v-1.4h-.852Z" transform="translate(-41978.035 -9212.4)" fill="#4ebbc4"/>
  <path id="Path_1638" data-name="Path 1638" d="M41770.156,9071.291h-1.359l0,1.031h1.363Z" transform="translate(-41730.5 -9025.465)" fill="#4ebbc4"/>
  <path id="Path_1639" data-name="Path 1639" d="M42017,9071.291l0,1.031h.848l0-1.031Z" transform="translate(-41977.344 -9025.465)" fill="#1b7a9c"/>
  <path id="Path_1640" data-name="Path 1640" d="M42253.9,8742.218l.516-.463,1.313,0-.469.465Z" transform="translate(-42212.941 -8697.732)" fill="#4ebbc4"/>
  <path id="Path_1641" data-name="Path 1641" d="M42502.953,8742.21l-.383-.46-.469.465Z" transform="translate(-42459.781 -8697.732)" fill="#1b7a9c"/>
  <path id="Path_1642" data-name="Path 1642" d="M42349.109,8704.35l-1.312,0v.206l1.313-.006Z" transform="translate(-42306.324 -8660.538)" fill="#ddeff0"/>
  <path id="Path_1643" data-name="Path 1643" d="M42255.258,8826.5l-1.359,0,.008,1.342h1.359Z" transform="translate(-42212.941 -8782.018)" fill="#ddeff0"/>
  <path id="Path_1644" data-name="Path 1644" d="M42255.4,9259.258v1.406l1.367-.006-.008-1.4Z" transform="translate(-42214.434 -9212.4)" fill="#ddeff0"/>
  <path id="Path_1645" data-name="Path 1645" d="M42502.953,8826.909v-1.349l-.852,0,0,1.344Z" transform="translate(-42459.781 -8781.083)" fill="#4ebbc4"/>
  <path id="Path_1646" data-name="Path 1646" d="M42503.7,9260.658l.848,0,0-1.4h-.848Z" transform="translate(-42461.367 -9212.4)" fill="#4ebbc4"/>
  <path id="Path_1647" data-name="Path 1647" d="M42256.164,9071.291h-1.359l0,1.031h1.363Z" transform="translate(-42213.844 -9025.465)" fill="#4ebbc4"/>
  <path id="Path_1648" data-name="Path 1648" d="M42502.891,9071.291v1.031h.852l0-1.031Z" transform="translate(-42460.566 -9025.465)" fill="#1b7a9c"/>
  <path id="Path_1649" data-name="Path 1649" d="M40821,7659.388l.516-.465,1.313,0-.469.462Z" transform="translate(-40787.906 -7620.846)" fill="#4ebbc4"/>
  <path id="Path_1650" data-name="Path 1650" d="M41070.051,7659.38l-.379-.46-.469.462Z" transform="translate(-41034.75 -7620.846)" fill="#1b7a9c"/>
  <path id="Path_1651" data-name="Path 1651" d="M40916.223,7621.51l-1.316.005v.2l1.316,0Z" transform="translate(-40881.297 -7583.641)" fill="#ddeff0"/>
  <path id="Path_1652" data-name="Path 1652" d="M40822.359,7743.2l-1.359,0v1.338h1.367Z" transform="translate(-40787.906 -7704.665)" fill="#ddeff0"/>
  <path id="Path_1653" data-name="Path 1653" d="M40822.5,8176.431l0,1.406,1.359-.005v-1.4Z" transform="translate(-40789.402 -8135.516)" fill="#ddeff0"/>
  <path id="Path_1654" data-name="Path 1654" d="M41070.055,7744.066l0-1.346-.848,0,0,1.343Z" transform="translate(-41034.75 -7704.187)" fill="#4ebbc4"/>
  <path id="Path_1655" data-name="Path 1655" d="M41070.7,8177.831l.852,0-.008-1.4h-.852Z" transform="translate(-41036.23 -8135.516)" fill="#4ebbc4"/>
  <path id="Path_1656" data-name="Path 1656" d="M40823.156,7987.98h-1.359l0,1.034h1.363Z" transform="translate(-40788.699 -7948.101)" fill="#4ebbc4"/>
  <path id="Path_1657" data-name="Path 1657" d="M41070,7987.98l0,1.034h.848l0-1.034Z" transform="translate(-41035.539 -7948.101)" fill="#1b7a9c"/>
  <path id="Path_1658" data-name="Path 1658" d="M41306.9,7659.388l.516-.465,1.313,0-.469.462Z" transform="translate(-41271.141 -7620.846)" fill="#4ebbc4"/>
  <path id="Path_1659" data-name="Path 1659" d="M41556.145,7659.38l-.379-.46-.469.462Z" transform="translate(-41518.176 -7620.846)" fill="#1b7a9c"/>
  <path id="Path_1660" data-name="Path 1660" d="M41402.313,7621.51l-1.312.005v.2l1.313,0Z" transform="translate(-41364.727 -7583.641)" fill="#ddeff0"/>
  <path id="Path_1661" data-name="Path 1661" d="M41308.258,7743.2l-1.359,0,0,1.338h1.363Z" transform="translate(-41271.141 -7704.665)" fill="#ddeff0"/>
  <path id="Path_1662" data-name="Path 1662" d="M41308.5,8176.431l.008,1.406,1.363-.005,0-1.4Z" transform="translate(-41272.734 -8135.516)" fill="#ddeff0"/>
  <path id="Path_1663" data-name="Path 1663" d="M41556.148,7744.066l0-1.346-.848,0,0,1.343Z" transform="translate(-41518.176 -7704.187)" fill="#4ebbc4"/>
  <path id="Path_1664" data-name="Path 1664" d="M41556.7,8177.831l.852,0-.008-1.4h-.848Z" transform="translate(-41519.57 -8135.516)" fill="#4ebbc4"/>
  <path id="Path_1665" data-name="Path 1665" d="M41309.258,7987.98h-1.359l0,1.034h1.363Z" transform="translate(-41272.137 -7948.101)" fill="#4ebbc4"/>
  <path id="Path_1666" data-name="Path 1666" d="M41556.1,7987.98l.008,1.034h.848l0-1.034Z" transform="translate(-41518.973 -7948.101)" fill="#1b7a9c"/>
  <path id="Path_1667" data-name="Path 1667" d="M41793.1,7659.388l.516-.465,1.32,0-.469.462Z" transform="translate(-41754.676 -7620.846)" fill="#4ebbc4"/>
  <path id="Path_1668" data-name="Path 1668" d="M42042.148,7659.38l-.375-.46-.469.462Z" transform="translate(-42001.516 -7620.846)" fill="#1b7a9c"/>
  <path id="Path_1669" data-name="Path 1669" d="M41888.313,7621.51l-1.312.005v.2l1.313,0Z" transform="translate(-41848.059 -7583.641)" fill="#ddeff0"/>
  <path id="Path_1670" data-name="Path 1670" d="M41794.469,7743.2l-1.367,0,.008,1.338h1.359Z" transform="translate(-41754.676 -7704.665)" fill="#ddeff0"/>
  <path id="Path_1671" data-name="Path 1671" d="M41794.6,8176.431l0,1.406,1.363-.005-.008-1.4Z" transform="translate(-41756.168 -8135.516)" fill="#ddeff0"/>
  <path id="Path_1672" data-name="Path 1672" d="M42042.156,7744.066l-.008-1.346-.844,0v1.343Z" transform="translate(-42001.516 -7704.187)" fill="#4ebbc4"/>
  <path id="Path_1673" data-name="Path 1673" d="M42042.711,8177.831l.844,0,0-1.4h-.848Z" transform="translate(-42002.906 -8135.516)" fill="#4ebbc4"/>
  <path id="Path_1674" data-name="Path 1674" d="M41795.258,7987.98h-1.359v1.034h1.367Z" transform="translate(-41755.469 -7948.101)" fill="#4ebbc4"/>
  <path id="Path_1675" data-name="Path 1675" d="M42042.109,7987.98l0,1.034h.848l0-1.034Z" transform="translate(-42002.316 -7948.101)" fill="#1b7a9c"/>
  <path id="Path_1676" data-name="Path 1676" d="M42279,7659.388l.516-.465,1.313,0-.469.462Z" transform="translate(-42237.906 -7620.846)" fill="#4ebbc4"/>
  <path id="Path_1677" data-name="Path 1677" d="M42528.047,7659.38l-.379-.46-.469.462Z" transform="translate(-42484.742 -7620.846)" fill="#1b7a9c"/>
  <path id="Path_1678" data-name="Path 1678" d="M42374.211,7621.51l-1.312.005v.2l1.313,0Z" transform="translate(-42331.289 -7583.641)" fill="#ddeff0"/>
  <path id="Path_1679" data-name="Path 1679" d="M42280.359,7743.2l-1.359,0,0,1.338h1.363Z" transform="translate(-42237.906 -7704.665)" fill="#ddeff0"/>
  <path id="Path_1680" data-name="Path 1680" d="M42280.6,8176.431v1.406l1.367-.005-.008-1.4Z" transform="translate(-42239.5 -8135.516)" fill="#ddeff0"/>
  <path id="Path_1681" data-name="Path 1681" d="M42528.055,7744.066l-.008-1.346-.848,0,0,1.343Z" transform="translate(-42484.742 -7704.187)" fill="#4ebbc4"/>
  <path id="Path_1682" data-name="Path 1682" d="M42528.8,8177.831l.852,0,0-1.4h-.848Z" transform="translate(-42486.34 -8135.516)" fill="#4ebbc4"/>
  <path id="Path_1683" data-name="Path 1683" d="M42281.258,7987.98h-1.359l0,1.034h1.363Z" transform="translate(-42238.801 -7948.101)" fill="#4ebbc4"/>
  <path id="Path_1684" data-name="Path 1684" d="M42528.105,7987.98l0,1.034h.848l0-1.034Z" transform="translate(-42485.645 -7948.101)" fill="#1b7a9c"/>
</svg>
