<svg xmlns="http://www.w3.org/2000/svg" width="87.219" height="87.219" viewBox="0 0 87.219 87.219">
  <g id="_2522648414368" transform="translate(0 0)" opacity="0.5">
    <path id="Path_1906" data-name="Path 1906" d="M52274.922,16396.473a43.609,43.609,0,1,1-43.609-43.609A43.614,43.614,0,0,1,52274.922,16396.473Z" transform="translate(-52187.703 -16352.863)" fill="#474c55"/>
    <path id="Path_1907" data-name="Path 1907" d="M52247.859,19197.3l12.168-21.547-17.766,6.777,3.414-4.986-35.137-22.8-22.535,19.766a44.645,44.645,0,0,0-.363,5.678,43.631,43.631,0,0,0,55.414,41.986l13.82-12.437Z" transform="translate(-52187.641 -19136.582)" fill="#3f4242"/>
    <path id="Path_1908" data-name="Path 1908" d="M56568.938,19902.352a12.453,12.453,0,1,0-2.273,17.465A12.455,12.455,0,0,0,56568.938,19902.352Z" transform="translate(-56518.348 -19874.51)" fill="#7fc0c4"/>
    <path id="Path_1909" data-name="Path 1909" d="M55726.75,19179.477V19154.7h-7.445v27.322l4.609-1.578Z" transform="translate(-55696.406 -19136.531)" fill="#d84140"/>
    <path id="Path_1910" data-name="Path 1910" d="M57147.75,20006.885l.188.154,3,2.465V19989.6h-7.437v18.748l2.328-.8Z" transform="translate(-57111.367 -19966.018)" fill="#d84140"/>
    <path id="Path_1911" data-name="Path 1911" d="M58569.281,19577.24l.508-.193,4.953-1.893V19551.4h-7.437v24.213l1.7,1.4Z" transform="translate(-58525.938 -19530.658)" fill="#d84140"/>
    <path id="Path_1912" data-name="Path 1912" d="M59997.941,20006.982V19989.6h-7.441v20.227l2.9-1.109Z" transform="translate(-59939.906 -19966.018)" fill="#d84140"/>
    <path id="Path_1913" data-name="Path 1913" d="M55564.328,22135.2l1.406,3.555-.211.084-4.922,1.881-4.543,1.736-2.9,1.111-1.2.457-.6.227-4.957,1.893-.5.193-.277-.229-1.7-1.4-1.793-1.473-3-2.461-.184-.148-1.922.656-2.332.8-1.789.611-2.836.973-4.609,1.58-1.266.432,1.691,4.025,7.02-2.383,1.789-.605,2.906-.992.406-.137.207.168,3.918,3.242,2.551,2.107,3.246-1.209,3.434-1.287,1.793-.67,3.508-1.309.219-.082,3.719-1.391,6.355-2.379,1.691,3.555,6.3-9.453Z" transform="translate(-55502.563 -22097.707)" fill="#d84140"/>
    <path id="Path_1914" data-name="Path 1914" d="M59508.906,23263.789l-2.336,1.8-7.07-9.187,2.336-1.8Z" transform="translate(-59452.09 -23209.852)" fill="#fefefe"/>
    <path id="Path_1915" data-name="Path 1915" d="M60463.445,24565.82a3.356,3.356,0,0,1-5.289,4.078l-10.937-14.205a3.359,3.359,0,0,1,5.3-4.078Z" transform="translate(-60393.086 -24497.354)" fill="#cabea7"/>
    <path id="Path_1916" data-name="Path 1916" d="M56171.344,19524.449a12.454,12.454,0,1,1,2.27-17.465A12.452,12.452,0,0,1,56171.344,19524.449Zm4.313-19.039a15.034,15.034,0,1,0-2.738,21.086A15.033,15.033,0,0,0,56175.656,19505.41Z" transform="translate(-56123.027 -19479.145)" fill="#fefefe"/>
    <path id="Path_1917" data-name="Path 1917" d="M56877.961,19897.5h-.133a12.387,12.387,0,0,0-3.742.6h2.672v19.9l-2.992-2.465-.187-.154-1.922.662-2.336.8v-15.914a12.435,12.435,0,0,0-1.789,2.129v13.787c.164.24.328.475.508.707a11.8,11.8,0,0,0,1.219,1.365l.063-.021,2.336-.8,1.922-.658.188.15,2.992,2.461,1.789,1.473.961.785a12.336,12.336,0,0,0,5.992-2.484h0a12.572,12.572,0,0,0,2.281-2.273v-15.184c-.008,0-.008,0-.008-.008-.016-.012-.016-.023-.031-.037h0a12.139,12.139,0,0,0-1.75-1.84v18.531l-4.953,1.893-.508.191-.273-.229-1.711-1.4v-21.951Q56878.254,19897.5,56877.961,19897.5Z" transform="translate(-56837.188 -19874.516)" fill="#338c94"/>
    <path id="Path_1918" data-name="Path 1918" d="M56548.566,20768.535a12.456,12.456,0,0,1,0-13.789Z" transform="translate(-56518.223 -20726.205)" fill="#6c3f3b"/>
    <path id="Path_1919" data-name="Path 1919" d="M57151.016,20009.5l-3-2.465-.187-.154-1.922.662-2.332.8v-15.916c.309-.293.641-.576.984-.844h0a12.414,12.414,0,0,1,3.777-1.988h2.676Z" transform="translate(-57111.441 -19966.018)" fill="#6c3f3b"/>
    <path id="Path_1920" data-name="Path 1920" d="M58569.2,19923.729l-.281-.23-1.7-1.4v-21.951a12.428,12.428,0,0,1,7.438,2.963v18.531l-4.953,1.893Z" transform="translate(-58525.848 -19877.148)" fill="#6c3f3b"/>
    <path id="Path_1921" data-name="Path 1921" d="M59990.5,20663.121v-15.184a12.467,12.467,0,0,1,0,15.184Z" transform="translate(-59939.906 -20620.088)" fill="#6c3f3b"/>
    <path id="Path_1922" data-name="Path 1922" d="M57142.266,22977.521h0a12.457,12.457,0,0,1-8.656-3.49h0l.063-.023,2.336-.8,1.922-.656.188.148,2.992,2.461,1.8,1.473.953.785a12.016,12.016,0,0,1-1.586.105h-.008Z" transform="translate(-57101.543 -22929.629)" fill="#6c3f3b"/>
    <path id="Path_1923" data-name="Path 1923" d="M56558.949,19922.438Zm0,0a12.457,12.457,0,0,0,7.586-2.586h0a12.62,12.62,0,0,0,2.277-2.275,12.486,12.486,0,0,0,2.578-7.611,12.453,12.453,0,0,1-12.441,12.473Zm-9.879-4.859h0a12.385,12.385,0,0,1-2.59-7.582,12.4,12.4,0,0,0,2.082,6.879c.16.238.324.473.508.7Zm19.7-15.23Zm-17.437-2.234a12.411,12.411,0,0,1,7.59-2.586,12.429,12.429,0,0,0-7.59,2.586Zm7.594-2.586h0Z" transform="translate(-56518.223 -19874.543)" fill="#7fc0c4"/>
  </g>
</svg>
