<svg xmlns="http://www.w3.org/2000/svg" width="56.016" height="56.012" viewBox="0 0 56.016 56.012">
  <g id="_2522649357824" transform="translate(0 0)">
    <path id="Path_2078" data-name="Path 2078" d="M17451.641,32401.727a28.008,28.008,0,1,1-28-28.008A28.006,28.006,0,0,1,17451.641,32401.727Z" transform="translate(-17395.625 -32373.719)" fill="#f1931f"/>
    <path id="Path_2079" data-name="Path 2079" d="M17410.3,34893.3l-13.918,11.109a28.041,28.041,0,0,0,21.051,33.719l23.563-10.2Z" transform="translate(-17395.65 -34882.805)" fill="#dc7f24"/>
    <path id="Path_2080" data-name="Path 2080" d="M20466.65,37917.9v.07c0-.008,0-.016,0-.023a1.842,1.842,0,0,1-1.992,1.465h-.477a2.078,2.078,0,0,0-4,0h-.475a2.076,2.076,0,0,0-4,0h-.477a2.075,2.075,0,0,0-3.994,0h-.477a2.078,2.078,0,0,0-4,0h-.475a2.078,2.078,0,0,0-4,0h-.477a1.826,1.826,0,0,1-2-1.508,1.342,1.342,0,0,1-.016.152,1.891,1.891,0,0,1-1.982,1.355h-.477c-.006,0-.012,0-.018,0v18.625h31.65v-18.621h-.33A1.828,1.828,0,0,1,20466.65,37917.9Z" transform="translate(-20424.662 -37894.813)" fill="#fefefe"/>
    <path id="Path_2081" data-name="Path 2081" d="M20437.4,36542.9v7.242h.494a1.9,1.9,0,0,0,1.984-1.355,1.055,1.055,0,0,0,.014-.156,1.832,1.832,0,0,0,2,1.512h.473a2.076,2.076,0,0,1,4,0h.477a2.075,2.075,0,0,1,4,0h.477a2.075,2.075,0,0,1,4,0h.477a2.075,2.075,0,0,1,4,0h.477a2.072,2.072,0,0,1,3.992,0h.479a1.849,1.849,0,0,0,1.994-1.465.042.042,0,0,0,0,.02v-.07a1.83,1.83,0,0,0,2,1.516h.33v-7.242Z" transform="translate(-20424.732 -36525.539)" fill="#dfdfe0"/>
    <path id="Path_2082" data-name="Path 2082" d="M21347.3,37973.6v16.707h.154l23.857-16.707Z" transform="translate(-21330.846 -37950.285)" fill="#393734"/>
    <path id="Path_2083" data-name="Path 2083" d="M21384.3,37990.309h23.92V37973.6h-.064Z" transform="translate(-21367.691 -37950.285)" fill="#494546"/>
    <path id="Path_2084" data-name="Path 2084" d="M23307.18,34639.922v-1.391h-4.469v4.1h0v7.32a1.819,1.819,0,0,0,2,1.543h.475a1.816,1.816,0,0,0,2-1.543v-9.871A1.049,1.049,0,0,0,23307.18,34639.922Z" transform="translate(-23278.113 -34629.102)" fill="#ca3230"/>
    <path id="Path_2085" data-name="Path 2085" d="M24380.111,34640.078v-1.508h-4.479v4.051h.008v7.367a1.814,1.814,0,0,0,2,1.543h.477a1.816,1.816,0,0,0,2-1.543v-9.871C24380.113,34640.105,24380.111,34640.09,24380.111,34640.078Z" transform="translate(-24346.566 -34629.141)" fill="#fefefe"/>
    <path id="Path_2086" data-name="Path 2086" d="M25455.664,34640.047v-1.516h-4.473v11.418a1.816,1.816,0,0,0,2,1.543h.477a1.816,1.816,0,0,0,2-1.543v-9.871C25455.668,34640.07,25455.664,34640.059,25455.664,34640.047Z" transform="translate(-25417.646 -34629.102)" fill="#ca3230"/>
    <path id="Path_2087" data-name="Path 2087" d="M20779.275,34638.6h-2.756c-.023.008-.045.008-.066.016a6.057,6.057,0,0,0-1.674.313v.523a5.669,5.669,0,0,0-1.58,3.344l1.58-.016v7.43a1.055,1.055,0,0,0,.014-.156,1.829,1.829,0,0,0,2,1.508h.477a1.818,1.818,0,0,0,2-1.547v-7.277h.008Z" transform="translate(-20759.135 -34629.172)" fill="#ca3230"/>
    <path id="Path_2088" data-name="Path 2088" d="M20085.563,34718.172c-4.072,1.9-3.967,8.375-3.967,8.375a.03.03,0,0,1-.006.012v2.5a1.816,1.816,0,0,0,2,1.543h.477a1.893,1.893,0,0,0,1.984-1.352v-11.277A3.976,3.976,0,0,0,20085.563,34718.172Z" transform="translate(-20070.404 -34708.215)" fill="#fefefe"/>
    <path id="Path_2089" data-name="Path 2089" d="M26529.6,34641.789l.543,0-.543-.8v-1.559a.342.342,0,0,0-.008-.062v-1.16a5.876,5.876,0,0,0-1.988-.324h-.1l-.008-.008-2.375,0v11.418a1.816,1.816,0,0,0,2,1.543h.477a1.842,1.842,0,0,0,1.992-1.465v-.02a.3.3,0,0,0,.008-.059Z" transform="translate(-26487.107 -34628.441)" fill="#fefefe"/>
    <path id="Path_2090" data-name="Path 2090" d="M27599.1,37381.1v.1a1.855,1.855,0,0,0,1.994,1.441h.006A1.818,1.818,0,0,1,27599.1,37381.1Z" transform="translate(-27556.609 -37360.25)" fill="#ca3230"/>
    <path id="Path_2091" data-name="Path 2091" d="M27603.535,34725.711s.1-6.469-3.963-8.375h0a5.108,5.108,0,0,0-.5-.2v11.094a1.816,1.816,0,0,0,2,1.539h.469a1.814,1.814,0,0,0,2-1.539v-2.508Z" transform="translate(-27556.582 -34707.375)" fill="#ca3230"/>
    <path id="Path_2092" data-name="Path 2092" d="M27599,35020.063v-9.867h0Z" transform="translate(-27556.512 -34999.215)" fill="#ca3230"/>
    <path id="Path_2093" data-name="Path 2093" d="M22233.8,34640.02v-1.441h-4.459v1.387a1.4,1.4,0,0,0-.012.16V34650a1.818,1.818,0,0,0,2,1.543h.477a1.816,1.816,0,0,0,2-1.543v-9.871C22233.8,34640.094,22233.8,34640.055,22233.8,34640.02Z" transform="translate(-22209.199 -34629.148)" fill="#fefefe"/>
    <path id="Path_2094" data-name="Path 2094" d="M20196.3,42634.852a1.346,1.346,0,0,1-1.348,1.344h-31.246a1.348,1.348,0,1,1,0-2.7h31.246A1.347,1.347,0,0,1,20196.3,42634.852Z" transform="translate(-20150.838 -42590.777)" fill="#494546"/>
    <path id="Path_2095" data-name="Path 2095" d="M22926.576,39563.008a.97.97,0,0,0,1-.934v-5.156a.974.974,0,0,0-1-.941h-10.191a.974.974,0,0,0-1,.941v5.156a.97.97,0,0,0,1,.934Z" transform="translate(-22892.396 -39526.07)" fill="#cde4df"/>
    <path id="Path_2096" data-name="Path 2096" d="M22740.6,39398.879a1.292,1.292,0,0,1-1.32,1.262h-10.191a1.4,1.4,0,0,1-.639-.156,1.254,1.254,0,0,1-.7-1.113v-5.156a1.288,1.288,0,0,1,1.32-1.254h10.189a1.349,1.349,0,0,1,.639.156,1.249,1.249,0,0,1,.7,1.109Zm-.84-6.863h-11.189a1.277,1.277,0,0,0-1.275,1.277v5.988a1.275,1.275,0,0,0,1.275,1.277h11.189a1.276,1.276,0,0,0,1.275-1.277v-5.988A1.279,1.279,0,0,0,22739.758,39392.016Z" transform="translate(-22705.09 -39362.789)" fill="#d84140"/>
    <path id="Path_2097" data-name="Path 2097" d="M22835.553,39504.543v-5.156a1.294,1.294,0,0,1,1.32-1.258h10.191a1.361,1.361,0,0,1,.617.145,1.383,1.383,0,0,0-.637-.156h-10.191a1.292,1.292,0,0,0-1.322,1.258v5.156a1.262,1.262,0,0,0,.705,1.113A1.256,1.256,0,0,1,22835.553,39504.543Z" transform="translate(-22812.879 -39468.449)" fill="#d84140"/>
    <path id="Path_2098" data-name="Path 2098" d="M24501.395,39985.895h1.127v-.7h-1.127v-.793h1.193v-.707h-1.889v3.813h1.953v-.707h-1.258Z" transform="translate(-24471.113 -39952.008)" fill="#d84140"/>
    <path id="Path_2099" data-name="Path 2099" d="M25110.072,39984.836c0,.574.016,1.09.061,1.59h-.014a12.52,12.52,0,0,0-.5-1.3l-.635-1.4h-.809v3.813h.635v-1.148c0-.625-.01-1.16-.025-1.664l.012-.008c.15.449.35.941.533,1.348l.652,1.473h.729v-3.812h-.639Z" transform="translate(-25076.061 -39952.039)" fill="#d84140"/>
    <path id="Path_2100" data-name="Path 2100" d="M23842.91,39978.715a.777.777,0,0,1-.232-.02v-1.125a.874.874,0,0,1,.285-.035.5.5,0,0,1,.543.563A.56.56,0,0,1,23842.91,39978.715Zm.955-1.523a1.287,1.287,0,0,0-.937-.3,4.761,4.761,0,0,0-.936.078v3.758h.686v-1.359a1.888,1.888,0,0,0,.236.02,1.258,1.258,0,0,0,1-.406,1.38,1.38,0,0,0,.279-.9A1.242,1.242,0,0,0,23843.865,39977.191Z" transform="translate(-23815.148 -39945.227)" fill="#d84140"/>
    <path id="Path_2101" data-name="Path 2101" d="M23002.488,39971.984c-.463,0-.746-.527-.746-1.273s.273-1.293.742-1.293.738.586.738,1.27C23003.223,39971.43,23002.957,39971.984,23002.488,39971.984Zm.014-3.25c-.9,0-1.49.852-1.49,1.992,0,1.086.531,1.941,1.441,1.941.893,0,1.5-.758,1.5-2.008C23003.955,39969.609,23003.441,39968.734,23002.5,39968.734Z" transform="translate(-22977.67 -39937.109)" fill="#d84140"/>
    <path id="Path_2102" data-name="Path 2102" d="M23314.094,38673.25a.668.668,0,0,0,.469.188.69.69,0,0,0,.5-.211l3.063,1.824h1.035l-3.906-2.328a.69.69,0,0,0-1.379.02v.016l-3.379,2.293h.945Z" transform="translate(-23285.861 -38645.828)" fill="#fefefe"/>
    <path id="Path_2103" data-name="Path 2103" d="M24114.3,38666.668a.714.714,0,1,0,.715-.715A.715.715,0,0,0,24114.3,38666.668Z" transform="translate(-24086.324 -38639.754)" fill="#d84140"/>
  </g>
</svg>
